SplineFontDB: 3.0
FontName: CMUSansSerif
FullName: CMU Sans Serif
FamilyName: CMU Sans Serif
Weight: Medium
Copyright: Converted by Andrey V. Panov from TeX fonts
UComments: "2009-6-18: Created." 
Version: 0.7.0
ItalicAngle: 0
UnderlinePosition: -100
UnderlineWidth: 50
Ascent: 800
Descent: 200
LayerCount: 2
Layer: 0 0 "+BBcEMAQ0BD0EOAQ5 +BD8EOwQwBD0A"  1
Layer: 1 0 "+BB8ENQRABDUENAQ9BDgEOQAA +BD8EOwQwBD0A"  0
NeedsXUIDChange: 1
XUID: [1067 5151277]
FSType: 0
OS2Version: 0
OS2_WeightWidthSlopeOnly: 0
OS2_UseTypoMetrics: 1
CreationTime: 1245314045
ModificationTime: 1245314400
PfmFamily: 33
TTFWeight: 500
TTFWidth: 5
LineGap: 200
VLineGap: 90
OS2TypoAscent: 0
OS2TypoAOffset: 1
OS2TypoDescent: 0
OS2TypoDOffset: 1
OS2TypoLinegap: 200
OS2WinAscent: 900
OS2WinAOffset: 0
OS2WinDescent: 250
OS2WinDOffset: 0
HheadAscent: 900
HheadAOffset: 0
HheadDescent: -250
HheadDOffset: 0
Lookup: 1 0 0 "Case substitutions"  {"Case substitutions subtable"  } ['case' ('cyrl' <'dflt' > 'grek' <'dflt' > 'latn' <'dflt' > ) ]
Lookup: 1 0 0 "Greek small to smallcaps"  {"Greek small to smallcaps subtable"  } ['smcp' ('grek' <'dflt' > ) ]
Lookup: 1 0 0 "Greek caps to smallcaps"  {"Greek caps to smallcaps subtable"  } ['c2sc' ('grek' <'dflt' > ) ]
Lookup: 3 0 0 "Greek alternatives"  {"Greek alternatives subtable"  } ['salt' ('grek' <'dflt' > ) ]
Lookup: 1 0 0 "Greek substitutions"  {"Greek substitutions subtable"  } ['locl' ('grek' <'dflt' > ) ]
Lookup: 4 0 1 "Latin Dutch ligatures"  {"Latin Dutch ligatures subtable"  } ['liga' ('latn' <'NLD ' > ) ]
Lookup: 4 0 1 "Latin ligatures excepting Turkic"  {"Latin ligatures excepting Turkic subtable"  } ['liga' ('latn' <'dflt' 'NLD ' 'VIT ' > ) ]
Lookup: 4 0 1 "Latin ligatures"  {"Latin ligatures subtable"  } ['liga' ('latn' <'dflt' 'NLD ' 'VIT ' 'TRK ' 'AZE ' > ) ]
Lookup: 4 0 1 "Cyrillic ligatures"  {"Cyrillic ligatures subtable"  } ['liga' ('cyrl' <'dflt' 'MKD ' 'SRB ' > ) ]

StartChar: .notdef
Encoding: 0 0 0
Width: 760
Flags: HW
HStem: 10 60<105 655> 705 60<105 655>
VStem: 10 60<112 663> 690 60<112 663>
DStem2: 105 705 70 663 0.702289 -0.711892<5.31938 389.612 448.699 832.991> 70 112 105 70 0.702289 0.711892<0 384.292 443.379 827.672>
LayerCount: 2
Fore
SplineSet
10 10 m 1
 10 765 l 1
 750 765 l 1
 750 10 l 1
 10 10 l 1
70 112 m 1
 346 388 l 1
 70 663 l 1
 70 112 l 1
105 70 m 1
 655 70 l 1
 380 346 l 1
 105 70 l 1
105 705 m 1
 380 429 l 1
 655 705 l 1
 105 705 l 1
414 388 m 1
 690 112 l 1
 690 663 l 1
 414 388 l 1
EndSplineSet
EndChar

StartChar: uni262D
Encoding: 9773 9773 1
Width: 700
Flags: HW
TeX: 117 0
HStem: -1 21G<56 93 593.5 601> 39 76<321.786 462.78> 102 51<140.549 177.987>
VStem: 129 54<101.776 137.734> 556 82<197.341 366.709>
DStem2: 123 357 178 301 0.707107 0.707107<0 86.9741 130.108 182.434>
LayerCount: 2
Fore
SplineSet
40 18 m 0
 40 64 129 102 129 128 c 0
 129 148 134 153 148 153 c 0xb8
 162 153 164 157 182 180 c 1
 229 156 307 115 390 115 c 0
 438 115 463 128 463 129 c 0
 463 135 406 186 240 363 c 1
 178 301 l 1
 123 357 l 1
 252 486 l 1
 347 470 l 1
 271 393 l 1
 484 190 l 1
 513 165 l 1
 519 165 556 218 556 295 c 0
 556 473 346 588 346 593 c 1
 394 593 638 478 638 267 c 0
 638 167 592 118 580 100 c 1
 636 44 637 42 637 38 c 0xd8
 637 17 605 -1 597 -1 c 2
 596 -1 l 2
 591 -1 590 1 529 62 c 1
 500 51 474 39 428 39 c 0xd8
 297 39 201 138 188 138 c 0
 183 138 182 134 182 130 c 0
 182 126 183 123 183 118 c 0
 183 108 178 102 168 102 c 0
 131 102 122 0 64 -0 c 0
 48 0 40 7 40 18 c 0
EndSplineSet
EndChar

StartChar: longs
Encoding: 383 383 2
Width: 305
Flags: HW
TeX: 108 0
HStem: 0 21G<101 176> 672 61<202.045 345.644>
VStem: 101 75<0 643.575>
AnchorPoint: "above" 268 722 basechar 0
AnchorPoint: "below" 138 0 basechar 0
LayerCount: 2
Fore
SplineSet
101 0 m 1
 101 547 l 2
 101 660 174 733 268 733 c 0
 289 733 315 730 347 722 c 1
 347 655 l 1
 321 665 298 672 266 672 c 0
 228 672 173 654 173 581 c 0
 173 425 176 405 176 386 c 2
 176 0 l 1
 101 0 l 1
EndSplineSet
EndChar

StartChar: florin
Encoding: 402 402 3
Width: 620
Flags: HW
TeX: 102 0
HStem: -205 64<38.4137 169.277> 386 59<234 296 380 482> 672 61<454.709 601.912>
DStem2: 296 386 372 386 0.208343 0.978056<-523.564 0 75.2061 267.876>
LayerCount: 2
Fore
SplineSet
6 -171 m 1
 40 -110 l 1
 50 -120 67 -141 108 -141 c 0
 191 -141 200 -62 200 -62 c 1
 296 386 l 1
 222 386 l 1
 234 445 l 1
 308 445 l 1
 334 568 334 575 350 607 c 0
 367 641 426 733 538 733 c 0
 569 733 597 727 614 722 c 1
 598 655 l 1
 570 666 558 672 522 672 c 0
 457 672 426 625 418 607 c 0
 413 596 410 583 380 445 c 1
 494 445 l 1
 482 386 l 1
 372 386 l 1
 284 -27 l 2
 278 -55 273 -82 260 -107 c 0
 247 -134 202 -205 120 -205 c 0
 75 -205 38 -192 6 -171 c 1
EndSplineSet
EndChar

StartChar: uni03F5
Encoding: 1013 1013 4
Width: 430
Flags: HW
TeX: 117 0
HStem: -11 66<252.284 381> 199 64<124 326> 389 66<242.631 381>
LayerCount: 2
Fore
SplineSet
48 225 m 0
 48 365 194 454 381 455 c 1
 381 389 l 1
 202 387 145 318 124 263 c 1
 326 263 l 1
 326 199 l 1
 121 199 l 1
 144 101 255 57 381 55 c 1
 381 -11 l 1
 233 -11 48 62 48 225 c 0
EndSplineSet
EndChar

StartChar: uni01EB
Encoding: 491 491 5
Width: 500
Flags: HW
HStem: -218 70<243.517 363.694> -11 64<180.289 250> 400 61<177.341 320.647>
VStem: 30 78<132.522 323.307> 181 58<-141.276 -62.0061> 391 78<129.344 323.296>
LayerCount: 2
Fore
SplineSet
30 220 m 0
 30 351 127 461 250 461 c 0
 369 461 469 354 469 220 c 0
 469 130 421 54 351 15 c 0
 302 -12 239 -55 239 -108 c 0
 239 -128 253 -148 291 -148 c 0
 320 -148 357 -134 360 -134 c 1
 375 -193 l 1
 354 -203 317 -218 278 -218 c 0
 216 -218 181 -178 181 -129 c 0
 181 -82 211 -43 250 -11 c 1
 249 -11 l 2
 132 -11 30 88 30 220 c 0
108 230 m 0
 108 109 180 53 249 53 c 0
 323 53 391 112 391 230 c 0
 391 348 319 400 249 400 c 0
 184 400 108 351 108 230 c 0
EndSplineSet
EndChar

StartChar: circumflex.cap
Encoding: 65536 -1 6
Width: 500
Flags: HW
HStem: 727 173
VStem: 94 311
DStem2: 94 727 156 727 0.582571 0.81278<36.1194 190.04>
AnchorPoint: "above" 250 716 mark 0
LayerCount: 2
Fore
SplineSet
94 727 m 1
 218 900 l 1
 294 900 l 1
 405 727 l 1
 344 727 l 1
 250 849 l 1
 156 727 l 1
 94 727 l 1
EndSplineSet
EndChar

StartChar: caron.cap
Encoding: 65539 -1 9
Width: 500
Flags: HW
HStem: 727 162
VStem: 92 317
AnchorPoint: "above" 250 716 mark 0
LayerCount: 2
Fore
SplineSet
92 889 m 1
 152 889 l 1
 250 778 l 1
 346 889 l 1
 409 889 l 1
 286 727 l 1
 214 727 l 1
 92 889 l 1
EndSplineSet
EndChar

StartChar: ring.cap
Encoding: 65540 -1 10
Width: 500
Flags: HW
HStem: 666 61<202.628 297.587> 827 61<203.177 297.195>
VStem: 139 56<734.907 819.299> 305 56<735.118 819.304>
AnchorPoint: "above" 250 716 mark 0
LayerCount: 2
Fore
SplineSet
139 777 m 0
 139 842 193 888 250 888 c 0
 314 888 361 836 361 777 c 0
 361 720 316 666 250 666 c 0
 185 666 139 719 139 777 c 0
195 777 m 0
 195 754 206 727 250 727 c 0
 294 727 305 754 305 777 c 0
 305 800 294 827 251 827 c 0
 206 827 195 800 195 777 c 0
EndSplineSet
EndChar

StartChar: breve.cap
Encoding: 65541 -1 11
Width: 500
Flags: HW
HStem: 727 67<182.307 317.54>
VStem: 80 61<833.354 889> 358 62<832.967 889>
AnchorPoint: "above" 250 716 mark 0
LayerCount: 2
Fore
SplineSet
80 889 m 1
 141 889 l 1
 145 822 204 794 250 794 c 0
 304 794 354 828 358 889 c 1
 420 889 l 1
 417 789 336 727 250 727 c 0
 162 727 82 790 80 889 c 1
EndSplineSet
EndChar

StartChar: uni026A
Encoding: 618 618 12
Width: 191
Flags: HW
HStem: 0 59<46 56 134 144> 386 59<46 56 134 144>
VStem: 46 98<0 59 386 445>
AnchorPoint: "affricate-below" 191 -195 basechar 0
AnchorPoint: "affricate-above" 191 722 basechar 0
AnchorPoint: "below" 95 0 basechar 0
AnchorPoint: "above" 95 461 basechar 0
LayerCount: 2
Fore
SplineSet
46 0 m 1
 46 59 l 1
 56 59 l 1
 56 386 l 1
 46 386 l 1
 46 445 l 1
 144 445 l 1
 144 386 l 1
 134 386 l 1
 134 59 l 1
 144 59 l 1
 144 0 l 1
 46 0 l 1
EndSplineSet
EndChar

StartChar: grave
Encoding: 96 96 13
Width: 500
Flags: HW
TeX: 638 0
HStem: 510 130
VStem: 97 211
DStem2: 175 640 97 640 0.755689 -0.654931<0 139.551>
LayerCount: 2
Fore
SplineSet
97 640 m 1
 175 640 l 1
 308 510 l 1
 247 510 l 1
 97 640 l 1
EndSplineSet
EndChar

StartChar: acute
Encoding: 180 180 14
Width: 500
Flags: HW
TeX: 638 0
HStem: 510 130
VStem: 190 211
DStem2: 190 510 252 510 0.753516 0.65743<46.718 185.683>
LayerCount: 2
Fore
SplineSet
190 510 m 1
 323 640 l 1
 401 640 l 1
 252 510 l 1
 190 510 l 1
EndSplineSet
EndChar

StartChar: circumflex
Encoding: 710 710 15
Width: 500
Flags: HW
TeX: 638 0
HStem: 509 141
VStem: 94 311
DStem2: 94 509 155 509 0.663375 0.748287<40.4659 176.904> 280 650 249 608 0.663375 -0.748287<10.8634 147.964>
LayerCount: 2
Fore
SplineSet
94 509 m 1
 219 650 l 1
 280 650 l 1
 405 509 l 1
 344 509 l 1
 249 608 l 1
 155 509 l 1
 94 509 l 1
EndSplineSet
EndChar

StartChar: tilde
Encoding: 732 732 16
Width: 500
Flags: HW
TeX: 638 0
HStem: 529 61<256.487 347.981> 577 62<150.923 244.511>
VStem: 83 61<529 572.322> 355 61<596.503 639>
LayerCount: 2
Fore
SplineSet
83 529 m 1xb0
 85 597 131 639 181 639 c 0x70
 233 639 270 590 314 590 c 0xb0
 340 590 354 613 355 639 c 1
 416 639 l 1x70
 414 573 369 529 318 529 c 0xb0
 266 529 229 577 185 577 c 0x70
 169 577 147 569 144 529 c 1
 83 529 l 1xb0
EndSplineSet
EndChar

StartChar: ring
Encoding: 730 730 19
Width: 667
Flags: HW
TeX: 638 0
HStem: 476 33<288.97 374.43> 606 33<289.771 375.03>
VStem: 221 56<517.672 597.395> 387 56<517.616 597.328>
LayerCount: 2
Fore
SplineSet
221 558 m 0
 221 596 262 639 332 639 c 0
 405 639 443 592 443 557 c 0
 443 519 402 476 332 476 c 0
 259 476 221 523 221 558 c 0
277 557 m 0
 277 538 288 509 332 509 c 0
 376 509 387 539 387 558 c 0
 387 577 376 606 332 606 c 0
 298 606 277 587 277 557 c 0
EndSplineSet
EndChar

StartChar: caron
Encoding: 711 711 20
Width: 500
Flags: HW
TeX: 638 0
HStem: 545 94
VStem: 88 323
LayerCount: 2
Fore
SplineSet
88 639 m 1
 150 639 l 1
 250 571 l 1
 349 639 l 1
 384 639 l 1
 411 638 l 1
 281 545 285 545 268 545 c 2
 232 545 l 2
 214 545 211 550 88 639 c 1
EndSplineSet
EndChar

StartChar: breve
Encoding: 728 728 21
Width: 500
Flags: HW
TeX: 638 0
HStem: 498 67<171.009 327.302>
VStem: 80 61<595.404 639> 357 62<595.404 639>
LayerCount: 2
Fore
SplineSet
80 639 m 1
 141 639 l 1
 147 573 223 565 250 565 c 0
 276 565 351 573 357 639 c 1
 419 639 l 1
 416 547 330 498 249 498 c 0
 168 498 83 547 80 639 c 1
EndSplineSet
EndChar

StartChar: macron
Encoding: 175 175 22
Width: 500
Flags: HW
TeX: 657 0
HStem: 618 64<69 429>
LayerCount: 2
Fore
SplineSet
69 618 m 1
 69 682 l 1
 429 682 l 1
 429 618 l 1
 69 618 l 1
EndSplineSet
EndChar

StartChar: cedilla
Encoding: 184 184 24
Width: 444
Flags: HW
TeX: 0 170
HStem: -192 169
VStem: 117 135
DStem2: 117 -192 187 -192 0.401103 0.916033<28.0772 184.491>
LayerCount: 2
Fore
SplineSet
117 -192 m 1
 191 -23 l 1
 252 -23 l 1
 187 -192 l 1
 117 -192 l 1
EndSplineSet
EndChar

StartChar: ogonek
Encoding: 731 731 25
Width: 278
Flags: HW
TeX: 0 194
HStem: -214 74<55.0376 132.8>
VStem: -29 82<-134.395 -74.7072>
LayerCount: 2
Fore
SplineSet
-29 -131 m 0
 -29 -59 73 -10 139 48 c 1
 166 -0 l 1
 124 -37 53 -75 53 -115 c 0
 53 -119 54 -122 55 -126 c 1
 58 -130 65 -140 86 -140 c 0
 118 -140 140 -113 155 -91 c 1
 206 -126 l 1
 173 -182 127 -214 74 -214 c 0
 23 -214 -29 -180 -29 -131 c 0
EndSplineSet
EndChar

StartChar: guilsinglleft
Encoding: 8249 8249 27
Width: 444
Flags: HW
TeX: 441 0
HStem: -0 21G<256.364 332>
VStem: 110 222
LayerCount: 2
Fore
SplineSet
110 220 m 1
 271 439 l 1
 332 439 l 1
 188 219 l 1
 332 -0 l 1
 271 -0 l 1
 110 220 l 1
EndSplineSet
EndChar

StartChar: guilsinglright
Encoding: 8250 8250 28
Width: 444
Flags: HW
TeX: 441 0
HStem: 0 21G<110 185.703>
VStem: 110 222
LayerCount: 2
Fore
SplineSet
110 0 m 1
 254 220 l 1
 110 439 l 1
 171 439 l 1
 332 219 l 1
 171 0 l 1
 110 0 l 1
EndSplineSet
EndChar

StartChar: endash
Encoding: 8211 8211 34
Width: 500
Flags: HW
TeX: 441 0
ItalicCorrection: 27
HStem: 244 61<0 500>
LayerCount: 2
Fore
SplineSet
0 244 m 1
 0 305 l 1
 500 305 l 1
 500 244 l 1
 0 244 l 1
EndSplineSet
EndChar

StartChar: emdash
Encoding: 8212 8212 35
Width: 1000
Flags: HW
TeX: 441 0
ItalicCorrection: 27
HStem: 244 61<0 999>
LayerCount: 2
Fore
SplineSet
0 244 m 1
 0 305 l 1
 999 305 l 1
 999 244 l 1
 0 244 l 1
EndSplineSet
Substitution2: "Cyrillic substitutions subtable" emdash.cyr
AlternateSubs2: "Cyrillic alternatives subtable" emdash.cyr
EndChar

StartChar: dotlessi
Encoding: 305 305 37
Width: 239
Flags: HW
TeX: 441 0
HStem: 0 21G<81 156> 425 20G<81 156>
VStem: 81 75<0 445>
AnchorPoint: "below" 118 0 basechar 0
AnchorPoint: "above" 118 461 basechar 0
LayerCount: 2
Fore
SplineSet
81 0 m 1
 81 445 l 1
 156 445 l 1
 156 0 l 1
 81 0 l 1
EndSplineSet
EndChar

StartChar: dotlessj
Encoding: 567 567 38
Width: 267
Flags: HW
TeX: 441 194
HStem: -205 64<-28.9647 90.1628> 425 20G<110 185>
VStem: 110 75<-118.273 445>
AnchorPoint: "below" 92 -195 basechar 0
AnchorPoint: "above" 148 461 basechar 0
LayerCount: 2
Fore
SplineSet
-61 -171 m 1
 -41 -110 l 1
 -17 -130 4 -141 34 -141 c 0
 75 -141 102 -116 108 -90 c 0
 110 -82 110 -73 110 -65 c 2
 110 445 l 1
 185 445 l 1
 185 -50 l 2
 185 -173 110 -205 59 -205 c 0
 11 -205 -30 -189 -61 -171 c 1
EndSplineSet
EndChar

StartChar: ff
Encoding: 64256 64256 39
Width: 583
Flags: HW
TeX: 722 0
ItalicCorrection: 69
HStem: 0 21G<101 176 378 454> 386 59<27 101 176 286 454 564> 672 61<203.063 345.92 480.667 622.736>
VStem: 101 75<0 386 445 643.631> 378 76<0 386 445 640.627>
LayerCount: 2
Fore
SplineSet
378 0 m 1
 378 542 l 2
 378 674 465 733 544 733 c 0
 568 733 593 730 624 722 c 1
 624 655 l 1
 601 664 576 672 544 672 c 0
 512 672 451 658 451 581 c 2
 451 445 l 1
 564 445 l 1
 564 386 l 1
 454 386 l 1
 454 0 l 1
 378 0 l 1
EndSplineSet
Refer: 114 102 S 1 0 0 1 0 0 2
Ligature2: "Latin ligatures subtable" f f
EndChar

StartChar: fi
Encoding: 64257 64257 40
Width: 536
Flags: HW
TeX: 722 0
HStem: 0 21G<101 176 378 453> 386 59<27 101 176 294> 425 20<378 453> 639 84<374 458> 672 61<191.257 293.066>
VStem: 101 75<0 386 445 650.758> 374 84<639 723> 378 75<0 445>
LayerCount: 2
Fore
SplineSet
27 386 m 1
 27 445 l 1
 101 445 l 1
 101 544 l 2xc4
 101 686 181 733 235 733 c 0
 259 733 271 729 294 722 c 1
 294 654 l 1
 277 663 260 672 235 672 c 0
 210 672 173 656 173 581 c 2
 173 445 l 1xac
 294 445 l 1
 294 386 l 1
 176 386 l 1
 176 0 l 1
 101 0 l 1
 101 386 l 1
 27 386 l 1
EndSplineSet
Refer: 37 305 S 1 0 0 1 297 0 2
Refer: 58 46 S 1 0 0 1 278 639 2
Ligature2: "Latin ligatures excepting Turkic subtable" f i
EndChar

StartChar: fl
Encoding: 64258 64258 41
Width: 536
Flags: HW
TeX: 722 0
HStem: 0 21G<101 176 378 453> 386 59<27 101 176 294> 672 61<191.358 293.088> 702 20<378 453>
VStem: 101 75<0 386 445 650.758> 378 75<0 722>
LayerCount: 2
Fore
SplineSet
27 386 m 1
 27 445 l 1
 101 445 l 1
 101 544 l 2xec
 101 686 181 733 235 733 c 0xec
 259 733 271 729 294 722 c 1xdc
 294 655 l 1
 278 663 258 672 235 672 c 0
 214 672 173 660 173 581 c 2
 173 445 l 1
 294 445 l 1
 294 386 l 1
 176 386 l 1
 176 0 l 1
 101 0 l 1
 101 386 l 1
 27 386 l 1
EndSplineSet
Refer: 120 108 S 1 0 0 1 297 0 2
Ligature2: "Latin ligatures subtable" f l
EndChar

StartChar: ffi
Encoding: 64259 64259 42
Width: 814
Flags: HW
TeX: 722 0
HStem: -0 21G<101 176 378 454 656 731> 386 59<27 101 176 294 454 572> 425 20<656 731> 639 84<652 736> 655 67<252.261 319 514.076 572> 672 61<197.088 318.084 470.378 571.086>
VStem: 101 75<0 386 445 645.677> 378 76<0 386 445 650.462> 652 84<639 723> 656 75<0 445>
LayerCount: 2
Fore
SplineSet
27 386 m 1
 27 445 l 1
 101 445 l 1
 101 542 l 2
 101 676 180 733 251 733 c 0xc7
 278 733 299 728 319 722 c 1
 319 655 l 1x8b
 300 664 278 672 250 672 c 0
 226 672 173 661 173 581 c 2
 173 445 l 1xa7
 294 445 l 1
 294 386 l 1
 176 386 l 1
 176 -0 l 1
 101 -0 l 1
 101 386 l 1
 27 386 l 1
378 -0 m 1
 378 539 l 2xc3
 378 689 459 733 512 733 c 0xc7
 530 733 549 731 572 723 c 1x93
 572 654 l 1
 556 663 536 672 513 672 c 0
 488 672 451 656 451 581 c 2
 451 445 l 1xa7
 572 445 l 1
 572 386 l 1
 454 386 l 1
 454 -0 l 1
 378 -0 l 1
EndSplineSet
Refer: 37 305 S 1 0 0 1 575 0 2
Refer: 58 46 S 1 0 0 1 556 639 2
Ligature2: "Latin ligatures excepting Turkic subtable" ff i
Ligature2: "Latin ligatures excepting Turkic subtable" f f i
EndChar

StartChar: ffl
Encoding: 64260 64260 43
Width: 814
Flags: HW
TeX: 722 0
HStem: -0 21G<101 176 378 454 656 731> 386 59<27 101 176 294 454 572> 655 67<252.261 319 514.116 572> 672 61<197.088 318.084 469.28 571.089> 702 20<656 731>
VStem: 101 75<0 386 445 645.677> 378 76<0 386 445 650.019> 656 75<0 722>
CounterMasks: 1 07
LayerCount: 2
Fore
SplineSet
27 386 m 1
 27 445 l 1
 101 445 l 1
 101 542 l 2
 101 676 180 733 251 733 c 0xd7
 278 733 299 728 319 722 c 1
 319 655 l 1xe7
 300 664 278 672 250 672 c 0
 226 672 173 661 173 581 c 2
 173 445 l 1
 294 445 l 1
 294 386 l 1
 176 386 l 1
 176 -0 l 1
 101 -0 l 1
 101 386 l 1
 27 386 l 1
378 -0 m 1
 378 539 l 2xd7
 378 688 459 733 513 733 c 0xd7
 537 733 549 729 572 722 c 1
 572 655 l 1xe7
 556 664 536 672 513 672 c 0
 492 672 451 660 451 581 c 2
 451 445 l 1
 572 445 l 1
 572 386 l 1
 454 386 l 1
 454 -0 l 1
 378 -0 l 1
EndSplineSet
Refer: 120 108 S 1 0 0 1 575 0 2
Ligature2: "Latin ligatures subtable" ff l
Ligature2: "Latin ligatures subtable" f f l
EndChar

StartChar: uni2423
Encoding: 9251 9251 44
Width: 500
Flags: HW
TeX: 441 97
HStem: -119 44<84 414>
VStem: 41 43<-75 239.988> 414 43<-75 239.988>
LayerCount: 2
Fore
SplineSet
41 -89 m 2
 41 211 l 2
 41 236 54 240 63 240 c 0
 83 240 84 223 84 211 c 2
 84 -75 l 1
 414 -75 l 1
 414 211 l 2
 414 223 415 240 435 240 c 0
 444 240 457 236 457 212 c 2
 457 -88 l 2
 457 -108 451 -119 427 -119 c 2
 72 -119 l 2
 55 -119 41 -115 41 -89 c 2
EndSplineSet
EndChar

StartChar: exclam
Encoding: 33 33 45
Width: 319
Flags: HW
TeX: 722 0
HStem: 0 84<117 201> 702 20G<117 201>
VStem: 117 84<0 84> 118 83<296.556 722> 125 67<175 600.444>
LayerCount: 2
Fore
SplineSet
117 722 m 1xe0
 201 722 l 1xd0
 192 175 l 1
 125 175 l 1xc8
 118 671 l 1xd0
 117 722 l 1xe0
EndSplineSet
Refer: 58 46 S 1 0 0 1 21 -0 2
EndChar

StartChar: quotedbl
Encoding: 34 34 46
Width: 500
Flags: HW
TeX: 722 0
HStem: 702 20G<126 204 294 372>
VStem: 126 78<442 722> 135 61<362 642> 294 78<442 722> 302 61<362 642>
LayerCount: 2
Fore
SplineSet
126 722 m 1
 204 722 l 1xc0
 196 363 l 1
 196 362 l 1xa0
 135 362 l 1xa0
 126 722 l 1
294 722 m 1
 372 722 l 1x90
 363 362 l 1
 302 362 l 1x88
 302 363 l 1x88
 294 722 l 1
EndSplineSet
EndChar

StartChar: numbersign
Encoding: 35 35 47
Width: 833
Flags: HW
TeX: 722 222
HStem: 119 61<57.3348 242 321 461 540 774.722> 320 61<57.1458 291 370 511 590 774.495> 702 20G<402 424 621 643>
VStem: 386 64<-219.422 -170.92 656.24 718.967>
DStem2: 170 -170 230 -183 0.241197 0.970476<-21.9517 297.834 376.087 504.718 582.972 903.727> 390 -170 450 -183 0.241197 0.970476<-21.9517 297.593 375.846 504.718 582.972 902.516>
LayerCount: 2
Fore
SplineSet
56 150 m 0
 56 158 59 180 93 180 c 2
 258 180 l 1
 291 320 l 1
 91 320 l 1
 59 321 56 342 56 350 c 0
 56 362 61 381 96 381 c 2
 307 381 l 1
 382 683 l 2
 384 690 388 722 416 722 c 0
 432 722 445 708 446 693 c 0
 446 685 444 677 442 670 c 2
 370 381 l 1
 527 381 l 1
 601 683 l 2
 603 690 607 722 635 722 c 0
 651 722 664 707 665 692 c 0
 665 684 664 677 662 670 c 2
 590 381 l 1
 726 381 l 2
 744 381 754 381 763 375 c 0
 771 369 776 360 776 350 c 0
 776 341 772 320 739 320 c 2
 574 320 l 1
 540 180 l 1
 741 180 l 2
 772 180 776 158 776 150 c 0
 776 138 770 119 736 119 c 2
 525 119 l 1
 450 -183 l 2
 448 -191 444 -222 416 -222 c 0
 400 -222 387 -207 386 -192 c 0
 386 -184 388 -177 390 -170 c 2
 461 119 l 1
 305 119 l 1
 230 -183 l 2
 228 -191 224 -222 196 -222 c 0
 180 -222 167 -207 166 -192 c 0
 166 -184 168 -177 170 -170 c 2
 242 119 l 1
 105 119 l 2
 87 119 77 118 68 125 c 0
 60 131 56 140 56 150 c 0
321 180 m 1
 477 180 l 1
 511 320 l 1
 355 320 l 1
 321 180 l 1
EndSplineSet
EndChar

StartChar: dollar
Encoding: 36 36 48
Width: 500
Flags: HW
TeX: 746 27
HStem: -8 66<132.75 220 279 317.104> 665 66<178.415 220 279 363.029>
VStem: 55 73<478.707 616.295> 220 59<-28 -7.24289 58 322 430 665 730.06 750> 370 73<113.283 267.523>
LayerCount: 2
Fore
SplineSet
44 61 m 1
 56 130 l 1
 117 81 151 65 220 55 c 1
 220 337 l 1
 219 337 l 1
 89 367 55 467 55 534 c 0
 55 625 115 712 220 731 c 1
 220 750 l 1
 279 750 l 1
 279 732 l 1
 340 726 377 711 427 675 c 1
 415 609 l 1
 370 644 335 662 279 667 c 1
 279 414 l 1
 409 383 443 275 443 203 c 0
 443 96 373 7 279 -8 c 1
 279 -28 l 1
 220 -28 l 1
 220 -10 l 1
 163 -4 103 15 44 61 c 1
128 547 m 0
 128 505 151 450 220 430 c 1
 220 665 l 1
 219 665 l 1
 148 642 128 587 128 547 c 0
279 58 m 1
 352 82 370 148 370 190 c 0
 370 233 353 296 279 322 c 1
 279 58 l 1
EndSplineSet
EndChar

StartChar: percent
Encoding: 37 37 49
Width: 833
Flags: HW
TeX: 746 27
HStem: 299 62<600.159 676.388> 688 62<156.076 232.281>
VStem: 55 75<450.927 657.389> 263 70<458.645 652.913> 499 75<61.9268 268.389> 707 70<69.6445 262.076>
DStem2: 185 13 221 -5 0.515018 0.857179<-21.4531 857.875>
LayerCount: 2
Fore
SplineSet
176 -7 m 0
 176 1 184 11 185 13 c 2
 620 737 l 2
 623 742 629 749 639 749 c 0
 649 749 658 741 658 730 c 0
 658 722 651 710 646 702 c 2
 221 -5 l 2
 215 -14 209 -27 196 -27 c 0
 185 -27 176 -17 176 -7 c 0
499 167 m 0
 499 285 570 361 640 361 c 0
 712 361 777 278 777 166 c 0
 777 58 714 -28 639 -28 c 0
 569 -28 499 49 499 167 c 0
574 159 m 2
 574 56 615 40 632 35 c 1
 642 34 l 1
 676 37 707 89 707 167 c 0
 707 237 681 298 635 299 c 1
 606 296 574 265 574 167 c 2
 574 159 l 2
EndSplineSet
Refer: 691 8320 S 1 0 0 1 -28 389 2
EndChar

StartChar: ampersand
Encoding: 38 38 50
Width: 758
Flags: HW
TeX: 722 0
HStem: -22 64<162.013 334.047 511.613 699.701> 683 61<253.007 338.112>
VStem: 41 78<85.8784 228.06> 161 65<438.293 653.753> 360 69<518.004 662.906> 602 64<339.833 390.75>
LayerCount: 2
Fore
SplineSet
41 150 m 0
 41 239 100 279 194 365 c 1
 176 414 161 476 161 541 c 0
 161 658 217 744 300 744 c 0
 385 744 429 656 429 584 c 0
 429 539 409 477 277 358 c 1
 294 322 327 254 436 125 c 1
 529 206 577 314 602 405 c 1
 666 389 l 1
 639 285 584 174 484 81 c 1
 521 57 541 42 587 42 c 0
 633 42 668 51 701 60 c 1
 701 -7 l 1
 679 -13 633 -22 587 -22 c 0
 522 -22 474 -1 426 37 c 1
 425 37 l 1
 379 7 304 -22 224 -22 c 0
 114 -22 41 61 41 150 c 0
119 158 m 0
 119 104 153 42 226 42 c 0
 271 42 323 54 376 83 c 1
 358 104 270 202 220 305 c 1
 159 250 119 225 119 158 c 0
226 576 m 0
 226 520 238 467 253 420 c 1
 342 501 360 552 360 585 c 0
 360 620 347 683 299 683 c 0
 270 683 226 657 226 576 c 0
EndSplineSet
EndChar

StartChar: parenleft
Encoding: 40 40 52
Width: 389
Flags: HW
TeX: 746 249
VStem: 80 78<51.218 447.951>
LayerCount: 2
Fore
SplineSet
80 250 m 0
 80 551 203 689 271 750 c 1
 333 750 l 1
 304 719 281 697 252 648 c 0
 181 529 158 387 158 250 c 0
 158 103 184 -81 301 -216 c 1
 333 -250 l 1
 271 -250 l 1
 207 -192 80 -54 80 250 c 0
EndSplineSet
EndChar

StartChar: parenright
Encoding: 41 41 53
Width: 389
Flags: HW
TeX: 746 249
VStem: 230 78<51.1484 447.261>
LayerCount: 2
Fore
SplineSet
55 -250 m 1
 115 -186 230 -64 230 250 c 0
 230 577 102 700 55 750 c 1
 116 750 l 1
 184 689 308 550 308 251 c 0
 308 -51 184 -189 116 -250 c 1
 55 -250 l 1
EndSplineSet
EndChar

StartChar: asterisk
Encoding: 42 42 54
Width: 500
Flags: HW
TeX: 746 0
VStem: 215 69<308.641 475.044 580.681 747.174>
LayerCount: 2
Fore
SplineSet
64 435 m 0
 64 460 74 461 199 527 c 1
 199 528 l 1
 76 593 64 594 64 620 c 0
 64 634 76 655 97 655 c 0
 105 655 114 652 125 645 c 2
 223 576 l 1
 220 622 215 708 215 713 c 0
 215 743 238 750 250 750 c 0
 260 750 284 742 284 715 c 0
 284 705 282 677 276 576 c 1
 380 649 386 655 399 655 c 0
 420 655 435 638 435 620 c 0
 435 595 425 594 300 528 c 1
 300 527 l 1
 423 462 435 461 435 435 c 0
 435 421 423 401 402 401 c 0
 394 401 385 403 375 410 c 2
 276 480 l 1
 279 434 284 348 284 343 c 0
 284 314 262 306 250 306 c 0
 231 306 215 321 215 340 c 0
 215 348 217 373 223 480 c 1
 119 407 113 400 100 400 c 0
 79 400 64 417 64 435 c 0
EndSplineSet
EndChar

StartChar: plus
Encoding: 43 43 55
Width: 778
Flags: HW
TeX: 583 83
HStem: 220 61<56.3967 358 419 719.77>
VStem: 358 61<-81.5176 220 281 581.559>
LayerCount: 2
Fore
SplineSet
55 250 m 0
 55 268 69 277 77 279 c 0
 85 281 94 281 102 281 c 2
 358 281 l 1
 358 538 l 2
 358 550 357 583 388 583 c 0
 422 583 419 541 419 538 c 2
 419 281 l 1
 679 281 l 2
 693 281 721 279 721 250 c 0
 721 221 695 220 681 220 c 2
 419 220 l 1
 419 -38 l 2
 419 -49 421 -83 389 -83 c 0
 371 -83 361 -68 359 -60 c 0
 357 -53 358 -45 358 -38 c 2
 358 220 l 1
 100 220 l 1
 100 220 96 219 92 219 c 0
 64 219 55 237 55 250 c 0
EndSplineSet
EndChar

StartChar: comma
Encoding: 44 44 56
Width: 278
Flags: HW
TeX: 83 124
HStem: -125 209<122 138>
VStem: 96 84<0 84> 96 42<-125 -103.659>
LayerCount: 2
Fore
SplineSet
96 0 m 1xc0
 96 84 l 1
 180 84 l 1
 180 14 l 1xc0
 179 -0 l 1
 138 -125 l 1
 96 -125 l 1xa0
 122 0 l 1
 96 0 l 1xc0
EndSplineSet
EndChar

StartChar: hyphen
Encoding: 45 45 57
Width: 333
Flags: HW
TeX: 441 0
HStem: 193 59<10 276>
VStem: 10 266<193 252>
LayerCount: 2
Fore
SplineSet
10 193 m 1
 10 252 l 1
 276 252 l 1
 276 193 l 1
 10 193 l 1
EndSplineSet
EndChar

StartChar: period
Encoding: 46 46 58
Width: 278
Flags: HW
TeX: 83 0
HStem: 0 84<96 180>
VStem: 96 84<0 84>
LayerCount: 2
Fore
SplineSet
96 0 m 1
 96 84 l 1
 180 84 l 1
 180 0 l 1
 96 0 l 1
EndSplineSet
EndChar

StartChar: slash
Encoding: 47 47 59
Width: 500
Flags: HW
TeX: 746 249
DStem2: 65 -186 118 -220 0.329566 0.944133<-33.8174 978.659>
LayerCount: 2
Fore
SplineSet
56 -219 m 0
 56 -212 56 -212 65 -186 c 2
 381 720 l 2
 385 732 394 749 413 749 c 0
 428 749 443 737 443 719 c 0
 443 711 439 700 436 691 c 2
 118 -220 l 2
 113 -233 105 -250 86 -250 c 0
 70 -250 56 -236 56 -219 c 0
EndSplineSet
EndChar

StartChar: zero
Encoding: 48 48 60
Width: 500
Flags: HW
TeX: 657 0
HStem: -22 61<189.323 309.886> 616 62<185.511 312.785>
VStem: 41 78<138.312 515.957> 380 78<139.625 514.734>
LayerCount: 2
Fore
SplineSet
41 310 m 2
 41 327 l 2
 41 422 45 613 186 666 c 0
 204 673 224 678 249 678 c 0
 332 678 458 624 458 345 c 2
 458 324 l 2
 458 227 452 41 312 -11 c 0
 294 -17 274 -22 249 -22 c 0
 166 -22 41 26 41 310 c 2
119 310 m 0
 119 76 198 39 250 39 c 0
 302 39 380 77 380 311 c 2
 380 370 l 2
 380 584 301 616 249 616 c 0
 197 616 119 583 119 370 c 0
 119 350 119 330 119 310 c 0
EndSplineSet
Substitution2: "LGC old numerals subtable" zerooldstyle
EndChar

StartChar: one
Encoding: 49 49 61
Width: 500
Flags: HW
TeX: 657 0
HStem: -0 59<95 220 300 425> 554 58<90 212.745> 658 20G<267.5 300>
VStem: 220 80<59 577>
LayerCount: 2
Fore
SplineSet
90 554 m 1
 90 612 l 1
 205 612 254 653 281 678 c 1
 300 678 l 1
 300 59 l 1
 425 59 l 1
 425 -0 l 1
 95 -0 l 1
 95 59 l 1
 220 59 l 1
 220 577 l 1
 184 563 150 554 90 554 c 1
EndSplineSet
Substitution2: "LGC old numerals subtable" oneoldstyle
EndChar

StartChar: two
Encoding: 50 50 62
Width: 500
Flags: HW
TeX: 657 0
HStem: -0 70<49 449> 613 65<161 301.5>
VStem: 366 83<407.5 520.5>
LayerCount: 2
Fore
SplineSet
41 514 m 1
 66 598 119 678 235 678 c 0
 368 678 449 577 449 464 c 0
 449 367 386 313 282 221 c 0
 249 192 201 146 121 70 c 1
 449 71 l 1
 449 -0 l 1
 49 -0 l 1
 49 65 l 1
 179 194 l 2
 275 283 366 354 366 461 c 0
 366 545 308 613 222 613 c 0
 100 613 88 461 84 459 c 1
 41 514 l 1
EndSplineSet
Substitution2: "LGC old numerals subtable" twooldstyle
EndChar

StartChar: three
Encoding: 51 51 63
Width: 500
Flags: HW
TeX: 657 0
HStem: -22 62<149.678 311.981> 323 62<166 277.099> 618 60<166.007 312.631>
VStem: 347 82<451.836 585.002> 367 90<99.3982 261.913>
LayerCount: 2
Fore
SplineSet
41 81 m 1
 52 142 l 1
 122 47 215 40 244 40 c 0
 318 40 367 101 367 182 c 0xe8
 367 253 328 323 239 323 c 2
 166 323 l 1
 166 385 l 1
 224 390 231 390 238 391 c 0
 303 403 347 464 347 525 c 0
 347 581 306 618 246 618 c 0
 190 618 138 589 107 543 c 0
 101 534 96 524 91 514 c 1
 55 569 l 1
 118 668 209 678 248 678 c 0
 351 678 429 608 429 525 c 0xf0
 429 482 413 408 318 354 c 1
 414 321 457 250 457 180 c 0
 457 76 370 -22 245 -22 c 0
 214 -22 118 -17 41 81 c 1
EndSplineSet
Substitution2: "LGC old numerals subtable" threeoldstyle
EndChar

StartChar: four
Encoding: 52 52 64
Width: 500
Flags: HW
TeX: 657 0
HStem: 0 21G<292 372> 171 61<105 292 372 471>
VStem: 298 74<0 171 232 618>
LayerCount: 2
Fore
SplineSet
27 171 m 1
 27 187 27 203 27 219 c 0
 27 231 28 233 38 250 c 2
 280 655 l 1
 372 655 l 1
 372 232 l 1
 471 232 l 1
 471 171 l 1
 372 171 l 1
 372 0 l 1
 292 0 l 1
 292 171 l 1
 27 171 l 1
105 232 m 1
 298 232 l 1
 298 618 l 1
 284 533 230 447 105 232 c 1
EndSplineSet
Substitution2: "LGC old numerals subtable" fouroldstyle
EndChar

StartChar: five
Encoding: 53 53 65
Width: 500
Flags: HW
TeX: 657 0
HStem: -22 62<144.569 297.748> 366 61<193.023 314.1> 591 64<152 416>
VStem: 79 73<386 591> 359 90<106.966 307.285>
LayerCount: 2
Fore
SplineSet
38 76 m 1
 72 132 l 1
 122 50 196 40 228 40 c 0
 281 40 359 75 359 205 c 0
 359 322 309 366 257 366 c 0
 188 366 158 307 147 286 c 1
 79 286 l 1
 79 655 l 1
 416 655 l 1
 416 591 l 1
 152 591 l 1
 152 386 l 1
 172 402 202 427 259 427 c 0
 360 427 449 331 449 204 c 0
 449 73 345 -22 229 -22 c 0
 153 -22 81 16 38 76 c 1
EndSplineSet
Substitution2: "LGC old numerals subtable" fiveoldstyle
EndChar

StartChar: six
Encoding: 54 54 66
Width: 500
Flags: HW
TeX: 657 0
HStem: -22 62<189.428 316.183> 401 61<203.07 319.947> 619 59<233.129 414.34>
VStem: 42 86<184.008 462> 375 82<108.778 338.1>
LayerCount: 2
Fore
SplineSet
42 323 m 0
 42 521 155 678 309 678 c 0
 352 678 386 669 416 658 c 1
 416 598 l 1
 375 613 350 619 309 619 c 0
 184 619 131 479 126 380 c 1
 168 433 232 462 295 462 c 0
 346 462 377 439 404 401 c 0
 445 344 457 290 457 224 c 0
 457 146 438 93 388 40 c 0
 348 -3 307 -22 252 -22 c 0
 168 -22 42 35 42 323 c 0
127 220 m 1
 135 146 158 40 251 40 c 0
 327 40 361 108 370 151 c 0
 375 173 375 196 375 218 c 0
 375 279 370 313 347 349 c 0
 317 396 279 401 256 401 c 0
 179 401 128 329 128 247 c 0
 128 238 129 229 130 220 c 1
 127 220 l 1
EndSplineSet
Substitution2: "LGC old numerals subtable" sixoldstyle
EndChar

StartChar: seven
Encoding: 55 55 67
Width: 500
Flags: HW
TeX: 657 0
HStem: -11 21G<151 236> 585 71<41 389>
VStem: 151 85<-11 178.755>
LayerCount: 2
Fore
SplineSet
41 585 m 1
 41 656 l 1
 457 655 l 1
 457 590 l 1
 316 427 236 208 236 -11 c 1
 151 -11 l 1
 151 188 219 403 389 585 c 1
 41 585 l 1
EndSplineSet
Substitution2: "LGC old numerals subtable" sevenoldstyle
EndChar

StartChar: eight
Encoding: 56 56 68
Width: 500
Flags: HW
TeX: 657 0
HStem: -22 62<177.093 319.04> 323 62<181.635 315.466> 619 59<174.357 323.832>
VStem: 41 81<97.5525 262.679> 55 70<431.52 570.614> 373 70<432.599 572.122> 376 81<98.1868 261.424>
LayerCount: 2
Fore
SplineSet
41 180 m 0xf2
 41 250 81 318 180 354 c 1
 127 370 55 419 55 503 c 0
 55 595 138 678 249 678 c 0
 363 678 443 591 443 503 c 0xec
 443 443 406 386 318 354 c 1
 381 335 457 276 457 179 c 0
 457 75 369 -22 249 -22 c 0
 131 -22 41 73 41 180 c 0xf2
122 181 m 0
 122 96 173 40 249 40 c 0
 320 40 376 91 376 182 c 0xf2
 376 266 324 323 249 323 c 0
 193 323 122 285 122 181 c 0
125 502 m 0
 125 431 177 385 248 385 c 0
 323 385 373 433 373 502 c 0
 373 574 321 619 249 619 c 0xec
 175 619 125 572 125 502 c 0
EndSplineSet
Substitution2: "LGC old numerals subtable" eightoldstyle
EndChar

StartChar: nine
Encoding: 57 57 69
Width: 500
Flags: HW
TeX: 657 0
HStem: -22 62<127.051 275.007> 193 62<178.957 296.305> 618 60<186.683 311.02>
VStem: 42 82<318.643 546.858> 371 86<255.383 471.993>
LayerCount: 2
Fore
SplineSet
42 435 m 0
 42 508 60 563 114 618 c 0
 155 660 197 678 252 678 c 0
 334 678 457 621 457 333 c 0
 457 124 342 -22 205 -22 c 0
 143 -22 108 -3 72 24 c 1
 103 78 l 1
 126 62 151 40 207 40 c 0
 298 41 362 134 373 276 c 1
 328 223 272 193 204 193 c 0
 153 193 123 216 96 254 c 0
 54 313 42 365 42 435 c 0
124 435 m 0
 124 381 127 343 156 301 c 0
 175 274 201 255 243 255 c 0
 320 255 371 327 371 410 c 0
 371 419 371 427 370 436 c 1
 372 436 l 1
 367 503 344 618 253 618 c 0
 175 618 140 549 130 507 c 0
 124 483 124 460 124 435 c 0
EndSplineSet
Substitution2: "LGC old numerals subtable" nineoldstyle
EndChar

StartChar: less
Encoding: 60 60 72
Width: 778
Flags: HW
TeX: 544 47
DStem2: 117 286 182 250 0.892382 0.451281<41.7587 609.696> 182 250 117 214 0.89266 -0.450731<0 567.864>
LayerCount: 2
Fore
SplineSet
83 250 m 1
 85 266 88 271 117 286 c 2
 643 552 l 2
 650 555 656 558 663 558 c 0
 680 558 693 544 693 528 c 0
 693 506 672 498 659 491 c 2
 182 250 l 1
 659 9 l 2
 672 2 693 -6 693 -28 c 0
 693 -44 680 -58 663 -58 c 0
 655 -58 654 -57 624 -42 c 2
 117 214 l 2
 90 228 86 231 83 250 c 1
EndSplineSet
EndChar

StartChar: equal
Encoding: 61 61 73
Width: 778
Flags: HW
TeX: 369 -129
HStem: 119 61<57.2965 719.666> 320 61<57.272 719.672>
LayerCount: 2
Fore
SplineSet
56 150 m 0
 56 159 60 181 92 181 c 0
 95 181 99 180 102 180 c 2
 683 180 l 2
 717 180 721 160 721 150 c 0
 721 138 715 119 680 119 c 2
 95 119 l 2
 62 119 56 138 56 150 c 0
EndSplineSet
Refer: 298 8722 S 1 0 0 1 0 100 2
EndChar

StartChar: greater
Encoding: 62 62 74
Width: 778
Flags: HW
TeX: 544 47
DStem2: 153 542 118 491 0.89266 -0.450731<-41.6948 526.169> 118 9 135 -51 0.89272 0.450611<-33.427 534.425>
LayerCount: 2
Fore
SplineSet
83 -28 m 0
 83 -6 105 2 118 9 c 2
 595 250 l 1
 118 491 l 2
 105 498 83 506 83 528 c 0
 83 544 97 558 114 558 c 0
 122 558 123 557 153 542 c 2
 660 286 l 2
 688 272 691 267 693 250 c 1
 691 234 689 229 660 214 c 2
 135 -51 l 2
 128 -54 122 -58 114 -58 c 0
 97 -58 83 -44 83 -28 c 0
EndSplineSet
EndChar

StartChar: question
Encoding: 63 63 75
Width: 472
Flags: HW
TeX: 722 0
HStem: 0 84<180 264> 672 61<130.08 305.245>
VStem: 180 84<0 84> 188 67<175 329.72> 338 78<506.545 640.716>
LayerCount: 2
Fore
SplineSet
55 677 m 1
 96 707 149 733 223 733 c 0xd8
 381 733 416 636 416 571 c 0
 416 484 363 450 347 434 c 0
 253 343 255 245 255 215 c 2
 255 175 l 1
 188 175 l 1
 188 207 l 2
 188 413 293 476 318 508 c 0
 333 528 338 553 338 572 c 0
 338 652 285 672 223 672 c 0
 158 672 114 646 78 614 c 1
 55 677 l 1
EndSplineSet
Refer: 58 46 S 1 0 0 1 84 0 2
EndChar

StartChar: at
Encoding: 64 64 76
Width: 667
Flags: HW
TeX: 722 0
HStem: -11 62<296.495 499.672> 126 61<373.937 477.707> 535 62<373.725 477.273> 672 61<298.555 452.44>
VStem: 55 75<240.058 482.915> 240 75<256.954 463.246> 535 75<258.727 464.537>
LayerCount: 2
Fore
SplineSet
55 362 m 0
 55 576 214 733 385 733 c 0
 607 733 610 476 610 368 c 0
 610 215 519 126 425 126 c 0
 324 126 240 228 240 361 c 0
 240 490 322 597 425 597 c 0
 459 597 480 587 510 570 c 1
 483 645 436 672 386 672 c 0
 260 672 130 548 130 361 c 0
 130 191 243 51 391 51 c 0
 486 51 529 88 558 88 c 2
 610 88 l 1
 551 22 469 -11 388 -11 c 0
 211 -11 55 148 55 362 c 0
315 362 m 0
 315 255 370 187 426 187 c 0
 477 187 535 251 535 360 c 0
 535 467 480 535 424 535 c 0
 372 535 315 469 315 362 c 0
EndSplineSet
EndChar

StartChar: A
Encoding: 65 65 77
Width: 667
Flags: HW
TeX: 694 0
HStem: 0 21G<27 109.451 537.451 637> 204 56<199 447> 674 20G<280.478 384.493>
DStem2: 27 0 102 0 0.35201 0.935996<26.4008 244.097 303.905 688.257> 637 0 447 260 0.350828 -0.93644<-559.621 -310.132 -250.324 -32.2761>
AnchorPoint: "ogonek" 564 0 basechar 0
AnchorPoint: "below" 332 0 basechar 0
AnchorPoint: "above" 332 716 basechar 0
LayerCount: 2
Fore
SplineSet
27 0 m 1
 288 694 l 1
 377 694 l 1
 637 0 l 1
 545 0 l 1
 468 204 l 1
 178 204 l 1
 102 0 l 1
 27 0 l 1
199 260 m 1
 447 260 l 1
 356 512 329 587 323 624 c 1
 315 587 278 476 199 260 c 1
EndSplineSet
EndChar

StartChar: B
Encoding: 66 66 78
Width: 667
Flags: HW
TeX: 694 0
HStem: 0 56<180 436.689> 330 62<181 410.326> 638 56<181 420.232>
VStem: 96 84<56 330 392 638> 503 79<462.234 572.94> 528 82<129.801 249.549>
AnchorPoint: "below" 331 0 basechar 0
AnchorPoint: "above" 331 716 basechar 0
LayerCount: 2
Fore
SplineSet
96 0 m 1
 96 694 l 1
 318 694 l 2
 512 694 582 590 582 520 c 0xf8
 582 457 529 392 414 363 c 1
 514 347 610 282 610 188 c 0
 610 88 509 13 395 2 c 0
 378 0 361 0 344 0 c 2
 96 0 l 1
180 56 m 1
 322 56 l 2
 473 56 528 136 528 189 c 0xf4
 528 264 445 320 351 329 c 0
 334 331 317 330 300 330 c 2
 181 330 l 1
 180 293 l 1
 180 56 l 1
180 392 m 1
 300 392 l 2
 433 392 503 459 503 519 c 0xf8
 503 567 449 638 295 638 c 2
 181 638 l 1
 180 603 l 1
 180 392 l 1
EndSplineSet
EndChar

StartChar: C
Encoding: 67 67 79
Width: 639
Flags: HW
TeX: 694 0
HStem: -22 64<306.02 515.635> 652 64<303.914 503.664>
VStem: 66 90<218.901 473.328>
AnchorPoint: "below" 394 0 basechar 0
AnchorPoint: "above" 378 716 basechar 0
LayerCount: 2
Fore
SplineSet
66 347 m 0
 66 574 236 716 379 716 c 0
 443 716 488 715 577 682 c 1
 562 599 l 1
 513 629 471 652 392 652 c 0
 258 652 156 515 156 347 c 0
 156 178 258 42 395 42 c 0
 498 42 532 71 582 103 c 1
 588 33 l 1
 518 -9 478 -22 394 -22 c 0
 197 -22 66 155 66 347 c 0
EndSplineSet
EndChar

StartChar: D
Encoding: 68 68 80
Width: 722
Flags: HW
TeX: 694 0
HStem: 0 56<182 430.367> 638 56<182 429.56>
VStem: 95 87<56 638> 579 87<216.135 468.632>
AnchorPoint: "below" 358 0 basechar 0
AnchorPoint: "above" 358 716 basechar 0
LayerCount: 2
Fore
SplineSet
95 0 m 1
 95 694 l 1
 341 694 l 2
 395 694 449 689 513 647 c 0
 612 582 666 462 666 342 c 0
 666 149 532 18 391 2 c 0
 375 0 359 0 343 0 c 2
 95 0 l 1
182 56 m 1
 325 56 l 2
 357 56 451 57 520 148 c 0
 562 203 579 272 579 341 c 0
 579 502 493 638 325 638 c 2
 182 638 l 1
 182 56 l 1
EndSplineSet
EndChar

StartChar: E
Encoding: 69 69 81
Width: 597
Flags: HW
TeX: 694 0
HStem: 0 71<184 555> 329 61<184 514> 626 65<184 541>
VStem: 94 90<70 329 390 627>
AnchorPoint: "ogonek" 324 0 basechar 0
AnchorPoint: "below" 324 0 basechar 0
AnchorPoint: "above" 324 716 basechar 0
LayerCount: 2
Fore
SplineSet
94 0 m 1
 94 691 l 1
 541 691 l 1
 541 625 l 1
 484 625 l 1
 459 626 l 1
 219 626 l 1
 184 627 l 1
 184 390 l 1
 514 390 l 1
 514 329 l 1
 184 329 l 1
 184 70 l 1
 269 70 l 1
 293 71 l 1
 487 71 l 1
 509 72 l 1
 555 72 l 1
 555 0 l 1
 94 0 l 1
EndSplineSet
EndChar

StartChar: F
Encoding: 70 70 82
Width: 569
Flags: HW
TeX: 694 0
HStem: 0 21G<94 184> 315 61<184 485> 626 65<184 527>
VStem: 94 90<0 315 376 627>
AnchorPoint: "below" 310 0 basechar 0
AnchorPoint: "above" 310 716 basechar 0
LayerCount: 2
Fore
SplineSet
94 0 m 1
 94 691 l 1
 527 691 l 1
 527 625 l 1
 472 625 l 1
 448 626 l 1
 216 626 l 1
 184 627 l 1
 184 376 l 1
 485 376 l 1
 485 315 l 1
 184 315 l 1
 184 0 l 1
 94 0 l 1
EndSplineSet
EndChar

StartChar: G
Encoding: 71 71 83
Width: 667
Flags: HW
TeX: 694 0
HStem: -22 64<306.694 519.434> 237 62<388 521> 652 64<308.168 502.188>
VStem: 66 90<220.827 474.921> 521 78<57.1088 237>
AnchorPoint: "below" 391 0 basechar 0
AnchorPoint: "above" 391 716 basechar 0
LayerCount: 2
Fore
SplineSet
66 347 m 0
 66 552 210 716 391 716 c 0
 478 716 533 697 591 668 c 1
 576 585 l 1
 532 618 485 652 393 652 c 0
 251 652 156 506 156 348 c 0
 156 177 260 42 392 42 c 0
 443 42 477 51 521 63 c 1
 521 237 l 1
 388 237 l 1
 388 299 l 1
 599 299 l 1
 599 26 l 1
 524 -10 453 -22 391 -22 c 0
 208 -22 66 144 66 347 c 0
EndSplineSet
EndChar

StartChar: H
Encoding: 72 72 84
Width: 708
Flags: HW
TeX: 694 0
HStem: 0 21G<94 184 524 614> 330 62<184 524> 674 20G<94 184 524 614>
VStem: 94 90<0 330 392 694> 524 90<0 330 392 694>
AnchorPoint: "below" 354 0 basechar 0
AnchorPoint: "above" 354 716 basechar 0
LayerCount: 2
Fore
SplineSet
94 0 m 1
 94 694 l 1
 184 694 l 1
 184 392 l 1
 524 392 l 1
 524 694 l 1
 614 694 l 1
 614 0 l 1
 524 0 l 1
 524 330 l 1
 184 330 l 1
 184 0 l 1
 94 0 l 1
EndSplineSet
EndChar

StartChar: I
Encoding: 73 73 85
Width: 278
Flags: HW
TeX: 694 0
HStem: 0 21G<94 184> 674 20G<94 184>
VStem: 94 90<0 694>
AnchorPoint: "ogonek" 139 0 basechar 0
AnchorPoint: "below" 139 0 basechar 0
AnchorPoint: "above" 139 716 basechar 0
LayerCount: 2
Fore
SplineSet
94 0 m 1
 94 694 l 1
 184 694 l 1
 184 0 l 1
 94 0 l 1
EndSplineSet
EndChar

StartChar: J
Encoding: 74 74 86
Width: 472
Flags: HW
TeX: 694 0
HStem: -22 62<97.6467 259.595> 674 20G<301 388>
VStem: 301 87<81.1097 694>
AnchorPoint: "below" 214 0 basechar 0
AnchorPoint: "above" 344 716 basechar 0
LayerCount: 2
Fore
SplineSet
41 20 m 1
 54 95 l 1
 72 79 110 40 183 40 c 0
 239 40 301 63 301 157 c 2
 301 694 l 1
 388 694 l 1
 388 155 l 2
 388 13 293 -22 212 -22 c 0
 161 -22 102 -11 41 20 c 1
EndSplineSet
EndChar

StartChar: K
Encoding: 75 75 87
Width: 694
Flags: HW
TeX: 694 0
HStem: 0 21G<95 181 543.612 651> 674 20G<95 181 524.431 637>
VStem: 95 86<0 228 323 694>
DStem2: 181 323 181 228 0.699396 0.714734<0 121.609 200.816 519.047> 369 419 314 363 0.55835 -0.829605<15.7486 452.574>
AnchorPoint: "below" 373 0 basechar 0
AnchorPoint: "above" 373 716 basechar 0
LayerCount: 2
Fore
SplineSet
95 0 m 1
 95 694 l 1
 181 694 l 1
 181 323 l 1
 544 694 l 1
 637 694 l 1
 369 420 l 1
 369 419 l 1
 651 0 l 1
 557 0 l 1
 314 363 l 1
 181 228 l 1
 181 0 l 1
 95 0 l 1
EndSplineSet
EndChar

StartChar: L
Encoding: 76 76 88
Width: 542
Flags: HW
TeX: 694 0
HStem: 0 65<184 499> 674 20G<94 184>
VStem: 94 90<65 694>
AnchorPoint: "below" 296 0 basechar 0
AnchorPoint: "above" 296 716 basechar 0
LayerCount: 2
Fore
SplineSet
94 0 m 1
 94 694 l 1
 184 694 l 1
 184 65 l 1
 379 65 l 1
 499 66 l 1
 499 0 l 1
 94 0 l 1
EndSplineSet
EndChar

StartChar: M
Encoding: 77 77 89
Width: 875
Flags: HW
TeX: 694 0
HStem: -0 21G<100 178 697 775> 674 20G<100 221.681 652.338 775>
VStem: 100 78<0 624> 697 78<0 624>
DStem2: 368 293 250 411 0.358511 -0.933526<-375.02 211.267> 506 292 626 423 0.357733 0.933824<-210.055 339.87>
AnchorPoint: "below" 438 0 basechar 0
AnchorPoint: "above" 438 716 basechar 0
LayerCount: 2
Fore
SplineSet
100 -0 m 1
 100 694 l 1
 214 694 l 1
 368 293 l 1
 409 182 433 115 437 92 c 1
 438 92 l 1
 441 114 457 164 506 292 c 2
 660 694 l 1
 775 694 l 1
 775 -0 l 1
 697 -0 l 1
 697 592 l 1
 696 624 l 1
 686 587 l 1
 626 423 l 1
 472 22 l 1
 400 22 l 1
 250 411 l 1
 211 517 187 580 178 624 c 1
 178 -0 l 1
 100 -0 l 1
EndSplineSet
EndChar

StartChar: N
Encoding: 78 78 90
Width: 708
Flags: HW
TeX: 694 0
HStem: 0 21G<95 173 475.926 611> 674 20G<95 230.074 533 611>
VStem: 95 78<0 624> 533 78<70 694>
DStem2: 220 694 173 624 0.448359 -0.893853<41.4969 698.101>
AnchorPoint: "below" 353 0 basechar 0
AnchorPoint: "above" 353 716 basechar 0
LayerCount: 2
Fore
SplineSet
95 0 m 1
 95 694 l 1
 220 694 l 1
 494 150 l 1
 533 70 l 1
 533 694 l 1
 611 694 l 1
 611 0 l 1
 486 0 l 1
 212 544 l 1
 173 624 l 1
 173 0 l 1
 95 0 l 1
EndSplineSet
EndChar

StartChar: O
Encoding: 79 79 91
Width: 736
Flags: HW
TeX: 694 0
HStem: -22 65<285.316 449.559> 652 64<283.738 450.942>
VStem: 55 90<223.855 477.673> 590 89<221.725 477.873>
AnchorPoint: "ogonek" 367 0 basechar 0
AnchorPoint: "below" 367 0 basechar 0
AnchorPoint: "above" 368 716 basechar 0
LayerCount: 2
Fore
SplineSet
55 345 m 0
 55 554 199 716 368 716 c 0
 534 716 679 555 679 345 c 0
 679 130 529 -22 367 -22 c 0
 203 -22 55 132 55 345 c 0
145 359 m 0
 145 190 233 43 367 43 c 0
 494 43 590 182 590 359 c 0
 590 540 483 652 367 652 c 0
 252 652 145 540 145 359 c 0
EndSplineSet
EndChar

StartChar: P
Encoding: 80 80 92
Width: 639
Flags: HW
TeX: 694 0
HStem: 0 21G<95 185> 289 58<185 419.612> 638 56<182 422.694>
VStem: 95 87<0 289 347 638> 501 81<420.244 566.382>
AnchorPoint: "below" 316 0 basechar 0
AnchorPoint: "above" 316 716 basechar 0
LayerCount: 2
Fore
SplineSet
95 0 m 1
 95 694 l 1
 331 694 l 2
 385 694 434 687 485 655 c 0
 546 617 582 558 582 493 c 0
 582 401 505 288 335 288 c 0
 324 288 313 289 302 289 c 2
 185 289 l 1
 185 0 l 1
 95 0 l 1
182 347 m 1
 315 347 l 2
 463 347 501 435 501 493 c 0
 501 544 470 638 315 638 c 2
 182 638 l 1
 182 347 l 1
EndSplineSet
EndChar

StartChar: Q
Encoding: 81 81 93
Width: 736
Flags: HW
TeX: 694 124
HStem: -22 64<283.465 423.383> 652 64<285.585 449.495>
VStem: 55 87<213.743 477.628> 593 87<214.326 474.606>
DStem2: 412 195 323 195 0.6 -0.8<0 122.4 201.195 238.409>
AnchorPoint: "below" 367 -195 basechar 0
AnchorPoint: "above" 367 716 basechar 0
LayerCount: 2
Fore
SplineSet
55 345 m 0
 55 562 205 716 367 716 c 0
 535 716 680 554 680 345 c 0
 680 158 573 65 533 33 c 1
 652 -125 l 1
 547 -125 l 1
 463 -5 l 1
 435 -14 411 -22 367 -22 c 0
 199 -22 55 137 55 345 c 0
142 344 m 0
 142 172 240 42 368 42 c 0
 390 42 402 46 424 51 c 1
 323 195 l 1
 412 195 l 1
 490 90 l 1
 491 90 l 1
 523 119 593 191 593 344 c 0
 593 524 492 652 366 652 c 2
 365 652 l 1
 235 649 142 516 142 344 c 0
EndSplineSet
EndChar

StartChar: R
Encoding: 82 82 94
Width: 646
Flags: HW
TeX: 694 0
HStem: 0 21G<95 182 515.165 617> 316 62<182 340> 638 56<182 427.846>
VStem: 95 87<0 316 378 638> 508 81<442.046 572.445>
DStem2: 418 326 340 316 0.521026 -0.853541<0 335.046>
AnchorPoint: "below" 316 0 basechar 0
AnchorPoint: "above" 316 716 basechar 0
LayerCount: 2
Fore
SplineSet
95 0 m 1
 95 694 l 1
 321 694 l 2
 523 694 589 579 589 508 c 0
 589 435 534 359 418 326 c 1
 617 0 l 1
 527 0 l 1
 340 316 l 1
 182 316 l 1
 182 0 l 1
 95 0 l 1
182 378 m 1
 314 378 l 2
 471 378 508 455 508 507 c 0
 508 559 470 638 317 638 c 2
 182 638 l 1
 182 378 l 1
EndSplineSet
EndChar

StartChar: S
Encoding: 83 83 95
Width: 555
Flags: HW
TeX: 694 0
HStem: -22 69<161.174 351.755> 649 67<195.471 385.967>
VStem: 55 80<469.171 592.483> 419 80<110.909 246.375>
DStem2: 215 424 209 332 0.957003 -0.290078<-62.5652 218.664>
AnchorPoint: "below" 273 0 basechar 0
AnchorPoint: "above" 281 716 basechar 0
LayerCount: 2
Fore
SplineSet
44 47 m 1
 59 130 l 1
 107 92 174 47 273 47 c 0
 364 47 419 114 419 179 c 0
 419 232 384 278 333 299 c 0
 309 308 296 309 209 332 c 0
 138 351 55 415 55 519 c 0
 55 616 140 716 281 716 c 0
 362 716 412 696 464 668 c 1
 450 585 l 1
 404 621 362 649 280 649 c 0
 189 649 135 590 135 531 c 0
 135 482 171 442 215 424 c 0
 244 412 329 397 365 382 c 0
 429 355 499 289 499 189 c 0
 499 81 410 -22 273 -22 c 0
 181 -22 107 7 44 47 c 1
EndSplineSet
EndChar

StartChar: T
Encoding: 84 84 96
Width: 680
Flags: HW
TeX: 694 0
HStem: 0 21G<295 384> 623 66<35 295 384 643>
VStem: 295 89<0 624>
AnchorPoint: "below" 340 0 basechar 0
AnchorPoint: "above" 340 716 basechar 0
LayerCount: 2
Fore
SplineSet
35 623 m 1
 35 689 l 1
 643 689 l 1
 643 623 l 1
 501 623 l 1
 384 624 l 1
 384 0 l 1
 295 0 l 1
 295 624 l 1
 177 623 l 1
 35 623 l 1
EndSplineSet
EndChar

StartChar: U
Encoding: 85 85 97
Width: 687
Flags: HW
TeX: 694 0
HStem: -22 56<269.129 426.193> 674 20G<94 184 514 593>
VStem: 94 90<133.072 694> 514 79<130.655 694>
AnchorPoint: "ogonek" 346 0 basechar 0
AnchorPoint: "below" 346 0 basechar 0
AnchorPoint: "above" 344 716 basechar 0
LayerCount: 2
Fore
SplineSet
94 245 m 2
 94 694 l 1
 184 694 l 1
 184 279 l 2
 184 267 183 256 183 244 c 0
 183 71 285 34 346 34 c 0
 414 34 515 80 515 240 c 0
 515 246 514 252 514 258 c 2
 514 694 l 1
 593 694 l 1
 593 241 l 2
 593 62 458 -22 346 -22 c 0
 235 -22 94 58 94 245 c 2
EndSplineSet
EndChar

StartChar: V
Encoding: 86 86 98
Width: 667
Flags: HW
TeX: 694 0
ItalicCorrection: 13
HStem: 0 21G<279.133 386.867> 674 20G<14 114.766 566.231 652>
DStem2: 107 694 14 694 0.366067 -0.930588<0 664.106> 419 295 379 0 0.366067 0.930588<-236.752 428.045>
AnchorPoint: "below" 333 0 basechar 0
AnchorPoint: "above" 332 716 basechar 0
LayerCount: 2
Fore
SplineSet
14 694 m 1
 107 694 l 1
 260 300 l 1
 311 163 330 117 341 70 c 1
 345 95 363 150 419 295 c 2
 574 694 l 1
 652 694 l 1
 379 0 l 1
 287 0 l 1
 14 694 l 1
EndSplineSet
EndChar

StartChar: W
Encoding: 87 87 99
Width: 944
Flags: HW
TeX: 694 0
ItalicCorrection: 13
HStem: 0 21G<212.121 303.773 633.201 731.85> 674 20G<14 106.7 429.307 522.742 851.222 929>
DStem2: 101 694 14 694 0.282017 -0.95941<0 643.706> 320 290 410 388 0.273778 0.961793<-223.701 342.713> 635 283 532 369 0.267478 -0.963564<-353.305 193.025> 740 289 726 0 0.280743 0.959783<-222.961 421.559>
AnchorPoint: "below" 472 0 basechar 0
AnchorPoint: "above" 472 716 basechar 0
LayerCount: 2
Fore
SplineSet
14 694 m 1
 101 694 l 1
 217 287 l 1
 246 179 263 114 268 70 c 1
 272 115 302 224 320 290 c 2
 435 694 l 1
 517 694 l 1
 635 283 l 1
 664 175 l 1
 683 96 l 1
 687 70 l 1
 690 114 737 278 740 289 c 2
 857 694 l 1
 929 694 l 1
 726 0 l 1
 639 0 l 1
 532 369 l 1
 477 572 477 572 469 624 c 1
 465 580 411 390 410 388 c 2
 298 0 l 1
 218 0 l 1
 14 694 l 1
EndSplineSet
EndChar

StartChar: X
Encoding: 88 88 100
Width: 667
Flags: HW
TeX: 694 0
HStem: 0 21G<14 124.164 532.508 652> 674 20G<28 147.789 499.594 610>
DStem2: 14 0 110 0 0.584551 0.811357<56.1169 429.844 533.698 855.357> 133 694 28 694 0.598892 -0.80083<0 0 427.109 803.717>
AnchorPoint: "below" 333 0 basechar 0
AnchorPoint: "above" 333 716 basechar 0
LayerCount: 2
Fore
SplineSet
14 0 m 1
 282 365 l 1
 282 366 l 1
 28 694 l 1
 133 694 l 1
 326 433 l 1
 514 694 l 1
 610 694 l 1
 369 366 l 1
 369 365 l 1
 652 0 l 1
 547 0 l 1
 326 305 l 1
 110 0 l 1
 14 0 l 1
EndSplineSet
EndChar

StartChar: Y
Encoding: 89 89 101
Width: 667
Flags: HW
TeX: 694 0
ItalicCorrection: 24
HStem: 0 21G<289 376> 674 20G<2 120.803 558 662>
VStem: 289 87<0 278>
DStem2: 107 694 2 694 0.567872 -0.823117<0 416.189> 341 348 376 278 0.566529 0.824042<0 417.12>
AnchorPoint: "below" 332 0 basechar 0
AnchorPoint: "above" 332 716 basechar 0
LayerCount: 2
Fore
SplineSet
2 694 m 1
 107 694 l 1
 254 481 l 1
 298 415 326 376 341 348 c 1
 369 397 542 648 574 694 c 1
 662 694 l 1
 376 278 l 1
 376 0 l 1
 289 0 l 1
 289 278 l 1
 2 694 l 1
EndSplineSet
EndChar

StartChar: Z
Encoding: 90 90 102
Width: 611
Flags: HW
TeX: 694 0
HStem: 0 65<170 560> 631 63<69 440>
DStem2: 68 63 170 65 0.54721 0.836996<57.4894 679.812>
AnchorPoint: "below" 308 0 basechar 0
AnchorPoint: "above" 308 716 basechar 0
LayerCount: 2
Fore
SplineSet
55 0 m 1
 55 25 l 2
 55 44 55 44 68 63 c 2
 440 632 l 1
 276 631 l 1
 69 631 l 1
 69 694 l 1
 555 694 l 1
 555 670 l 2
 555 651 554 652 542 633 c 2
 170 65 l 1
 378 65 l 1
 401 66 l 1
 560 66 l 1
 560 0 l 1
 55 0 l 1
EndSplineSet
EndChar

StartChar: bracketleft
Encoding: 91 91 103
Width: 289
Flags: HW
TeX: 746 249
HStem: -250 61<175 266> 689 61<175 266>
VStem: 100 166<-250 -189 689 750> 100 75<-189 689>
LayerCount: 2
Fore
SplineSet
100 -250 m 1xe0
 100 750 l 1
 266 750 l 1
 266 689 l 1xe0
 175 689 l 1
 175 -189 l 1xd0
 266 -189 l 1
 266 -250 l 1
 100 -250 l 1xe0
EndSplineSet
EndChar

StartChar: backslash
Encoding: 92 92 104
Width: 500
Flags: HW
TeX: 746 249
DStem2: 438 -197 57 709 0.329201 -0.94426<-990.521 22.0656>
LayerCount: 2
Fore
SplineSet
56 719 m 0
 56 734 69 749 86 749 c 0
 109 749 115 728 121 711 c 2
 438 -197 l 2
 440 -204 443 -211 443 -219 c 0
 443 -228 436 -249 413 -249 c 0
 388 -249 382 -225 376 -206 c 2
 57 709 l 2
 56 713 56 715 56 719 c 0
EndSplineSet
EndChar

StartChar: bracketright
Encoding: 93 93 105
Width: 289
Flags: HW
TeX: 746 249
HStem: -250 61<21 111> 689 61<21 111>
VStem: 21 166<-250 -189 689 750> 111 76<-189 689>
LayerCount: 2
Fore
SplineSet
21 -189 m 1xe0
 111 -189 l 1
 111 689 l 1xd0
 21 689 l 1
 21 750 l 1
 187 750 l 1
 187 -250 l 1
 21 -250 l 1
 21 -189 l 1xe0
EndSplineSet
EndChar

StartChar: asciicircum
Encoding: 94 94 106
Width: 611
Flags: HW
TeX: 722 0
HStem: 445 185
DStem2: 133 445 194 445 0.606173 0.795333<36.9765 212.427> 336 630 305 581 0.606173 -0.795333<20.18 195.63>
LayerCount: 2
Fore
SplineSet
133 445 m 1
 274 630 l 1
 336 630 l 1
 477 445 l 1
 416 445 l 1
 305 581 l 1
 194 445 l 1
 133 445 l 1
EndSplineSet
EndChar

StartChar: underscore
Encoding: 95 95 107
Width: 778
Flags: HW
TeX: 0 247
HStem: -248 40<84.0124 692.982>
LayerCount: 2
Fore
SplineSet
84 -228 m 0
 84 -222 87 -208 111 -208 c 2
 660 -208 l 2
 672 -208 693 -207 693 -229 c 0
 693 -249 668 -248 665 -248 c 2
 112 -248 l 2
 101 -248 84 -246 84 -228 c 0
EndSplineSet
EndChar

StartChar: a
Encoding: 97 97 109
Width: 480
Flags: HW
TeX: 441 0
HStem: -11 62<139.04 279.617> 0 21G<324 400> 193 52<177.381 322> 401 60<131.266 288.046>
VStem: 44 73<73.2498 150.923> 322 78<0 35 79.545 193 245 364.812>
AnchorPoint: "ogonek" 362 0 basechar 0
AnchorPoint: "affricate-below" 480 -195 basechar 0
AnchorPoint: "affricate-above" 480 722 basechar 0
AnchorPoint: "below" 234 0 basechar 0
AnchorPoint: "above" 234 461 basechar 0
LayerCount: 2
Fore
SplineSet
44 113 m 0
 44 219 219 244 322 245 c 1
 322 279 l 1
 321 307 321 341 296 371 c 0
 272 400 246 401 233 401 c 0
 158 401 116 373 83 350 c 1
 77 417 l 1
 125 445 171 461 234 461 c 0
 329 461 395 389 400 305 c 1
 400 0 l 1
 324 0 l 1x7c
 324 35 l 1
 323 34 268 -11 158 -11 c 0
 74 -11 44 67 44 113 c 0
117 114 m 0
 117 78 156 51 210 51 c 0xbc
 253 51 322 65 322 130 c 2
 322 193 l 1
 250 192 117 177 117 114 c 0
EndSplineSet
EndChar

StartChar: b
Encoding: 98 98 110
Width: 517
Flags: HW
TeX: 722 0
HStem: -11 61<207.763 328.877> 0 21G<81 159> 394 61<215.559 334.68> 702 20G<81 156>
VStem: 81 78<0 46 84.9365 361.154 397 722> 401 79<126.945 321.22>
AnchorPoint: "affricate-below" 517 -195 basechar 0
AnchorPoint: "affricate-above" 517 722 basechar 0
AnchorPoint: "below" 280 0 basechar 0
AnchorPoint: "above" 280 722 basechar 0
LayerCount: 2
Fore
SplineSet
81 0 m 1x7c
 81 722 l 1
 156 722 l 1
 156 397 l 1
 220 448 285 455 316 455 c 0
 415 455 480 344 480 224 c 0
 480 86 392 -11 293 -11 c 0xbc
 234 -11 193 15 159 46 c 1
 159 0 l 1
 81 0 l 1x7c
159 133 m 2
 159 107 163 109 176 90 c 1
 199 62 229 50 258 50 c 0xbc
 315 50 401 92 401 223 c 0
 401 356 320 394 266 394 c 0
 214 394 159 357 159 320 c 2
 159 133 l 2
EndSplineSet
EndChar

StartChar: c
Encoding: 99 99 111
Width: 444
Flags: HW
TeX: 441 0
HStem: -11 64<180.763 355.241> 397 64<182.049 357.581>
VStem: 35 78<128.613 319.609>
AnchorPoint: "affricate-below" 444 -195 basechar 0
AnchorPoint: "affricate-above" 444 722 basechar 0
AnchorPoint: "below" 252 0 basechar 0
AnchorPoint: "above" 255 461 basechar 0
LayerCount: 2
Fore
SplineSet
35 223 m 0
 35 339 115 461 255 461 c 0
 317 461 349 452 410 417 c 1
 398 351 l 1
 359 376 333 397 254 397 c 0
 157 397 113 310 113 223 c 0
 113 126 169 53 253 53 c 0
 331 53 378 85 410 107 c 1
 415 40 l 1
 370 11 321 -11 252 -11 c 0
 129 -11 35 95 35 223 c 0
EndSplineSet
EndChar

StartChar: d
Encoding: 100 100 112
Width: 517
Flags: HW
TeX: 722 0
HStem: -11 62<178.992 297.329> -0 21G<355 434> 394 62<185.732 304.837> 702 20G<358 434>
VStem: 35 78<124.123 319.301> 355 79<0 52 90.7157 363.995 401 722>
AnchorPoint: "affricate-below" 517 -195 basechar 0
AnchorPoint: "affricate-above" 517 722 basechar 0
AnchorPoint: "below" 234 0 basechar 0
AnchorPoint: "above" 234 722 basechar 0
LayerCount: 2
Fore
SplineSet
35 221 m 0
 35 353 114 456 213 456 c 0
 276 456 323 429 358 401 c 1
 358 722 l 1
 434 722 l 1
 434 -0 l 1
 355 -0 l 1x7c
 355 52 l 1
 321 19 273 -11 207 -11 c 0
 105 -11 35 102 35 221 c 0
113 222 m 0
 113 90 194 51 248 51 c 0xbc
 308 51 355 103 355 134 c 2
 355 325 l 2
 355 341 352 347 334 364 c 0
 303 393 271 394 260 394 c 2
 258 394 l 2
 200 394 113 353 113 222 c 0
EndSplineSet
EndChar

StartChar: e
Encoding: 101 101 113
Width: 444
Flags: HW
TeX: 441 0
HStem: -11 62<182.493 348.484> 220 55<109 357> 399 62<172.966 300.366>
VStem: 34 70<136.656 220>
AnchorPoint: "ogonek" 252 0 basechar 0
AnchorPoint: "affricate-below" 444 -195 basechar 0
AnchorPoint: "affricate-above" 444 722 basechar 0
AnchorPoint: "below" 252 0 basechar 0
AnchorPoint: "above" 236 461 basechar 0
LayerCount: 2
Fore
SplineSet
34 226 m 0
 34 360 130 461 236 461 c 0
 307 461 405 420 414 249 c 1
 414 220 l 1
 104 220 l 1
 108 117 176 51 252 51 c 0
 315 51 360 74 404 106 c 1
 410 40 l 1
 367 11 315 -11 252 -11 c 0
 121 -11 34 102 34 226 c 0
109 275 m 1
 357 275 l 1
 340 386 265 399 236 399 c 0
 160 399 120 324 109 275 c 1
EndSplineSet
EndChar

StartChar: f
Encoding: 102 102 114
Width: 305
Flags: HW
TeX: 722 0
ItalicCorrection: 69
HStem: 0 21G<101 176> 386 59<27 101 176 286> 672 61<203.063 345.92>
VStem: 101 75<0 386 445 643.631>
AnchorPoint: "affricate-below" 305 -195 basechar 0
AnchorPoint: "affricate-above" 305 722 basechar 0
AnchorPoint: "above" 268 722 basechar 0
AnchorPoint: "below" 138 0 basechar 0
LayerCount: 2
Fore
SplineSet
27 386 m 1
 27 445 l 1
 101 445 l 1
 101 518 l 2
 101 526 100 534 100 542 c 0
 100 673 187 733 268 733 c 0
 299 733 324 728 347 722 c 1
 347 655 l 1
 324 664 298 672 266 672 c 0
 234 672 173 658 173 581 c 2
 173 445 l 1
 286 445 l 1
 286 386 l 1
 176 386 l 1
 176 0 l 1
 101 0 l 1
 101 386 l 1
 27 386 l 1
EndSplineSet
EndChar

StartChar: g
Encoding: 103 103 115
Width: 500
Flags: HW
TeX: 441 194
ItalicCorrection: 13
HStem: -206 57<143.197 354.712> -3 72<127.569 368.276> 129 58<163.105 278.935> 398 57<164.047 280.175 351.853 474>
VStem: 27 70<-112.125 -22.7064> 62 70<218.568 366.249> 66 53<77.9185 158.298> 311 70<219.108 366.08> 401 70<-111.693 -31.9009>
AnchorPoint: "affricate-below" 500 -195 basechar 0
AnchorPoint: "affricate-above" 500 722 basechar 0
AnchorPoint: "below" 249 -195 basechar 0
AnchorPoint: "above" 221 461 basechar 0
LayerCount: 2
Fore
SplineSet
27 -71 m 0xf980
 27 -30 52 9 91 32 c 1
 75 55 66 76 66 108 c 0xf380
 66 141 77 168 95 192 c 1
 95 193 l 1
 65 232 62 272 62 292 c 0xf580
 62 389 139 455 221 455 c 0
 258 455 286 445 319 422 c 1
 317 424 l 1
 367 445 420 455 474 455 c 1
 485 392 l 1
 465 394 446 395 426 395 c 0
 400 395 369 392 351 391 c 1
 342 399 l 1
 368 364 381 335 381 292 c 0
 381 207 314 129 221 129 c 0
 177 129 152 145 130 159 c 1
 120 139 119 129 119 122 c 0xf380
 119 103 127 69 175 69 c 0
 200 69 225 69 250 69 c 0
 316 69 438 67 466 -33 c 0
 469 -45 471 -58 471 -70 c 0
 471 -148 371 -206 249 -206 c 0
 126 -206 27 -148 27 -71 c 0xf980
97 -71 m 0xf980
 97 -127 193 -149 248 -149 c 0
 329 -149 401 -118 401 -72 c 0
 401 -31 360 -3 252 -3 c 0
 231 -3 210 -3 189 -3 c 2
 160 -4 l 1
 119 -8 97 -42 97 -71 c 0xf980
132 292 m 0
 132 227 168 187 222 187 c 0
 258 187 311 208 311 293 c 0
 311 358 275 398 221 398 c 0xf580
 185 398 132 377 132 292 c 0
EndSplineSet
EndChar

StartChar: h
Encoding: 104 104 116
Width: 517
Flags: HW
TeX: 722 0
HStem: 0 21G<80 158 358 436> 394 61<213.603 328.073> 702 20G<80 155>
VStem: 80 75<0 336.288 384 722> 358 78<0 364.193>
AnchorPoint: "affricate-below" 517 -195 basechar 0
AnchorPoint: "affricate-above" 517 722 basechar 0
AnchorPoint: "below" 258 0 basechar 0
AnchorPoint: "above" 258 722 basechar 0
LayerCount: 2
Fore
SplineSet
80 0 m 1
 80 722 l 1
 155 722 l 1
 155 384 l 1
 187 422 230 455 299 455 c 0
 432 455 436 349 436 288 c 2
 436 0 l 1
 358 0 l 1
 358 281 l 2
 358 319 358 394 260 394 c 0
 183 394 158 314 158 240 c 2
 158 0 l 1
 80 0 l 1
EndSplineSet
EndChar

StartChar: j
Encoding: 106 106 118
Width: 267
Flags: HW
TeX: 677 194
HStem: -205 64<-32.9259 90.1134> 425 20G<110 185> 590 89<96 186>
VStem: 96 90<590 679> 110 75<-118.273 445>
AnchorPoint: "affricate-below" 267 -195 basechar 0
AnchorPoint: "affricate-above" 267 722 basechar 0
AnchorPoint: "below" 92 -195 basechar 0
LayerCount: 2
Fore
SplineSet
-61 -171 m 1
 -46 -110 l 1
 -21 -130 1 -141 32 -141 c 0
 73 -141 101 -117 108 -91 c 0
 110 -82 110 -74 110 -65 c 2
 110 445 l 1
 185 445 l 1
 185 -50 l 2xe8
 185 -173 110 -205 59 -205 c 0
 11 -205 -30 -189 -61 -171 c 1
EndSplineSet
Refer: 368 183 S 1 0 0 1 23 415 2
EndChar

StartChar: k
Encoding: 107 107 119
Width: 489
Flags: HW
TeX: 722 0
HStem: -0 21G<83 153 375.071 471> 425 20G<339.478 449> 702 20G<83 155>
VStem: 83 72<0 142 236 722>
DStem2: 155 236 233 224 0.698796 0.715321<0 45.9222 114.515 292.056> 281 273 233 224 0.571241 -0.820783<12.7988 285.768>
AnchorPoint: "affricate-below" 489 -195 basechar 0
AnchorPoint: "affricate-above" 489 722 basechar 0
AnchorPoint: "below" 277 0 basechar 0
AnchorPoint: "above" 277 722 basechar 0
LayerCount: 2
Fore
SplineSet
83 -0 m 1
 83 722 l 1
 155 722 l 1
 155 236 l 1
 359 445 l 1
 449 445 l 1
 281 273 l 1
 471 -0 l 1
 389 -0 l 1
 233 224 l 1
 153 142 l 1
 153 -0 l 1
 83 -0 l 1
EndSplineSet
EndChar

StartChar: l
Encoding: 108 108 120
Width: 239
Flags: HW
TeX: 722 0
HStem: 0 21G<81 156> 702 20G<81 156>
VStem: 81 75<0 722>
AnchorPoint: "affricate-below" 239 -195 basechar 0
AnchorPoint: "affricate-above" 239 722 basechar 0
AnchorPoint: "below" 118 0 basechar 0
AnchorPoint: "above" 118 722 basechar 0
LayerCount: 2
Fore
SplineSet
81 0 m 1
 81 722 l 1
 156 722 l 1
 156 0 l 1
 81 0 l 1
EndSplineSet
EndChar

StartChar: m
Encoding: 109 109 121
Width: 794
Flags: HW
TeX: 441 0
HStem: 0 21G<80 158 358 436 635 714> 394 61<213.339 327.995 491.272 597.206>
VStem: 80 78<0 341.981 380 450> 358 78<0 341.981> 635 79<0 355.743>
AnchorPoint: "affricate-below" 794 -195 basechar 0
AnchorPoint: "affricate-above" 794 722 basechar 0
AnchorPoint: "below" 397 0 basechar 0
AnchorPoint: "above" 397 461 basechar 0
LayerCount: 2
Fore
SplineSet
80 0 m 1
 80 450 l 1
 153 450 l 1
 153 380 l 1
 167 398 211 455 299 455 c 0
 382 455 412 412 426 374 c 1
 441 394 486 455 577 455 c 0
 711 455 714 346 714 288 c 2
 714 0 l 1
 635 0 l 1
 635 281 l 1
 635 281 636 394 538 394 c 0
 461 394 436 314 436 240 c 2
 436 0 l 1
 358 0 l 1
 358 281 l 2
 358 319 358 394 260 394 c 0
 183 394 158 314 158 240 c 2
 158 0 l 1
 80 0 l 1
EndSplineSet
EndChar

StartChar: n
Encoding: 110 110 122
Width: 517
Flags: HW
TeX: 441 0
HStem: 0 21G<80 158 358 436> 394 61<213.339 327.575>
VStem: 80 78<0 341.981 380 450> 358 78<0 364.375>
AnchorPoint: "affricate-below" 517 -195 basechar 0
AnchorPoint: "affricate-above" 517 722 basechar 0
AnchorPoint: "below" 258 0 basechar 0
AnchorPoint: "above" 258 461 basechar 0
LayerCount: 2
Fore
SplineSet
80 0 m 1
 80 450 l 1
 153 450 l 1
 153 380 l 1
 167 398 211 455 299 455 c 0
 427 455 436 358 436 288 c 2
 436 0 l 1
 358 0 l 1
 358 281 l 2
 358 319 358 394 260 394 c 0
 183 394 158 314 158 240 c 2
 158 0 l 1
 80 0 l 1
EndSplineSet
EndChar

StartChar: o
Encoding: 111 111 123
Width: 500
Flags: HW
TeX: 441 0
HStem: -11 64<179.853 318.422> 399 62<178.082 321.906>
VStem: 30 78<131.391 322.417> 390 79<131.182 322.489>
AnchorPoint: "ogonek" 249 0 basechar 0
AnchorPoint: "affricate-below" 500 -195 basechar 0
AnchorPoint: "affricate-above" 500 722 basechar 0
AnchorPoint: "below" 249 0 basechar 0
AnchorPoint: "above" 249 461 basechar 0
LayerCount: 2
Fore
SplineSet
30 221 m 0
 30 357 131 461 249 461 c 0
 377 461 469 345 469 220 c 0
 469 84 363 -11 249 -11 c 0
 135 -11 30 85 30 221 c 0
108 231 m 0
 108 105 183 53 249 53 c 0
 316 53 390 106 390 231 c 0
 390 353 313 399 249 399 c 0
 185 399 108 352 108 231 c 0
EndSplineSet
EndChar

StartChar: p
Encoding: 112 112 124
Width: 517
Flags: HW
TeX: 441 194
HStem: -195 21G<81 159> -11 61<207.958 324.565> 391 64<217.883 331.845> 425 20G<81 156>
VStem: 81 78<-195 46 83.5709 357.586 396 445> 401 79<132.352 312.221>
AnchorPoint: "affricate-below" 517 -195 basechar 0
AnchorPoint: "affricate-above" 517 722 basechar 0
AnchorPoint: "below" 280 -195 basechar 0
AnchorPoint: "above" 280 461 basechar 0
LayerCount: 2
Fore
SplineSet
81 -195 m 1
 81 445 l 1
 156 445 l 1xdc
 156 396 l 1
 220 448 288 455 322 455 c 0
 417 455 480 343 480 224 c 0
 480 83 391 -11 294 -11 c 0
 235 -11 192 15 159 46 c 1
 159 -195 l 1
 81 -195 l 1
159 126 m 2xec
 159 102 197 50 256 50 c 0
 326 50 401 116 401 222 c 0
 401 310 347 391 265 391 c 0
 199 391 165 341 159 334 c 1
 159 126 l 2xec
EndSplineSet
EndChar

StartChar: q
Encoding: 113 113 125
Width: 517
Flags: HW
TeX: 441 194
HStem: -195 21G<355 434> -11 62<185.557 296.393> 391 64<189.826 303.312>
VStem: 35 78<129.815 310.263> 358 76<-195 50 90.7041 347.107 388 455>
AnchorPoint: "affricate-below" 517 -195 basechar 0
AnchorPoint: "affricate-above" 517 722 basechar 0
AnchorPoint: "below" 234 -195 basechar 0
AnchorPoint: "above" 234 461 basechar 0
LayerCount: 2
Fore
SplineSet
35 221 m 0
 35 359 122 455 221 455 c 0
 286 455 328 421 358 388 c 1
 358 455 l 1
 434 455 l 1
 434 -195 l 1
 355 -195 l 1
 355 50 l 1
 291 -8 228 -11 204 -11 c 0
 109 -11 35 93 35 221 c 0
113 221 m 0
 113 126 175 51 249 51 c 0
 304 51 358 97 358 138 c 2
 358 285 l 2
 358 315 329 391 259 391 c 0
 188 391 113 325 113 221 c 0
EndSplineSet
EndChar

StartChar: r
Encoding: 114 114 126
Width: 342
Flags: HW
TeX: 441 0
ItalicCorrection: 13
HStem: 0 21G<81 156> 388 67<245.189 326>
VStem: 81 75<0 300.136 360 450>
AnchorPoint: "affricate-below" 342 -195 basechar 0
AnchorPoint: "affricate-above" 342 722 basechar 0
AnchorPoint: "below" 118 0 basechar 0
AnchorPoint: "above" 204 461 basechar 0
LayerCount: 2
Fore
SplineSet
81 0 m 1
 81 450 l 1
 151 450 l 1
 151 360 l 1
 167 385 220 453 326 455 c 1
 326 388 l 1
 267 386 156 352 156 206 c 2
 156 0 l 1
 81 0 l 1
EndSplineSet
EndChar

StartChar: s
Encoding: 115 115 127
Width: 383
Flags: HW
TeX: 441 0
HStem: -11 63<92.8559 267.104> 401 60<121.271 298.656>
VStem: 33 71<298.046 383.682> 289 71<73.4391 164.363>
AnchorPoint: "affricate-below" 383 -195 basechar 0
AnchorPoint: "affricate-above" 383 722 basechar 0
AnchorPoint: "below" 197 0 basechar 0
AnchorPoint: "above" 197 461 basechar 0
LayerCount: 2
Fore
SplineSet
27 34 m 1
 39 102 l 1
 67 86 115 52 196 52 c 0
 271 52 289 93 289 120 c 0
 289 158 253 178 233 184 c 0
 211 191 168 196 137 206 c 0
 93 220 33 259 33 329 c 0
 33 382 61 461 197 461 c 0
 253 461 288 453 343 430 c 1
 332 364 l 1
 292 383 260 401 188 401 c 0
 119 401 104 365 104 340 c 0
 104 267 211 280 273 252 c 0
 314 234 360 192 360 127 c 0
 360 72 331 -11 197 -11 c 0
 163 -11 102 -7 27 34 c 1
EndSplineSet
EndChar

StartChar: t
Encoding: 116 116 128
Width: 361
Flags: HW
TeX: 571 0
HStem: -11 64<167.5 296.286> 386 59<18 102 174 315>
VStem: 102 72<64.9987 386 445 571>
AnchorPoint: "affricate-below" 361 -195 basechar 0
AnchorPoint: "affricate-above" 361 722 basechar 0
AnchorPoint: "below" 162 0 basechar 0
AnchorPoint: "above" 138 571 basechar 0
LayerCount: 2
Fore
SplineSet
18 386 m 1
 18 445 l 1
 104 445 l 1
 104 571 l 1
 174 571 l 1
 174 445 l 1
 315 445 l 1
 315 386 l 1
 174 386 l 1
 174 140 l 2
 174 112 176 53 228 53 c 0
 271 53 302 76 316 86 c 1
 332 27 l 1
 280 -1 229 -11 184 -11 c 0
 151 -11 102 7 102 117 c 2
 102 386 l 1
 18 386 l 1
EndSplineSet
EndChar

StartChar: u
Encoding: 117 117 129
Width: 517
Flags: HW
TeX: 441 0
HStem: -11 56<169.525 298.455> 0 21G<360 436> 425 20G<80 158 358 436>
VStem: 80 78<57.0664 445> 358 78<0 48 88.3105 445>
AnchorPoint: "ogonek" 398 0 basechar 0
AnchorPoint: "affricate-below" 517 -195 basechar 0
AnchorPoint: "affricate-above" 517 722 basechar 0
AnchorPoint: "below" 258 0 basechar 0
AnchorPoint: "above" 258 461 basechar 0
LayerCount: 2
Fore
SplineSet
80 122 m 2
 80 445 l 1
 158 445 l 1
 158 110 l 1
 159 67 170 45 238 45 c 0xb8
 313 45 352 93 357 136 c 0
 358 146 358 155 358 165 c 2
 358 445 l 1
 436 445 l 1
 436 0 l 1
 360 0 l 1x78
 360 48 l 1
 308 3 240 -11 185 -11 c 0xb8
 80 -11 80 70 80 122 c 2
EndSplineSet
EndChar

StartChar: v
Encoding: 118 118 130
Width: 461
Flags: HW
TeX: 441 0
ItalicCorrection: 13
HStem: 0 21G<178.27 281.73> 425 20G<14 98.6229 323.5 446>
DStem2: 91 445 14 445 0.360524 -0.93275<0 417.84>
AnchorPoint: "affricate-below" 461 -195 basechar 0
AnchorPoint: "affricate-above" 461 722 basechar 0
AnchorPoint: "below" 230 0 basechar 0
AnchorPoint: "above" 230 461 basechar 0
LayerCount: 2
Fore
SplineSet
14 445 m 1
 91 445 l 1
 184 201 l 1
 221 97 227 81 232 50 c 1
 238 90 275 193 372 445 c 1
 446 445 l 1
 274 0 l 1
 186 0 l 1
 14 445 l 1
EndSplineSet
EndChar

StartChar: w
Encoding: 119 119 131
Width: 683
Flags: HW
TeX: 441 0
ItalicCorrection: 13
HStem: 0 21G<145.798 250.5 399.5 537.202> 425 20G<14 138.5 286 379.984 554.5 669>
VStem: 596 73<422.428 445>
AnchorPoint: "affricate-below" 683 -195 basechar 0
AnchorPoint: "affricate-above" 683 722 basechar 0
AnchorPoint: "below" 342 0 basechar 0
AnchorPoint: "above" 341 461 basechar 0
LayerCount: 2
Fore
SplineSet
14 445 m 1
 89 445 l 1
 188 129 192 88 197 50 c 1
 200 113 269 335 303 445 c 1
 374 445 l 1
 447 201 l 1
 476 96 481 81 485 50 c 1
 489 89 513 174 596 445 c 1
 669 445 l 1
 531 0 l 1
 444 0 l 1
 355 293 347 320 337 394 c 1
 334 331 270 129 231 0 c 1
 152 0 l 1
 14 445 l 1
EndSplineSet
EndChar

StartChar: x
Encoding: 120 120 132
Width: 461
Flags: HW
TeX: 441 0
HStem: 0 21G<0 98.3191 361.043 460> 425 20G<6 105.727 344.879 444>
DStem2: 89 445 6 445 0.640354 -0.76808<0 215.102 285.765 526.217> 228 280 260 230 0.631426 0.775436<-71.9715 -71.9715 0 211.927>
AnchorPoint: "affricate-below" 461 -195 basechar 0
AnchorPoint: "affricate-above" 461 722 basechar 0
AnchorPoint: "below" 230 0 basechar 0
AnchorPoint: "above" 230 461 basechar 0
LayerCount: 2
Fore
SplineSet
-0 0 m 1
 194 228 l 1
 194 230 l 1
 6 445 l 1
 89 445 l 1
 227 280 l 1
 228 280 l 1
 361 445 l 1
 444 445 l 1
 260 230 l 1
 260 229 l 1
 460 0 l 1
 377 0 l 1
 227 188 l 1
 83 0 l 1
 -0 0 l 1
EndSplineSet
EndChar

StartChar: y
Encoding: 121 121 133
Width: 461
Flags: HW
TeX: 441 194
ItalicCorrection: 13
HStem: -205 56<41.4161 149.89> 425 20G<14 161 338 446>
AnchorPoint: "affricate-below" 461 -195 basechar 0
AnchorPoint: "affricate-above" 461 722 basechar 0
AnchorPoint: "below" 230 -195 basechar 0
AnchorPoint: "above" 233 461 basechar 0
LayerCount: 2
Fore
SplineSet
14 445 m 1
 93 445 l 1
 229 134 229 107 238 50 c 1
 240 118 305 281 371 445 c 1
 446 445 l 1
 229 -90 l 1
 189 -182 160 -205 114 -205 c 0
 95 -205 65 -203 41 -197 c 1
 36 -132 l 1
 70 -143 92 -149 109 -149 c 0
 151 -149 159 -119 202 -15 c 0
 205 -8 206 -3 206 1 c 0
 206 6 205 10 201 18 c 2
 14 445 l 1
EndSplineSet
EndChar

StartChar: z
Encoding: 122 122 134
Width: 435
Flags: HW
TeX: 441 0
HStem: -0 62<133 401> 385 60<41 293>
DStem2: 27 41 133 62 0.610598 0.791941<81.3541 435.639>
AnchorPoint: "affricate-below" 435 -195 basechar 0
AnchorPoint: "affricate-above" 435 722 basechar 0
AnchorPoint: "below" 214 0 basechar 0
AnchorPoint: "above" 214 461 basechar 0
LayerCount: 2
Fore
SplineSet
27 -0 m 1
 27 41 l 1
 293 386 l 1
 263 385 l 1
 41 385 l 1
 41 445 l 1
 398 445 l 1
 398 405 l 1
 133 62 l 1
 334 62 l 1
 355 63 l 1
 401 63 l 1
 401 -0 l 1
 27 -0 l 1
EndSplineSet
EndChar

StartChar: braceleft
Encoding: 123 123 135
Width: 500
Flags: HW
TeX: 746 249
HStem: -250 61<306.867 446> 219 62<52 124.19> 689 61<307.246 446>
VStem: 210 78<-168.375 164.625 339.047 669.733>
CounterMasks: 1 e0
LayerCount: 2
Fore
SplineSet
52 219 m 1
 52 281 l 1
 121 281 203 314 210 389 c 1
 210 626 l 2
 210 654 222 750 393 750 c 2
 446 750 l 1
 446 689 l 1
 422 689 l 2
 291 689 288 655 288 621 c 2
 288 410 l 2
 288 281 176 253 127 250 c 1
 177 247 288 218 288 90 c 2
 288 -125 l 2
 288 -163 307 -189 422 -189 c 0
 430 -189 438 -189 446 -189 c 1
 446 -250 l 1
 401 -250 l 2
 365 -250 325 -248 282 -229 c 0
 205 -194 211 -139 210 -119 c 1
 210 88 l 1
 209 109 211 121 203 140 c 0
 181 193 116 219 52 219 c 1
EndSplineSet
EndChar

StartChar: bar
Encoding: 124 124 136
Width: 278
Flags: HW
TeX: 746 249
VStem: 118 40<-248.987 748.997>
LayerCount: 2
Fore
SplineSet
118 -220 m 2
 118 720 l 2
 118 745 131 749 138 749 c 0
 146 749 158 745 158 720 c 2
 158 -220 l 2
 158 -245 146 -249 138 -249 c 0
 120 -249 118 -231 118 -220 c 2
EndSplineSet
EndChar

StartChar: braceright
Encoding: 125 125 137
Width: 500
Flags: HW
TeX: 746 249
HStem: -250 61<52 190.998> 219 62<374.083 446> 689 61<52 191.04>
VStem: 210 78<-169.18 160.552 339.448 669.085>
CounterMasks: 1 e0
LayerCount: 2
Fore
SplineSet
52 -189 m 1
 106 -189 197 -191 209 -143 c 0
 211 -134 210 -125 210 -116 c 2
 210 90 l 2
 210 218 321 247 371 250 c 1
 321 253 210 282 210 410 c 2
 210 625 l 2
 210 663 191 689 75 689 c 2
 52 689 l 1
 52 750 l 1
 101 750 l 1
 146 749 173 749 214 731 c 0
 294 696 287 640 288 619 c 1
 288 412 l 1
 289 391 288 379 296 360 c 0
 318 307 382 281 446 281 c 1
 446 219 l 1
 377 219 296 186 289 111 c 1
 288 88 l 1
 288 -119 l 1
 287 -141 288 -155 279 -174 c 0
 253 -226 184 -250 105 -250 c 2
 52 -250 l 1
 52 -189 l 1
EndSplineSet
EndChar

StartChar: asciitilde
Encoding: 126 126 138
Width: 611
Flags: HW
TeX: 677 0
HStem: 557 62<320.815 450.833> 615 61<159.167 286.304>
VStem: 83 61<557 597.596> 466 61<635.404 676>
LayerCount: 2
Fore
SplineSet
83 557 m 1xb0
 86 629 143 676 210 676 c 0x70
 279 676 335 619 399 619 c 0xb0
 430 619 462 635 466 676 c 1
 527 676 l 1x70
 524 604 467 557 400 557 c 0xb0
 331 557 275 615 211 615 c 0x70
 180 615 148 598 144 557 c 1
 83 557 l 1xb0
EndSplineSet
EndChar

StartChar: Abreve
Encoding: 258 258 140
Width: 667
Flags: HW
TeX: 888 0
HStem: 0 21<27 109.451 537.451 637> 204 56<199 447> 674 20<280.478 384.493> 727 67<257.517 392.14>
VStem: 156 61<833.741 889> 433 62<832.967 889>
DStem2: 27 0 102 0 0.35201 0.935996<26.4008 244.097 303.905 688.257> 637 0 447 260 0.350828 -0.93644<-559.621 -310.132 -250.324 -32.2761>
AnchorPoint: "below" 332 0 basechar 0
AnchorPoint: "above" 332 891 basechar 0
LayerCount: 2
Fore
SplineSet
156 889 m 1
 217 889 l 1
 221 823 278 794 325 794 c 0
 372 794 429 823 433 889 c 1
 495 889 l 1
 492 789 411 727 325 727 c 0
 237 727 159 791 156 889 c 1
EndSplineSet
Refer: 77 65 S 1 0 0 1 0 0 3
AlternateSubs2: "Stilistic set 01 subtable" Abreve.vn
AlternateSubs2: "Latin alternatives subtable" Abreve.vn
Substitution2: "Latin Vietnamese substitutions subtable" Abreve.vn
EndChar

StartChar: Aogonek
Encoding: 260 260 141
Width: 667
Flags: HW
TeX: 694 194
HStem: -217 70<524.675 640.894> 0 21G<27 109.451> 204 56<199 447> 674 20G<280.478 384.493>
VStem: 459 60<-140.548 -60.2644>
DStem2: 27 0 102 0 0.35201 0.935996<26.4008 244.097 303.905 688.257> 637 0 447 260 0.350828 -0.93644<-559.621 -310.132 -250.324 -27.7546>
AnchorPoint: "above" 332 716 basechar 0
LayerCount: 2
Fore
SplineSet
27 0 m 1
 288 694 l 1
 377 694 l 1
 637 0 l 1
 609 0 l 1
 606 -2 519 -48 519 -106 c 0
 519 -126 533 -147 570 -147 c 0
 596 -147 621 -138 637 -133 c 1
 653 -192 l 1
 599 -217 566 -217 556 -217 c 0
 498 -217 459 -181 459 -128 c 0
 459 -77 496 -29 544 0 c 1
 468 204 l 1
 178 204 l 1
 102 0 l 1
 27 0 l 1
199 260 m 1
 447 260 l 1
 356 512 329 587 323 624 c 1
 315 587 278 476 199 260 c 1
EndSplineSet
Ligature2: "Latin ligatures subtable" A uni0328
EndChar

StartChar: Cacute
Encoding: 262 262 142
Width: 639
Flags: HW
TeX: 850 0
HStem: -22 64<306.02 515.635> 652 64<303.914 503.664> 760 0 850 0
VStem: 66 90<218.901 473.328>
AnchorPoint: "below" 394 0 basechar 0
AnchorPoint: "above" 378 830 basechar 0
LayerCount: 2
Fore
SplineSet
235 760 m 1
 391 850 385 850 404 850 c 2
 502 850 l 1
 344 771 l 1
 322 761 l 1
 307 760 l 1
 235 760 l 1
EndSplineSet
Refer: 79 67 S 1 0 0 1 0 -0 3
EndChar

StartChar: Ccaron
Encoding: 268 268 143
Width: 639
Flags: HW
TeX: 888 0
HStem: -22 64<306.02 515.635> 652 64<303.914 503.664> 727 21G<336.938 439.062>
VStem: 66 90<218.901 473.328>
AnchorPoint: "below" 394 0 basechar 0
AnchorPoint: "above" 378 869 basechar 0
LayerCount: 2
Fore
SplineSet
230 889 m 1
 291 889 l 1
 388 778 l 1
 485 889 l 1
 546 889 l 1
 424 727 l 1
 352 727 l 1
 230 889 l 1
EndSplineSet
Refer: 79 67 S 1 0 0 1 -0 0 3
EndChar

StartChar: Eogonek
Encoding: 280 280 146
Width: 597
Flags: HW
TeX: 694 194
HStem: -217 70<406.443 523.393> 0 71<184 426 457.559 555> 329 61<184 514> 626 65<184 541>
VStem: 94 90<70 329 390 627> 341 60<-140.516 -60.8082>
AnchorPoint: "above" 318 716 basechar 0
LayerCount: 2
Fore
SplineSet
94 0 m 1
 94 691 l 1
 541 691 l 1
 541 625 l 1
 484 625 l 1
 459 626 l 1
 219 626 l 1
 184 627 l 1
 184 390 l 1
 514 390 l 1
 514 329 l 1
 184 329 l 1
 184 70 l 1
 269 70 l 1
 293 71 l 1
 487 71 l 1
 509 72 l 1
 555 72 l 1
 555 0 l 1
 515 0 l 2
 488 0 489 0 461 -19 c 0
 437 -35 401 -71 401 -106 c 0
 401 -134 423 -147 452 -147 c 0
 477 -147 504 -138 520 -133 c 1
 535 -192 l 1
 481 -217 448 -217 438 -217 c 0
 380 -217 341 -181 341 -128 c 0
 341 -102 351 -49 426 0 c 1
 94 0 l 1
EndSplineSet
EndChar

StartChar: Gbreve
Encoding: 286 286 147
Width: 667
Flags: HW
TeX: 888 0
HStem: -22 64<306.694 519.434> 237 62<388 521> 652 64<308.168 502.188> 727 67<320.71 454.925>
VStem: 66 90<220.827 474.921> 219 61<833.741 889> 496 62<832.58 889> 521 78<57.1088 237>
LayerCount: 2
Fore
SplineSet
219 889 m 1
 280 889 l 1
 284 822 342 794 388 794 c 0xfe
 435 794 492 823 496 889 c 1
 558 889 l 1
 555 788 473 727 388 727 c 0
 300 727 222 791 219 889 c 1
EndSplineSet
Refer: 83 71 S 1 0 0 1 0 0 3
EndChar

StartChar: Lacute
Encoding: 313 313 148
Width: 542
Flags: HW
TeX: 850 0
HStem: 0 65<184 499> 674 20<94 184> 760 0 850 0
VStem: 94 90<65 694>
LayerCount: 2
Fore
SplineSet
9 760 m 1
 165 850 159 850 178 850 c 2
 277 850 l 1
 119 771 l 1
 97 761 l 1
 82 760 l 1
 9 760 l 1
EndSplineSet
Refer: 88 76 S 1 0 0 1 0 0 3
EndChar

StartChar: Lcaron
Encoding: 317 317 149
Width: 542
Flags: HW
TeX: 888 0
HStem: 0 65<184 499> 674 20<94 184>
VStem: 94 90<65 694> 334 84<694 778> 334 42<611 633.346>
LayerCount: 2
Fore
SplineSet
334 611 m 1xe8
 360 694 l 1
 334 694 l 1xf0
 334 778 l 1
 418 778 l 1
 418 709 l 1xf0
 416 681 409 680 376 611 c 1
 334 611 l 1xe8
EndSplineSet
Refer: 88 76 S 1 0 0 1 0 0 3
EndChar

StartChar: Lslash
Encoding: 321 321 150
Width: 625
Flags: HW
TeX: 694 0
HStem: 0 65<267 582> 674 20G<177 267>
VStem: 177 90<65 282 440 694>
DStem2: 77 278 117 231 0.761463 0.648208<0 78.7392 249.688 414.983>
LayerCount: 2
Fore
SplineSet
77 278 m 1
 177 363 l 1
 177 694 l 1
 267 694 l 1
 267 440 l 1
 393 547 l 1
 433 500 l 1
 267 359 l 1
 267 65 l 1
 462 65 l 1
 582 66 l 1
 582 0 l 1
 177 0 l 1
 177 282 l 1
 117 231 l 1
 77 278 l 1
EndSplineSet
EndChar

StartChar: Nacute
Encoding: 323 323 151
Width: 708
Flags: HW
TeX: 850 0
HStem: 0 21<95 173 475.926 611> 674 20<95 230.074 533 611> 760 0 850 0
VStem: 95 78<0 624> 533 78<70 694>
DStem2: 220 694 173 624 0.448359 -0.893853<41.4969 698.101>
LayerCount: 2
Fore
SplineSet
227 760 m 1
 383 850 378 850 397 850 c 2
 495 850 l 1
 337 771 l 1
 315 761 l 1
 300 760 l 1
 227 760 l 1
EndSplineSet
Refer: 90 78 S 1 0 0 1 0 -0 3
EndChar

StartChar: Ncaron
Encoding: 327 327 152
Width: 708
Flags: HW
TeX: 888 0
HStem: 0 21<95 173 475.926 611> 674 20<95 230.074 533 611> 727 21G<301.938 404.062>
VStem: 95 78<0 624> 533 78<70 694>
DStem2: 220 694 173 624 0.448359 -0.893853<41.4969 698.101>
LayerCount: 2
Fore
SplineSet
195 889 m 1
 256 889 l 1
 353 778 l 1
 450 889 l 1
 511 889 l 1
 389 727 l 1
 317 727 l 1
 195 889 l 1
EndSplineSet
Refer: 90 78 S 1 0 0 1 -0 0 3
EndChar

StartChar: Eng
Encoding: 330 330 153
Width: 750
Flags: HW
TeX: 694 0
HStem: -22 62<448.859 573.093> 0 21G<94 184> 674 20G<94 184> 677 78<298.653 484.847>
VStem: 94 90<0 565.721 667 694> 604 90<72.5223 552.58>
LayerCount: 2
Fore
SplineSet
94 0 m 1
 94 694 l 1
 184 694 l 1x6c
 184 667 l 1
 233 714 302 755 397 755 c 0
 542 755 694 649 694 451 c 2
 694 149 l 2x1c
 694 74 664 -22 546 -22 c 0
 489 -22 440 -2 403 20 c 1
 416 95 l 1
 417 93 450 40 516 40 c 0
 566 40 590 73 599 103 c 0
 605 122 604 141 604 161 c 2
 604 449 l 2
 604 477 603 508 589 542 c 0
 563 607 494 677 391 677 c 0x9c
 274 677 184 581 184 490 c 2
 184 0 l 1
 94 0 l 1
EndSplineSet
EndChar

StartChar: Ohungarumlaut
Encoding: 336 336 154
Width: 736
Flags: HW
TeX: 850 0
HStem: -22 65<285.316 449.559> 652 64<283.738 450.942> 760 0 850 0
VStem: 55 90<223.855 477.673> 366 268 590 89<221.725 477.873>
AnchorPoint: "below" 367 0 basechar 0
AnchorPoint: "above" 368 831 basechar 0
LayerCount: 2
Fore
SplineSet
200 760 m 1
 356 850 350 850 369 850 c 2xf8
 468 850 l 1
 310 771 l 1
 287 761 l 1
 273 760 l 1
 200 760 l 1
EndSplineSet
Refer: 269 -1 S 1 0 0 1 201 250 2
Refer: 91 79 S 1 0 0 1 0 -0 3
EndChar

StartChar: Racute
Encoding: 340 340 155
Width: 646
Flags: HW
TeX: 850 0
HStem: 0 21<95 182 515.165 617> 316 62<182 340> 638 56<182 427.846> 760 0 850 0
VStem: 95 87<0 316 378 638> 508 81<442.046 572.445>
DStem2: 418 326 340 316 0.521026 -0.853541<0 335.046>
AnchorPoint: "below" 316 0 basechar 0
AnchorPoint: "above" 316 852 basechar 0
LayerCount: 2
Fore
SplineSet
183 760 m 1
 339 850 333 850 352 850 c 2
 450 850 l 1
 292 771 l 1
 270 761 l 1
 255 760 l 1
 183 760 l 1
EndSplineSet
Refer: 94 82 S 1 0 0 1 0 0 3
EndChar

StartChar: Sacute
Encoding: 346 346 157
Width: 555
Flags: HW
TeX: 850 0
HStem: -22 69<161.174 351.755> 649 67<195.471 385.967> 760 0 850 0
VStem: 55 80<469.171 592.483> 419 80<110.909 246.375>
DStem2: 215 424 209 332 0.957003 -0.290078<-62.5652 218.664>
AnchorPoint: "below" 273 0 basechar 0
AnchorPoint: "above" 281 830 basechar 0
LayerCount: 2
Fore
SplineSet
138 760 m 1
 294 850 288 850 307 850 c 2
 405 850 l 1
 247 771 l 1
 225 761 l 1
 210 760 l 1
 138 760 l 1
EndSplineSet
Refer: 95 83 S 1 0 0 1 0 -0 3
EndChar

StartChar: Scaron
Encoding: 352 352 158
Width: 555
Flags: HW
TeX: 888 0
HStem: -22 69<161.174 351.755> 649 67<195.471 385.967> 727 21G<225.938 328.062>
VStem: 55 80<469.171 592.483> 419 80<110.909 246.375>
DStem2: 215 424 209 332 0.957003 -0.290078<-62.5652 218.664>
AnchorPoint: "below" 273 0 basechar 0
AnchorPoint: "above" 281 869 basechar 0
LayerCount: 2
Fore
SplineSet
119 889 m 1
 180 889 l 1
 277 778 l 1
 374 889 l 1
 435 889 l 1
 313 727 l 1
 241 727 l 1
 119 889 l 1
EndSplineSet
Refer: 95 83 S 1 0 0 1 -0 0 3
EndChar

StartChar: Scedilla
Encoding: 350 350 159
Width: 555
Flags: HW
TeX: 694 170
HStem: -192 169 -22 69<161.013 352.529> 649 67<195.628 385.967>
VStem: 55 80<468.897 591.271> 173 135 419 80<111.542 246.618>
DStem2: 173 -192 243 -192 0.401103 0.916033<28.0772 184.491> 215 424 209 332 0.957003 -0.290078<-62.4338 218.664>
LayerCount: 2
Fore
SplineSet
44 47 m 1
 59 130 l 1
 106 92 174 47 273 47 c 0
 364 47 419 114 419 179 c 0
 419 232 384 278 333 299 c 0
 309 308 296 309 209 332 c 0
 138 351 55 415 55 519 c 0
 55 615 138 716 281 716 c 0
 362 716 412 696 464 668 c 1
 450 585 l 1
 404 621 362 649 280 649 c 0
 185 649 135 586 135 530 c 0
 135 481 171 442 215 424 c 0
 244 412 329 397 365 382 c 0
 427 356 499 290 499 189 c 0
 499 84 414 -22 273 -22 c 0
 181 -22 107 7 44 47 c 1
EndSplineSet
Refer: 24 184 S 1 0 0 1 56 0 2
EndChar

StartChar: Uring
Encoding: 366 366 163
Width: 687
Flags: HW
TeX: 888 0
HStem: -22 56<269.129 426.193> 666 61<299.458 393.77> 674 20<94 184 514 593> 827 61<299.394 393.779>
VStem: 94 90<133.072 694> 235 56<735.118 818.21> 401 56<735.589 819.213> 514 79<130.655 694>
LayerCount: 2
Fore
SplineSet
235 777 m 0
 235 843 290 888 346 888 c 0
 412 888 457 834 457 777 c 0
 457 710 401 666 346 666 c 0
 279 666 235 720 235 777 c 0
291 777 m 0
 291 754 302 727 346 727 c 0
 391 727 401 754 401 777 c 0
 401 800 391 827 347 827 c 0xdf
 302 827 291 800 291 777 c 0
EndSplineSet
Refer: 97 85 S 1 0 0 1 0 -0 3
EndChar

StartChar: Zacute
Encoding: 377 377 165
Width: 611
Flags: HW
TeX: 850 0
HStem: 0 65<170 560> 631 63<69 440> 760 0 850 0
DStem2: 68 63 170 65 0.54721 0.836996<57.4894 679.812>
AnchorPoint: "below" 308 0 basechar 0
AnchorPoint: "above" 308 852 basechar 0
LayerCount: 2
Fore
SplineSet
193 760 m 1
 349 850 344 850 363 850 c 2
 461 850 l 1
 303 771 l 1
 280 761 l 1
 266 760 l 1
 193 760 l 1
EndSplineSet
Refer: 102 90 S 1 0 0 1 0 -0 3
EndChar

StartChar: IJ
Encoding: 306 306 168
Width: 722
Flags: HW
TeX: 694 0
HStem: -22 62<348.492 510.236> 0 21<66 156> 674 20G<66 156 551 638>
VStem: 66 90<0 694> 551 87<81.1097 694>
LayerCount: 2
Fore
SplineSet
291 20 m 1
 299 66 l 1
 305 95 l 1
 339 60 383 40 434 40 c 0
 491 40 551 63 551 157 c 2
 551 694 l 1
 638 694 l 1
 638 155 l 2xb8
 638 13 544 -22 462 -22 c 0
 392 -22 339 -3 291 20 c 1
EndSplineSet
Refer: 85 73 S 1 0 0 1 -28 0 2
Ligature2: "Latin Dutch ligatures subtable" I J
EndChar

StartChar: dcroat
Encoding: 273 273 170
Width: 517
Flags: HW
TeX: 722 0
HStem: -11 62<178.992 297.329> -0 21G<355 434> 394 62<185.732 304.837> 551 59<167 358 434 535> 702 20G<358 434>
VStem: 35 78<124.123 319.301> 355 79<0 52 90.7157 363.995 401 551 610 722>
LayerCount: 2
Fore
SplineSet
35 221 m 0
 35 353 114 456 213 456 c 0
 276 456 323 429 358 401 c 1
 358 551 l 1
 167 551 l 1
 167 610 l 1
 358 610 l 1
 358 722 l 1
 434 722 l 1
 434 610 l 1
 535 610 l 1
 535 551 l 1
 434 551 l 1
 434 -0 l 1
 355 -0 l 1x7e
 355 52 l 1
 321 19 273 -11 207 -11 c 0
 105 -11 35 102 35 221 c 0
113 222 m 0
 113 90 194 51 248 51 c 0xbe
 308 51 355 103 355 134 c 2
 355 325 l 2
 355 341 352 347 334 364 c 0
 303 393 271 394 260 394 c 2
 258 394 l 2
 200 394 113 353 113 222 c 0
EndSplineSet
AlternateSubs2: "Stilistic set 01 subtable" dcroat.vn
AlternateSubs2: "Latin alternatives subtable" dcroat.vn
Substitution2: "Latin Vietnamese substitutions subtable" dcroat.vn
EndChar

StartChar: section
Encoding: 167 167 171
Width: 444
Flags: HW
TeX: 722 194
HStem: -205 61<123.824 266.018> 672 61<176.813 309.483>
VStem: 69 79<205.003 349.931 498.085 642.087> 295 79<-114.087 29.2131 177.661 322.881>
LayerCount: 2
Fore
SplineSet
44 -133 m 1
 56 -65 l 1
 77 -88 121 -144 217 -144 c 0
 280 -144 295 -74 295 -36 c 0
 295 48 216 74 200 83 c 0
 172 98 69 158 69 271 c 0
 69 318 86 373 142 415 c 1
 106 450 69 494 69 563 c 0
 69 644 124 733 224 733 c 0
 292 733 331 709 371 675 c 1
 365 638 l 1
 359 609 l 1
 345 624 306 672 226 672 c 0
 164 672 148 602 148 564 c 0
 148 480 226 454 243 445 c 0
 271 430 374 370 374 257 c 0
 374 210 357 154 301 112 c 1
 335 79 374 36 374 -35 c 0
 374 -116 320 -205 217 -205 c 0
 136 -205 86 -173 44 -133 c 1
148 272 m 0
 148 184 236 154 243 154 c 0
 265 154 295 200 295 256 c 0
 295 344 207 373 200 373 c 0
 178 373 148 329 148 272 c 0
EndSplineSet
EndChar

StartChar: aogonek
Encoding: 261 261 173
Width: 480
Flags: HW
TeX: 441 194
HStem: -217 70<301.384 420.582> -11 62<139.139 279.037> 193 52<177.381 322> 401 60<133.479 288.046>
VStem: 44 73<73.0389 150.923> 239 56<-140.276 -59.4533> 322 78<0 35 79.1008 193 245 364.812>
AnchorPoint: "above" 234 461 basechar 0
LayerCount: 2
Fore
SplineSet
44 113 m 0
 44 219 219 244 322 245 c 1
 322 279 l 1
 321 307 321 341 296 371 c 0
 272 400 246 401 233 401 c 0
 158 401 116 372 83 350 c 1
 77 417 l 1
 125 445 171 461 234 461 c 0
 329 461 395 389 400 305 c 1
 400 0 l 1
 381 0 381 2 353 -18 c 0
 305 -51 295 -87 295 -104 c 0
 295 -121 305 -147 349 -147 c 0
 372 -147 395 -139 417 -133 c 1
 433 -192 l 1
 411 -202 372 -217 335 -217 c 0
 277 -217 239 -181 239 -128 c 0
 239 -102 248 -48 324 0 c 1
 324 35 l 1
 323 34 268 -11 158 -11 c 0
 75 -11 44 66 44 113 c 0
117 114 m 0
 117 78 156 51 210 51 c 0
 250 51 322 64 322 130 c 2
 322 193 l 1
 250 192 117 177 117 114 c 0
EndSplineSet
EndChar

StartChar: dcaron
Encoding: 271 271 176
Width: 633
Flags: HW
TeX: 722 0
HStem: -11 62<178.992 297.329> 0 21<355 434> 394 62<185.732 304.837> 702 20<358 434>
VStem: 35 78<124.123 319.301> 355 79<0 52 90.7157 363.995 401 722> 489 84<680 764> 489 42<597 619.346>
LayerCount: 2
Fore
SplineSet
489 597 m 1x3d
 515 680 l 1
 489 680 l 1x3e
 489 764 l 1
 573 764 l 1
 573 695 l 1x3e
 571 667 564 666 531 597 c 1
 489 597 l 1x3d
EndSplineSet
Refer: 112 100 S 1 0 0 1 0 0 2
EndChar

StartChar: eogonek
Encoding: 281 281 178
Width: 444
Flags: HW
TeX: 441 194
HStem: -217 70<258.431 377.438> -11 61<182.639 264> 220 55<109 357> 399 62<173.426 301.134>
VStem: 34 70<137.405 220> 195 58<-140.655 -60.4207>
AnchorPoint: "above" 236 461 basechar 0
LayerCount: 2
Fore
SplineSet
34 226 m 0
 34 350 120 461 236 461 c 0
 307 461 414 421 414 220 c 1
 104 220 l 1
 108 115 178 50 252 50 c 0
 332 50 386 93 404 106 c 1
 410 40 l 1
 369 14 253 -35 253 -106 c 0
 253 -135 277 -147 304 -147 c 0
 330 -147 360 -137 374 -133 c 1
 389 -192 l 1
 335 -217 302 -217 292 -217 c 0
 234 -217 195 -181 195 -128 c 0
 195 -78 228 -39 264 -10 c 1
 259 -10 255 -11 250 -11 c 0
 132 -11 34 91 34 226 c 0
109 275 m 1
 357 275 l 1
 340 386 265 399 236 399 c 0
 160 399 120 324 109 275 c 1
EndSplineSet
EndChar

StartChar: lacute
Encoding: 314 314 180
Width: 239
Flags: HW
TeX: 850 0
ItalicCorrection: 91
HStem: 0 21<81 156> 702 20<81 156> 760 0 850 0
VStem: 34 268 81 75<0 722>
LayerCount: 2
Fore
SplineSet
34 760 m 1
 190 850 184 850 203 850 c 2xf8
 302 850 l 1
 144 771 l 1
 122 761 l 1
 107 760 l 1
 34 760 l 1
EndSplineSet
Refer: 120 108 S 1 0 0 1 -0 0 3
EndChar

StartChar: lcaron
Encoding: 318 318 181
Width: 355
Flags: HW
TeX: 722 0
HStem: 0 21<81 156> 702 20<81 156>
VStem: 81 75<0 722> 212 84<680 764> 212 42<597 620.24>
LayerCount: 2
Fore
SplineSet
212 597 m 1xe8
 237 680 l 1
 212 680 l 1xf0
 212 764 l 1
 296 764 l 1
 296 695 l 1xf0
 294 667 287 666 254 597 c 1
 212 597 l 1xe8
EndSplineSet
Refer: 120 108 S 1 0 0 1 0 0 2
EndChar

StartChar: lslash
Encoding: 322 322 182
Width: 324
Flags: HW
TeX: 722 0
ItalicCorrection: 11
HStem: 0 21G<122 198> 702 20G<122 198>
VStem: 122 76<0 290 431 722>
DStem2: 27 286 65 241 0.761473 0.648196<0 74.9327 224.2 317.572>
AnchorPoint: "above" 160 722 basechar 0
LayerCount: 2
Fore
SplineSet
27 286 m 1
 122 367 l 1
 122 722 l 1
 198 722 l 1
 198 431 l 1
 269 492 l 1
 307 447 l 1
 198 355 l 1
 198 0 l 1
 122 0 l 1
 122 290 l 1
 65 241 l 1
 27 286 l 1
EndSplineSet
EndChar

StartChar: ncaron
Encoding: 328 328 184
Width: 517
Flags: HW
TeX: 638 0
HStem: 0 21G<79 157 357 435> 394 61<213.228 326.575> 545 94
VStem: 65 323 79 78<0 341.981 380 450> 357 78<0 364.375>
LayerCount: 2
Fore
SplineSet
79 0 m 1
 79 450 l 1
 152 450 l 1
 152 380 l 1
 187 423 232 455 298 455 c 0xec
 426 455 435 358 435 288 c 2
 435 0 l 1
 357 0 l 1
 357 281 l 2
 357 319 357 394 259 394 c 0
 182 394 157 314 157 240 c 2
 157 0 l 1
 79 0 l 1
EndSplineSet
Refer: 20 711 S 1 0 0 1 -23 0 2
EndChar

StartChar: eng
Encoding: 331 331 185
Width: 517
Flags: HW
TeX: 441 194
HStem: -205 64<227.302 331.707> 0 21G<80 158> 394 61<213.339 327.974>
VStem: 80 78<0 341.981 380 450> 358 78<-111.445 364.375>
AnchorPoint: "affricate-below" 517 -195 basechar 0
AnchorPoint: "affricate-above" 517 722 basechar 0
AnchorPoint: "below" 258 -195 basechar 0
AnchorPoint: "above" 258 461 basechar 0
LayerCount: 2
Fore
SplineSet
80 0 m 1
 80 450 l 1
 153 450 l 1
 153 380 l 1
 167 398 211 455 299 455 c 0
 431 455 436 350 436 288 c 2
 436 0 l 1
 435 0 l 1
 434 -106 386 -205 307 -205 c 0
 271 -205 230 -195 189 -171 c 1
 216 -110 l 1
 231 -124 257 -141 284 -141 c 0
 311 -141 359 -121 359 -27 c 2
 359 0 l 1
 358 0 l 1
 358 281 l 2
 358 319 358 394 260 394 c 0
 183 394 158 314 158 240 c 2
 158 0 l 1
 80 0 l 1
EndSplineSet
EndChar

StartChar: sacute
Encoding: 347 347 189
Width: 383
Flags: HW
TeX: 638 0
HStem: -11 63<90.8815 269.195> 401 60<118.893 298.317> 510 130
VStem: 32 72<298.268 385.329> 110 211 289 71<72.1087 164.888>
DStem2: 110 510 172 510 0.753516 0.65743<46.718 185.683>
AnchorPoint: "below" 197 0 basechar 0
AnchorPoint: "above" 197 620 basechar 0
LayerCount: 2
Fore
SplineSet
27 34 m 1
 39 102 l 1
 73 81 119 52 197 52 c 0
 275 52 289 92 289 119 c 0
 289 182 205 190 187 194 c 0
 176 196 32 212 32 330 c 0
 32 434 109 461 196 461 c 0
 253 461 288 453 343 430 c 1
 332 364 l 1
 291 383 259 401 186 401 c 0
 115 401 104 365 104 341 c 0
 104 305 136 287 154 281 c 0
 179 273 236 268 272 252 c 0
 302 239 360 202 360 126 c 0xf4
 360 16 283 -11 195 -11 c 0
 125 -11 73 9 27 34 c 1
EndSplineSet
Refer: 14 180 S 1 0 0 1 -80 0 2
EndChar

StartChar: scaron
Encoding: 353 353 190
Width: 383
Flags: HW
TeX: 638 0
HStem: -11 63<91.2768 270.061> 401 60<119.231 298.711> 545 94
VStem: 27 323 33 71<296.534 385.522> 289 71<71.9092 165.052>
AnchorPoint: "below" 197 0 basechar 0
AnchorPoint: "above" 197 619 basechar 0
LayerCount: 2
Fore
SplineSet
27 34 m 1xf0
 39 102 l 1
 73 81 120 52 198 52 c 0
 277 52 289 93 289 120 c 0
 289 176 223 187 211 190 c 0
 160 200 96 206 55 262 c 0
 35 290 33 316 33 330 c 0
 33 435 110 461 196 461 c 0
 253 461 289 453 344 430 c 1
 332 364 l 1
 291 383 259 401 186 401 c 0
 115 401 104 365 104 341 c 0
 104 267 210 279 269 254 c 0
 313 235 360 194 360 126 c 0xec
 360 17 284 -11 196 -11 c 0
 126 -11 73 9 27 34 c 1xf0
EndSplineSet
Refer: 20 711 S 1 0 0 1 -61 0 2
EndChar

StartChar: scedilla
Encoding: 351 351 191
Width: 383
Flags: HW
TeX: 441 170
HStem: -192 169 -11 63<90.8815 269.195> 401 60<119.115 298.317>
VStem: 32 72<298.268 385.329> 92 135 289 71<72.1087 164.708>
DStem2: 92 -192 162 -192 0.401103 0.916033<28.0772 184.491>
LayerCount: 2
Fore
SplineSet
27 34 m 1
 39 102 l 1
 73 81 119 52 197 52 c 0
 275 52 289 92 289 119 c 0
 289 182 205 190 187 194 c 0
 176 196 32 212 32 330 c 0
 32 434 110 461 196 461 c 0
 253 461 288 453 343 430 c 1
 332 364 l 1
 291 383 259 401 186 401 c 0
 115 401 104 365 104 341 c 0
 104 305 136 287 154 281 c 0
 179 273 237 269 273 252 c 1
 303 239 360 201 360 126 c 0xf4
 360 16 283 -11 195 -11 c 0
 125 -11 73 9 27 34 c 1
EndSplineSet
Refer: 24 184 S 1 0 0 1 -25 0 2
EndChar

StartChar: tcaron
Encoding: 357 357 192
Width: 361
Flags: HW
TeX: 722 0
HStem: -11 64<150 296.007> 386 59<18 102 174 315>
VStem: 102 72<64.8821 386 445 571> 273 84<571 655> 273 42<488 510.346>
LayerCount: 2
Fore
SplineSet
18 386 m 1
 18 445 l 1
 104 445 l 1
 104 571 l 1
 174 571 l 1
 174 445 l 1
 315 445 l 1
 315 386 l 1xe8
 174 386 l 1
 174 134 l 2
 174 78 190 53 227 53 c 0
 270 53 299 74 316 86 c 1
 332 27 l 1
 280 -1 228 -11 183 -11 c 0
 117 -11 102 43 102 122 c 2
 102 386 l 1
 18 386 l 1
273 488 m 1xe8
 299 571 l 1
 273 571 l 1xf0
 273 655 l 1
 357 655 l 1
 357 586 l 1xf0
 355 558 348 557 315 488 c 1
 273 488 l 1xe8
EndSplineSet
EndChar

StartChar: tcommaaccent
Encoding: 355 355 193
Width: 361
Flags: HW
TeX: 571 170
HStem: -192 169 -11 64<149 296.007> 386 59<18 102 174 315>
VStem: 102 72<64.5368 386 445 571> 117 135
DStem2: 117 -192 187 -192 0.401103 0.916033<28.0772 184.491>
LayerCount: 2
Fore
SplineSet
18 386 m 1
 18 445 l 1
 104 445 l 1
 104 571 l 1
 174 571 l 1
 174 445 l 1
 315 445 l 1
 315 386 l 1
 174 386 l 1
 174 134 l 2
 174 78 190 53 227 53 c 0xf0
 270 53 299 74 316 86 c 1
 332 27 l 1
 280 -1 228 -11 183 -11 c 0
 115 -11 102 49 102 122 c 2
 102 386 l 1
 18 386 l 1
EndSplineSet
Refer: 24 184 S 1 0 0 1 0 0 2
EndChar

StartChar: ij
Encoding: 307 307 200
Width: 544
Flags: HW
TeX: 677 194
HStem: -205 64<257.241 375.548> 0 21<88 163> 425 20G<88 163 393 469> 590 89<81 171 379 469>
VStem: 81 90<590 679> 88 75<0 445> 379 90<590 679> 393 76<-122.696 445>
LayerCount: 2
Fore
SplineSet
230 -171 m 1
 245 -110 l 1
 266 -128 287 -141 319 -141 c 0
 360 -141 387 -115 392 -90 c 0
 394 -82 393 -73 393 -65 c 2
 393 445 l 1
 469 445 l 1
 469 -51 l 2xf1
 469 -173 395 -205 346 -205 c 0
 300 -205 260 -189 230 -171 c 1
EndSplineSet
Refer: 368 183 S 1 0 0 1 306 415 2
Refer: 117 105 S 1 0 0 1 7 0 2
Ligature2: "Latin Dutch ligatures subtable" i j
EndChar

StartChar: exclamdown
Encoding: 161 161 201
Width: 319
Flags: HW
TeX: 527 194
HStem: -195 21G<117 201> 444 84<117 201>
VStem: 117 84<-195 242.778 444 528> 125 67<-81 353>
LayerCount: 2
Fore
SplineSet
117 -195 m 1xe0
 125 353 l 1
 192 353 l 1xd0
 200 -143 l 1
 201 -195 l 1
 117 -195 l 1xe0
EndSplineSet
Refer: 58 46 S 1 0 0 1 21 444 2
EndChar

StartChar: questiondown
Encoding: 191 191 202
Width: 472
Flags: HW
TeX: 527 194
HStem: -205 61<157.556 329.857> 444 84<180 264>
VStem: 55 78<-119.81 27.4345> 180 84<444 528> 188 67<183.119 353>
LayerCount: 2
Fore
SplineSet
55 -43 m 0
 55 43 93 70 115 95 c 0
 172 162 188 235 188 310 c 2
 188 353 l 1
 255 353 l 1
 255 323 l 2
 255 244 246 151 177 58 c 0
 146 17 133 8 133 -47 c 0
 133 -120 168 -144 223 -144 c 0
 308 -144 366 -105 393 -86 c 1
 416 -150 l 1
 370 -178 305 -205 223 -205 c 0xe8
 89 -205 55 -116 55 -43 c 0
EndSplineSet
Refer: 58 46 S 1 0 0 1 84 444 2
EndChar

StartChar: sterling
Encoding: 163 163 203
Width: 639
Flags: HW
TeX: 722 0
HStem: -11 62<130.735 197.003 390.508 520.918> 83 62<130.312 201.506> 332 58<166 238 316 416> 702 61<361.126 464.468>
VStem: 55 75<51.6619 81.8988> 238 78<138.844 332 390 644.108> 504 78<541 650.018> 532 78<66.4211 145>
LayerCount: 2
Fore
SplineSet
55 58 m 0
 55 110 113 145 183 145 c 0
 204 145 219 141 234 138 c 1
 236 156 238 174 238 194 c 2
 238 332 l 1
 166 332 l 1
 166 390 l 1
 238 390 l 1
 238 529 l 2
 238 702 344 763 415 763 c 0
 531 763 582 636 582 547 c 0
 582 511 557 507 547 507 c 0
 517 507 513 535 512 541 c 1
 504 541 l 1xfe
 503 674 451 702 416 702 c 0
 377 702 316 672 316 533 c 2
 316 390 l 1
 416 390 l 1
 416 332 l 1
 316 332 l 1
 316 193 l 2
 316 162 315 144 305 112 c 1
 331 100 420 50 485 50 c 0
 529 50 532 104 532 145 c 1
 610 145 l 1xfd
 607 48 533 -11 453 -11 c 0
 402 -11 367 5 269 51 c 1
 218 -9 156 -11 140 -11 c 0
 94 -11 55 17 55 58 c 0
130 61 m 0
 130 54 136 51 144 51 c 0
 174 51 199 74 202 76 c 1
 182 81 167 83 157 83 c 0xfc
 133 83 130 68 130 61 c 0
EndSplineSet
EndChar

StartChar: Agrave
Encoding: 192 192 204
Width: 667
Flags: HW
TeX: 850 0
HStem: 0 21<27 109.451 537.451 637> 204 56<199 447> 674 20<280.478 384.493>
DStem2: 27 0 102 0 0.35201 0.935996<26.4008 244.097 303.905 688.257> 637 0 447 260 0.350828 -0.93644<-559.621 -310.132 -250.324 -32.2761>
AnchorPoint: "below" 332 0 basechar 0
AnchorPoint: "above" 332 852 basechar 0
LayerCount: 2
Fore
SplineSet
190 850 m 1
 290 850 l 2
 304 850 306 849 458 760 c 1
 385 760 l 2
 383 760 381 759 380 759 c 0
 367 759 362 763 190 850 c 1
EndSplineSet
Refer: 77 65 S 1 0 0 1 -0 0 3
AlternateSubs2: "Stilistic set 01 subtable" Agrave.vn
AlternateSubs2: "Latin alternatives subtable" Agrave.vn
Substitution2: "Latin Vietnamese substitutions subtable" Agrave.vn
EndChar

StartChar: Aacute
Encoding: 193 193 205
Width: 667
Flags: HW
TeX: 850 0
HStem: 0 21<27 109.451 537.451 637> 204 56<199 447> 674 20<280.478 384.493> 760 0 850 0
DStem2: 27 0 102 0 0.35201 0.935996<26.4008 244.097 303.905 688.257> 637 0 447 260 0.350828 -0.93644<-559.621 -310.132 -250.324 -32.2761>
AnchorPoint: "below" 332 0 basechar 0
AnchorPoint: "above" 332 852 basechar 0
LayerCount: 2
Fore
SplineSet
207 760 m 1
 363 850 357 850 376 850 c 2
 474 850 l 1
 316 771 l 1
 294 761 l 1
 279 760 l 1
 207 760 l 1
EndSplineSet
Refer: 77 65 S 1 0 0 1 0 -0 3
AlternateSubs2: "Stilistic set 01 subtable" Aacute.vn
AlternateSubs2: "Latin alternatives subtable" Aacute.vn
Substitution2: "Latin Vietnamese substitutions subtable" Aacute.vn
EndChar

StartChar: Atilde
Encoding: 195 195 207
Width: 667
Flags: HW
TeX: 888 0
HStem: 0 21<27 109.451 537.451 637> 204 56<199 447> 674 20<280.478 384.493> 727 62<356.644 427.438> 827 62<236.608 307.661>
VStem: 166 61<727 819.87> 437 62<795.241 889>
DStem2: 27 0 102 0 0.35201 0.935996<26.4008 244.097 303.905 688.257> 637 0 447 260 0.350828 -0.93644<-559.621 -310.132 -250.324 -32.2761>
AnchorPoint: "below" 332 0 basechar 0
AnchorPoint: "above" 332 891 basechar 0
LayerCount: 2
Fore
SplineSet
166 727 m 1
 168 844 218 889 262 889 c 0
 328 889 340 789 399 789 c 0
 434 789 437 836 437 889 c 1
 499 889 l 1
 497 770 446 727 402 727 c 0
 336 727 325 827 265 827 c 0
 230 827 227 779 227 727 c 1
 166 727 l 1
EndSplineSet
Refer: 77 65 S 1 0 0 1 0 -0 3
AlternateSubs2: "Stilistic set 01 subtable" Atilde.vn
AlternateSubs2: "Latin alternatives subtable" Atilde.vn
Substitution2: "Latin Vietnamese substitutions subtable" Atilde.vn
EndChar

StartChar: Aring
Encoding: 197 197 209
Width: 667
Flags: HW
TeX: 850 0
HStem: 0 21G<27 109.451 537.451 637> 204 56<199 447> 827 61<282.395 368.359>
VStem: 214 56<705.468 815.345> 381 55<705.717 816.227>
DStem2: 27 0 102 0 0.351914 0.936032<26.3935 244.09 303.898 688.251> 637 0 447 260 0.350655 -0.936505<-559.606 -310.116 -250.308 -32.2602>
LayerCount: 2
Fore
SplineSet
27 0 m 1
 271 649 l 1
 269 651 214 684 214 761 c 0
 214 828 261 888 325 888 c 0
 391 888 436 826 436 760 c 0
 436 697 402 668 391 657 c 1
 637 0 l 1
 545 0 l 1
 468 204 l 1
 178 204 l 1
 102 0 l 1
 27 0 l 1
199 260 m 1
 447 260 l 1
 356 512 329 587 323 624 c 1
 315 587 278 476 199 260 c 1
270 761 m 0
 270 705 303 694 325 694 c 0
 347 694 381 706 381 760 c 0
 381 816 347 827 325 827 c 0
 303 827 270 815 270 761 c 0
EndSplineSet
EndChar

StartChar: AE
Encoding: 198 198 210
Width: 861
Flags: HW
TeX: 694 0
HStem: -0 71<507 818> 222 56<217 418> 330 62<507 777> 630 64<360 418 507 804>
VStem: 418 89<70 222 278 330 392 630>
DStem2: 27 -0 102 -0 0.378737 0.925504<28.4053 268.332 329.25 709.187>
AnchorPoint: "below" 422 0 basechar 0
AnchorPoint: "above" 462 716 basechar 0
LayerCount: 2
Fore
SplineSet
27 -0 m 1
 311 694 l 1
 804 694 l 1
 804 628 l 1
 757 628 l 1
 734 629 l 1
 529 629 l 1
 507 630 l 1
 507 392 l 1
 777 392 l 1
 777 330 l 1
 507 330 l 1
 507 70 l 1
 572 70 l 1
 596 71 l 1
 758 71 l 1
 779 72 l 1
 818 72 l 1
 818 -0 l 1
 418 -0 l 1
 418 222 l 1
 193 222 l 1
 102 -0 l 1
 27 -0 l 1
217 278 m 1
 418 278 l 1
 418 630 l 1
 360 630 l 1
 217 278 l 1
EndSplineSet
EndChar

StartChar: Ccedilla
Encoding: 199 199 211
Width: 639
Flags: HW
TeX: 694 170
HStem: -192 169 -22 64<306.02 515.635> 652 64<304.179 504.131>
VStem: 66 90<218.901 470.404> 284 135
DStem2: 284 -192 354 -192 0.401103 0.916033<28.0772 184.491>
AnchorPoint: "above" 378 716 basechar 0
LayerCount: 2
Fore
SplineSet
66 347 m 0
 66 560 217 716 379 716 c 0
 443 716 488 715 577 682 c 1
 562 599 l 1
 511 630 469 652 392 652 c 0
 258 652 156 514 156 347 c 0
 156 178 258 42 395 42 c 0
 498 42 532 71 582 103 c 1
 588 33 l 1
 518 -9 478 -22 394 -22 c 0
 197 -22 66 155 66 347 c 0
EndSplineSet
Refer: 24 184 S 1 0 0 1 167 0 2
EndChar

StartChar: Eacute
Encoding: 201 201 213
Width: 597
Flags: HW
TeX: 850 0
HStem: 0 71<184 555> 329 61<184 514> 626 65<184 541> 760 0 850 0
VStem: 94 90<70 329 390 627>
AnchorPoint: "below" 324 0 basechar 0
AnchorPoint: "above" 324 855 basechar 0
LayerCount: 2
Fore
SplineSet
200 760 m 1
 356 850 351 850 370 850 c 2
 468 850 l 1
 310 771 l 1
 288 761 l 1
 273 760 l 1
 200 760 l 1
EndSplineSet
Refer: 81 69 S 1 0 0 1 0 -0 3
AlternateSubs2: "Stilistic set 01 subtable" Eacute.vn
AlternateSubs2: "Latin alternatives subtable" Eacute.vn
Substitution2: "Latin Vietnamese substitutions subtable" Eacute.vn
EndChar

StartChar: Ecircumflex
Encoding: 202 202 214
Width: 597
Flags: HW
TeX: 888 0
HStem: 0 71<184 555> 329 61<184 514> 626 65<184 541> 727 21G<129 205.41 363.426 440>
VStem: 94 90<70 329 390 627>
DStem2: 129 727 190 727 0.585662 0.810556<35.7254 189.665> 315 900 284 849 0.585662 -0.810556<23.1828 177.708>
AnchorPoint: "below" 324 0 basechar 0
AnchorPoint: "above" 324 905 basechar 0
LayerCount: 2
Fore
SplineSet
129 727 m 1
 254 900 l 1
 315 900 l 1
 440 727 l 1
 379 727 l 1
 284 849 l 1
 190 727 l 1
 129 727 l 1
EndSplineSet
Refer: 81 69 S 1 0 0 1 -0 0 3
AlternateSubs2: "Stilistic set 01 subtable" Ecircumflex.vn
AlternateSubs2: "Latin alternatives subtable" Ecircumflex.vn
Substitution2: "Latin Vietnamese substitutions subtable" Ecircumflex.vn
EndChar

StartChar: Igrave
Encoding: 204 204 216
Width: 278
Flags: HW
TeX: 850 0
HStem: 0 21<95 185> 674 20<95 185>
VStem: -16 267 95 90<0 694>
AnchorPoint: "below" 139 0 basechar 0
AnchorPoint: "above" 139 852 basechar 0
LayerCount: 2
Fore
SplineSet
-16 850 m 1
 85 850 l 2xe0
 97 850 101 848 251 760 c 1
 174 760 l 2
 160 760 155 762 -16 850 c 1
EndSplineSet
Refer: 85 73 S 1 0 0 1 1 -0 2
AlternateSubs2: "Stilistic set 01 subtable" Igrave.vn
AlternateSubs2: "Latin alternatives subtable" Igrave.vn
Substitution2: "Latin Vietnamese substitutions subtable" Igrave.vn
EndChar

StartChar: Iacute
Encoding: 205 205 217
Width: 278
Flags: HW
TeX: 850 0
ItalicCorrection: 74
HStem: 0 21<94 184> 674 20<94 184> 760 0 850 0
VStem: 54 268 94 90<0 694>
AnchorPoint: "below" 139 0 basechar 0
AnchorPoint: "above" 139 852 basechar 0
LayerCount: 2
Fore
SplineSet
54 760 m 1
 210 850 204 850 223 850 c 2xf8
 322 850 l 1
 164 771 l 1
 142 761 l 1
 127 760 l 1
 54 760 l 1
EndSplineSet
Refer: 85 73 S 1 0 0 1 0 0 3
AlternateSubs2: "Stilistic set 01 subtable" Iacute.vn
AlternateSubs2: "Latin alternatives subtable" Iacute.vn
Substitution2: "Latin Vietnamese substitutions subtable" Iacute.vn
EndChar

StartChar: Icircumflex
Encoding: 206 206 218
Width: 278
Flags: HW
TeX: 888 0
HStem: 0 21<95 185> 674 20<95 185> 727 21G<-16 61.2459 218.426 295>
VStem: -16 311 95 90<0 694>
DStem2: -16 727 46 727 0.585662 0.810556<36.311 189.665> 170 900 139 849 0.585662 -0.810556<23.1828 177.708>
AnchorPoint: "below" 139 0 basechar 0
AnchorPoint: "above" 139 902 basechar 0
LayerCount: 2
Fore
SplineSet
-16 727 m 1
 109 900 l 1
 170 900 l 1
 295 727 l 1
 234 727 l 1
 139 849 l 1xf0
 46 727 l 1
 -16 727 l 1
EndSplineSet
Refer: 85 73 S 1 0 0 1 1 0 2
EndChar

StartChar: Eth
Encoding: 208 208 220
Width: 722
Flags: HW
TeX: 694 0
HStem: 0 56<182 431.342> 311 59<0 95 182 361> 638 56<183 431.229>
VStem: 95 87<56 311 370 638> 580 86<216.135 470.308>
LayerCount: 2
Fore
SplineSet
0 311 m 1
 0 370 l 1
 95 370 l 1
 95 694 l 1
 341 694 l 2
 395 694 449 689 513 647 c 0
 612 582 666 462 666 342 c 0
 666 149 533 18 392 2 c 0
 376 0 360 0 344 0 c 2
 95 0 l 1
 95 311 l 1
 0 311 l 1
182 56 m 1
 326 56 l 2
 358 56 452 57 521 148 c 0
 563 203 580 272 580 341 c 0
 580 495 499 638 325 638 c 2
 183 638 l 1
 182 601 l 1
 182 370 l 1
 361 370 l 1
 361 311 l 1
 182 311 l 1
 182 56 l 1
EndSplineSet
EndChar

StartChar: Ntilde
Encoding: 209 209 221
Width: 708
Flags: HW
TeX: 888 0
HStem: 0 21<95 173 475.926 611> 674 20<95 230.074 533 611> 727 62<376.927 448.749> 827 62<257.844 329.387>
VStem: 95 78<0 624> 186 62<727 819.87> 458 62<795.241 889> 533 78<70 694>
DStem2: 220 694 173 624 0.448359 -0.893853<41.4969 698.101>
LayerCount: 2
Fore
SplineSet
186 727 m 1
 187 844 237 889 282 889 c 0
 348 889 361 789 420 789 c 0
 455 789 458 836 458 889 c 1
 520 889 l 1
 519 770 467 727 424 727 c 0
 358 727 346 827 286 827 c 0
 255 827 248 793 248 727 c 1
 186 727 l 1
EndSplineSet
Refer: 90 78 S 1 0 0 1 0 -0 3
EndChar

StartChar: Oacute
Encoding: 211 211 223
Width: 736
Flags: HW
TeX: 850 0
HStem: -22 65<285.316 449.559> 652 64<283.738 450.942> 760 0 850 0
VStem: 55 90<223.855 477.673> 590 89<221.725 477.873>
AnchorPoint: "below" 367 0 basechar 0
AnchorPoint: "above" 368 830 basechar 0
LayerCount: 2
Fore
SplineSet
242 760 m 1
 398 850 392 850 411 850 c 2
 510 850 l 1
 351 771 l 1
 329 761 l 1
 315 760 l 1
 242 760 l 1
EndSplineSet
Refer: 91 79 S 1 0 0 1 0 -0 3
AlternateSubs2: "Stilistic set 01 subtable" Oacute.vn
AlternateSubs2: "Latin alternatives subtable" Oacute.vn
Substitution2: "Latin Vietnamese substitutions subtable" Oacute.vn
EndChar

StartChar: Ocircumflex
Encoding: 212 212 224
Width: 736
Flags: HW
TeX: 888 0
HStem: -22 65<285.316 449.559> 652 64<283.738 450.942> 727 21G<212 288.41 446.426 523>
VStem: 55 90<223.855 477.673> 590 89<221.725 477.873>
DStem2: 212 727 273 727 0.582571 0.81278<35.5368 189.458> 398 900 367 849 0.585662 -0.810556<23.1828 177.708>
AnchorPoint: "below" 367 0 basechar 0
AnchorPoint: "above" 368 880 basechar 0
LayerCount: 2
Fore
SplineSet
212 727 m 1
 336 900 l 1
 398 900 l 1
 523 727 l 1
 462 727 l 1
 367 849 l 1
 273 727 l 1
 212 727 l 1
EndSplineSet
Refer: 91 79 S 1 0 0 1 -0 -0 3
AlternateSubs2: "Stilistic set 01 subtable" Ocircumflex.vn
AlternateSubs2: "Latin alternatives subtable" Ocircumflex.vn
Substitution2: "Latin Vietnamese substitutions subtable" Ocircumflex.vn
EndChar

StartChar: Otilde
Encoding: 213 213 225
Width: 736
Flags: HW
TeX: 888 0
HStem: -22 65<285.316 449.559> 652 64<283.738 450.942> 727 62<391.991 463.413> 827 62<270.735 342.009>
VStem: 55 90<223.855 477.673> 200 62<727 820.739> 473 61<795.035 889> 590 89<221.725 477.873>
AnchorPoint: "below" 367 0 basechar 0
AnchorPoint: "above" 368 869 basechar 0
LayerCount: 2
Fore
SplineSet
200 727 m 1
 202 777 210 836 250 870 c 0
 260 878 276 889 296 889 c 0
 362 889 376 789 434 789 c 0
 477 789 472 862 473 889 c 1
 534 889 l 1
 531 839 526 780 485 745 c 0
 476 737 458 727 438 727 c 0
 372 727 358 827 300 827 c 0
 257 827 263 754 262 727 c 1
 200 727 l 1
EndSplineSet
Refer: 91 79 S 1 0 0 1 -0 -0 3
AlternateSubs2: "Stilistic set 01 subtable" Otilde.vn
AlternateSubs2: "Latin alternatives subtable" Otilde.vn
Substitution2: "Latin Vietnamese substitutions subtable" Otilde.vn
EndChar

StartChar: OE
Encoding: 338 338 227
Width: 972
Flags: HW
TeX: 694 0
HStem: -22 61<273.067 439.805> 0 71<558 929> 330 62<558 887> 629 65<558 915> 655 61<271.42 438.125>
VStem: 27 87<230.921 474.531> 471 87<74.3835 330 392 620.954>
AnchorPoint: "above" 514 716 basechar 0
LayerCount: 2
Fore
SplineSet
27 345 m 0
 27 559 185 716 359 716 c 0xae
 418 716 455 694 527 694 c 2
 915 694 l 1
 915 628 l 1
 858 628 l 1
 834 629 l 1
 595 629 l 1
 558 630 l 1
 558 392 l 1
 887 392 l 1
 887 330 l 1
 558 330 l 1
 558 70 l 1
 644 70 l 1
 668 71 l 1
 861 71 l 1
 883 72 l 1
 929 72 l 1
 929 0 l 1
 505 0 l 1x76
 455 -3 412 -22 357 -22 c 0
 188 -22 27 132 27 345 c 0
114 358 m 0
 114 189 219 39 363 39 c 0
 456 39 471 77 471 229 c 2
 471 471 l 2xae
 471 622 452 652 370 655 c 1
 351 655 l 1
 234 650 114 538 114 358 c 0
EndSplineSet
EndChar

StartChar: Oslash
Encoding: 216 216 228
Width: 778
Flags: HW
TeX: 746 48
HStem: -22 61<295.502 482.551> 655 61<295.935 481.16>
VStem: 55 86<216.511 474.311> 635 86<215.214 476.791>
DStem2: 132 -33 187 -65 0.500605 0.865676<0 97.6199 172.903 739.954 816.604 914.392>
LayerCount: 2
Fore
SplineSet
55 345 m 0
 55 555 209 716 388 716 c 0
 449 716 497 699 541 675 c 1
 589 759 l 1
 590 759 l 1
 645 727 l 1
 593 637 l 1
 666 576 721 469 721 345 c 0
 721 133 564 -22 388 -22 c 0
 327 -22 279 -5 235 19 c 1
 187 -65 l 1
 132 -33 l 1
 183 56 l 1
 96 130 55 240 55 345 c 0
141 344 m 0
 141 263 163 178 218 117 c 1
 508 619 l 1
 471 641 436 655 388 655 c 0
 255 655 141 537 141 344 c 0
268 75 m 1
 306 55 334 39 389 39 c 0
 516 39 635 150 635 346 c 0
 635 484 576 554 558 576 c 1
 557 576 l 1
 268 75 l 1
EndSplineSet
EndChar

StartChar: Uacute
Encoding: 218 218 230
Width: 687
Flags: HW
TeX: 850 0
HStem: -22 56<269.129 426.193> 674 20<94 184 514 593> 760 0 850 0
VStem: 94 90<133.072 694> 514 79<130.655 694>
AnchorPoint: "below" 346 0 basechar 0
AnchorPoint: "above" 344 852 basechar 0
LayerCount: 2
Fore
SplineSet
259 760 m 1
 415 850 410 850 429 850 c 2
 527 850 l 1
 369 771 l 1
 347 761 l 1
 332 760 l 1
 259 760 l 1
EndSplineSet
Refer: 97 85 S 1 0 0 1 0 -0 3
AlternateSubs2: "Stilistic set 01 subtable" Uacute.vn
AlternateSubs2: "Latin alternatives subtable" Uacute.vn
Substitution2: "Latin Vietnamese substitutions subtable" Uacute.vn
EndChar

StartChar: Ucircumflex
Encoding: 219 219 231
Width: 687
Flags: HW
TeX: 888 0
HStem: -22 56<269.129 426.193> 674 20<94 184 514 593> 727 21G<190 267.41 424.59 502>
VStem: 94 90<133.072 694> 514 79<130.655 694>
DStem2: 190 727 252 727 0.585662 0.810556<36.311 190.251> 372 900 346 849 0.600739 -0.799445<25.1525 179.154>
AnchorPoint: "below" 346 0 basechar 0
AnchorPoint: "above" 344 902 basechar 0
LayerCount: 2
Fore
SplineSet
190 727 m 1
 315 900 l 1
 372 900 l 1
 502 727 l 1
 440 727 l 1
 346 849 l 1
 252 727 l 1
 190 727 l 1
EndSplineSet
Refer: 97 85 S 1 0 0 1 -0 0 3
EndChar

StartChar: Yacute
Encoding: 221 221 233
Width: 667
Flags: HW
TeX: 850 0
ItalicCorrection: 24
HStem: 0 21<289 376> 674 20<2 120.803 558 662> 760 0 850 0
VStem: 289 87<0 278>
DStem2: 107 694 2 694 0.567872 -0.823117<0 416.189> 341 348 376 278 0.566529 0.824042<0 417.12>
AnchorPoint: "below" 332 0 basechar 0
AnchorPoint: "above" 332 852 basechar 0
LayerCount: 2
Fore
SplineSet
248 760 m 1
 404 850 399 850 418 850 c 2
 516 850 l 1
 358 771 l 1
 336 761 l 1
 321 760 l 1
 248 760 l 1
EndSplineSet
Refer: 101 89 S 1 0 0 1 0 0 3
AlternateSubs2: "Stilistic set 01 subtable" Yacute.vn
AlternateSubs2: "Latin alternatives subtable" Yacute.vn
Substitution2: "Latin Vietnamese substitutions subtable" Yacute.vn
EndChar

StartChar: Thorn
Encoding: 222 222 234
Width: 583
Flags: HW
TeX: 694 0
HStem: 0 21G<96 180> 180 56<180 372.536> 511 56<181 366.075> 674 20G<96 180>
VStem: 96 84<0 180 236 511 567 694> 445 81<303.181 441.094>
LayerCount: 2
Fore
SplineSet
96 0 m 1
 96 694 l 1
 180 694 l 1
 180 567 l 1
 302 567 l 2
 469 567 526 451 526 374 c 0
 526 289 460 180 308 180 c 2
 180 180 l 1
 180 0 l 1
 96 0 l 1
180 236 m 1
 282 236 l 2
 401 236 445 318 445 373 c 0
 445 423 408 511 262 511 c 2
 181 511 l 1
 180 473 l 1
 180 236 l 1
EndSplineSet
EndChar

StartChar: Germandbls
Encoding: 61699 61699 235
Width: 1111
Flags: HW
TeX: 694 0
HStem: -22 69<161.755 354.812 717.04 907.701> 649 67<196.629 385.294 751.381 940.908>
VStem: 55 80<470.516 592.237> 419 80<109.569 246.604> 610 80<469.222 591.693> 975 79<110.909 246.639>
DStem2: 214 425 209 332 0.957955 -0.286918<-61.5541 219.429> 770 425 765 332 0.95784 -0.287302<-63.6958 219.474>
LayerCount: 2
Fore
SplineSet
44 47 m 1
 59 130 l 1
 107 92 175 47 274 47 c 0
 365 47 419 114 419 179 c 0
 419 232 384 279 333 299 c 0
 309 308 308 305 209 332 c 0
 132 353 55 421 55 519 c 0
 55 619 143 716 281 716 c 0
 355 716 404 701 465 668 c 1
 450 585 l 1
 406 620 363 649 280 649 c 0
 185 649 135 586 135 531 c 0
 135 482 171 443 214 425 c 0
 243 413 329 398 365 383 c 0
 429 356 499 289 499 189 c 0
 499 81 410 -22 273 -22 c 0
 188 -22 111 4 44 47 c 1
599 47 m 1
 614 130 l 1
 662 92 730 47 829 47 c 0
 920 47 975 114 975 179 c 0
 975 232 940 279 889 299 c 0
 865 308 864 305 765 332 c 0
 662 360 610 444 610 519 c 0
 610 617 695 716 836 716 c 0
 916 716 968 696 1020 668 c 1
 1006 585 l 1
 962 620 919 649 836 649 c 0
 741 649 690 586 690 530 c 0
 690 481 727 443 770 425 c 0
 799 413 884 398 920 383 c 0
 984 357 1054 289 1054 189 c 0
 1054 81 966 -22 829 -22 c 0
 744 -22 666 4 599 47 c 1
EndSplineSet
EndChar

StartChar: acircumflex
Encoding: 226 226 238
Width: 480
Flags: HW
TeX: 638 0
HStem: -11 62<139.04 279.617> 0 21<324 400> 193 52<177.381 322> 401 60<131.266 288.046>
VStem: 44 73<73.2498 150.923> 322 78<0 35 79.545 193 245 364.812>
DStem2: 83 509 144 509 0.663375 0.748287<40.4659 177.567>
AnchorPoint: "below" 234 0 basechar 0
AnchorPoint: "above" 234 630 basechar 0
LayerCount: 2
Fore
SplineSet
83 509 m 1
 208 650 l 1
 292 650 l 1
 394 509 l 1
 333 509 l 1
 239 608 l 1x3c
 144 509 l 1
 83 509 l 1
EndSplineSet
Refer: 109 97 S 1 0 0 1 0 0 3
AlternateSubs2: "Stilistic set 01 subtable" acircumflex.vn
AlternateSubs2: "Latin alternatives subtable" acircumflex.vn
Substitution2: "Latin Vietnamese substitutions subtable" acircumflex.vn
EndChar

StartChar: atilde
Encoding: 227 227 239
Width: 480
Flags: HW
TeX: 638 0
HStem: -11 62<139.04 279.617> 0 21<324 400> 193 52<177.381 322> 401 60<131.266 288.046> 529 61<254.559 347.981> 577 61<150.923 244.464>
VStem: 44 73<73.2498 150.923> 83 61<529 572.183> 322 78<0 35 79.545 193 245 364.812> 355 61<596.503 639>
AnchorPoint: "below" 234 0 basechar 0
AnchorPoint: "above" 234 619 basechar 0
LayerCount: 2
Fore
SplineSet
83 529 m 1x3940
 85 597 131 638 181 638 c 0x3540
 233 638 270 590 314 590 c 0
 340 590 354 613 355 639 c 1
 416 639 l 1
 414 573 369 529 318 529 c 0x3940
 268 529 227 577 185 577 c 0x3540
 169 577 147 569 144 529 c 1
 83 529 l 1x3940
EndSplineSet
Refer: 109 97 S 1 0 0 1 0 0 3
AlternateSubs2: "Stilistic set 01 subtable" atilde.vn
AlternateSubs2: "Latin alternatives subtable" atilde.vn
Substitution2: "Latin Vietnamese substitutions subtable" atilde.vn
EndChar

StartChar: aring
Encoding: 229 229 241
Width: 480
Flags: HW
TeX: 638 0
HStem: -11 62<139.04 279.617> 0 21<324 400> 193 52<177.381 322> 401 60<131.266 288.046> 476 33<195.278 281.654> 606 33<195.693 282.03>
VStem: 44 73<73.2498 150.923> 127 56<517.572 596.928> 294 56<517.757 597.549> 322 78<0 35 79.545 193 245 364.812>
LayerCount: 2
Fore
SplineSet
127 558 m 0
 127 603 178 639 239 639 c 0
 312 639 350 593 350 557 c 0
 350 512 299 476 238 476 c 0
 179 476 127 511 127 558 c 0
183 557 m 0
 183 538 194 509 238 509 c 0
 283 509 294 539 294 558 c 0
 294 577 283 606 239 606 c 0x3f80
 205 606 183 587 183 557 c 0
EndSplineSet
Refer: 109 97 S 1 0 0 1 -0 0 3
EndChar

StartChar: ae
Encoding: 230 230 242
Width: 722
Flags: HW
TeX: 441 0
HStem: -11 62<141.631 297.312 473.491 634.03> 191 56<174.494 321> 220 55<405 634> 399 62<127.087 288.928 467.291 585.242>
VStem: 46 73<72.6284 152.208> 326 73<133.809 191>
AnchorPoint: "below" 370 0 basechar 0
AnchorPoint: "above" 365 461 basechar 0
LayerCount: 2
Fore
SplineSet
46 114 m 0
 46 203 173 244 321 247 c 1xdc
 321 279 l 1
 320 308 321 340 296 370 c 0
 272 400 246 401 233 401 c 0
 158 401 115 373 82 350 c 1
 76 417 l 1
 128 446 171 461 234 461 c 0
 323 461 362 401 375 383 c 1
 411 429 466 461 527 461 c 0
 594 461 693 422 693 220 c 1
 399 220 l 1xbc
 401 202 402 118 477 70 c 0
 488 63 511 51 544 51 c 0
 609 51 651 80 682 106 c 1
 688 40 l 1
 649 10 602 -11 543 -11 c 0
 477 -11 422 18 379 66 c 1
 336 4 239 -11 159 -11 c 0
 69 -11 46 75 46 114 c 0
119 115 m 1
 120 75 160 51 211 51 c 0
 254 51 326 63 326 126 c 0
 326 133 325 139 322 191 c 1xdc
 269 190 216 184 174 169 c 0
 117 149 120 123 119 115 c 1
405 275 m 1
 634 275 l 1
 615 394 549 399 528 399 c 0xbc
 479 399 423 357 405 275 c 1
EndSplineSet
EndChar

StartChar: ecircumflex
Encoding: 234 234 246
Width: 444
Flags: HW
TeX: 638 0
HStem: -11 62<182.493 348.484> 220 55<109 357> 399 62<172.966 300.366>
VStem: 34 70<136.656 220>
DStem2: 66 509 127 509 0.660388 0.750925<40.2837 176.702> 253 650 221 608 0.660388 -0.750925<10.4064 147.485>
AnchorPoint: "below" 252 0 basechar 0
AnchorPoint: "above" 236 630 basechar 0
LayerCount: 2
Fore
SplineSet
66 509 m 1
 190 650 l 1
 253 650 l 1
 377 509 l 1
 316 509 l 1
 221 608 l 1
 127 509 l 1
 66 509 l 1
EndSplineSet
Refer: 113 101 S 1 0 0 1 -0 0 3
AlternateSubs2: "Stilistic set 01 subtable" ecircumflex.vn
AlternateSubs2: "Latin alternatives subtable" ecircumflex.vn
Substitution2: "Latin Vietnamese substitutions subtable" ecircumflex.vn
EndChar

StartChar: eth
Encoding: 240 240 252
Width: 500
Flags: HW
TeX: 722 0
HStem: -11 64<179.438 319.043> 399 62<176.341 319.91> 702 20G<98.4444 143.5 303 349.667>
VStem: 30 78<131.611 322.267> 390 79<131.669 318.865>
DStem2: 108 590 142 529 0.866622 0.498964<0 79.7555 181.36 265.186>
LayerCount: 2
Fore
SplineSet
30 220 m 0
 30 345 122 461 249 461 c 0
 289 461 318 450 350 434 c 1
 314 508 282 541 238 584 c 1
 237 584 l 1
 142 529 l 1
 108 590 l 1
 177 630 l 1
 125 658 114 664 69 677 c 1
 122 722 l 1
 165 709 206 690 240 666 c 1
 338 722 l 1
 373 662 l 1
 300 620 l 1
 382 548 469 421 469 249 c 2
 469 236 l 2
 469 182 462 139 432 91 c 0
 391 27 322 -11 249 -11 c 0
 134 -11 30 85 30 220 c 0
108 231 m 0
 108 107 182 53 249 53 c 0
 334 53 390 128 390 226 c 0
 390 324 334 399 249 399 c 0
 185 399 108 352 108 231 c 0
EndSplineSet
EndChar

StartChar: oe
Encoding: 339 339 259
Width: 778
Flags: HW
TeX: 441 0
HStem: -11 62<170.647 308.152 529.617 689.423> 220 55<460 690> 399 62<171.176 311.881 523.31 642.589>
VStem: 30 73<130.466 325.366>
AnchorPoint: "below" 390 0 basechar 0
AnchorPoint: "above" 408 461 basechar 0
LayerCount: 2
Fore
SplineSet
30 225 m 0
 30 352 122 461 241 461 c 0
 276 461 355 451 415 362 c 1
 450 420 514 461 582 461 c 0
 649 461 749 423 749 220 c 1
 455 220 l 1
 457 202 458 118 533 70 c 0
 544 63 566 51 599 51 c 0
 664 51 707 80 738 106 c 1
 744 40 l 1
 704 10 657 -11 598 -11 c 0
 562 -11 480 -2 416 90 c 1
 377 28 311 -11 241 -11 c 0
 130 -11 30 89 30 225 c 0
103 231 m 0
 103 123 161 51 241 51 c 0
 303 51 377 101 377 231 c 0
 377 340 315 399 241 399 c 0
 166 399 103 339 103 231 c 0
460 275 m 1
 690 275 l 1
 671 394 605 399 584 399 c 0
 535 399 478 357 460 275 c 1
EndSplineSet
EndChar

StartChar: oslash
Encoding: 248 248 260
Width: 500
Flags: HW
TeX: 544 97
HStem: -11 62<194.604 320.821> 399 62<177.732 305.054>
VStem: 31 75<125.335 320.219> 392 75<125.098 320.372>
DStem2: 42 -82 96 -112 0.491427 0.870919<0.409522 141.031 207.762 526.078 596.879 732.56>
LayerCount: 2
Fore
SplineSet
31 221 m 0
 31 346 123 461 249 461 c 0
 281 461 305 454 337 440 c 1
 402 556 l 1
 403 556 l 1
 456 526 l 1
 388 405 l 1
 403 390 467 332 467 221 c 0
 467 93 371 -11 249 -11 c 0
 215 -11 187 -2 163 8 c 1
 96 -112 l 1
 42 -82 l 1
 111 41 l 1
 69 77 31 140 31 221 c 0
106 220 m 0
 106 148 134 114 144 99 c 1
 306 386 l 1
 290 392 276 399 249 399 c 0
 185 399 106 349 106 220 c 0
194 62 m 1
 212 55 230 51 249 51 c 0
 319 51 392 102 392 219 c 0
 392 295 364 333 355 346 c 1
 354 346 l 1
 194 62 l 1
EndSplineSet
EndChar

StartChar: thorn
Encoding: 254 254 266
Width: 517
Flags: HW
TeX: 722 194
HStem: -195 21G<81 159> -11 61<207.958 324.565> 391 64<217.883 331.845> 702 20G<81 156>
VStem: 81 78<-195 46 83.5709 357.586 396 722> 401 79<132.352 312.221>
LayerCount: 2
Fore
SplineSet
81 -195 m 1
 81 722 l 1
 156 722 l 1
 156 396 l 1
 220 448 288 455 322 455 c 0
 417 455 480 343 480 224 c 0
 480 83 391 -11 294 -11 c 0
 235 -11 192 15 159 46 c 1
 159 -195 l 1
 81 -195 l 1
159 126 m 2
 159 102 197 50 256 50 c 0
 326 50 401 116 401 222 c 0
 401 310 347 391 265 391 c 0
 199 391 165 341 159 334 c 1
 159 126 l 2
EndSplineSet
EndChar

StartChar: germandbls
Encoding: 223 223 267
Width: 480
Flags: HW
TeX: 722 0
HStem: -11 63<252.957 361.554> 0 21G<81 156> 672 61<185.125 319.471>
VStem: 81 75<0 643.14> 212 71<276.08 397.694> 346 78<466.228 645.249> 375 71<64.475 175.446>
LayerCount: 2
Fore
SplineSet
81 0 m 1
 81 564 l 2x7c
 81 699 168 733 251 733 c 0
 331 733 424 700 424 569 c 0x7c
 424 391 310 406 298 396 c 0
 282 383 283 349 283 331 c 0
 284 259 302 283 358 263 c 0
 393 251 446 208 446 127 c 0
 446 45 401 -11 319 -11 c 0
 274 -11 241 7 212 34 c 1
 224 102 l 1
 227 99 259 52 317 52 c 0
 364 52 375 93 375 120 c 0xba
 375 133 372 170 339 186 c 0
 315 197 286 191 254 220 c 0
 224 248 212 291 212 331 c 0
 212 399 240 452 303 460 c 0
 326 463 346 456 346 565 c 0
 346 597 346 672 253 672 c 0
 154 672 156 593 156 561 c 2
 156 0 l 1
 81 0 l 1
EndSplineSet
EndChar

StartChar: grave.uc
Encoding: 65542 -1 268
Width: 500
Flags: HW
TeX: 601 0
HStem: 510 91
VStem: 65 268
LayerCount: 2
Fore
SplineSet
65 601 m 1
 165 601 l 2
 179 601 181 599 333 510 c 1
 255 510 l 2
 242 510 237 514 65 601 c 1
EndSplineSet
EndChar

StartChar: acute.uc
Encoding: 65543 -1 269
Width: 500
Flags: HW
TeX: 601 0
HStem: 510 0
VStem: 165 268
LayerCount: 2
Fore
SplineSet
165 510 m 1
 321 600 316 601 335 601 c 2
 403 601 l 1
 433 600 l 1
 275 521 l 1
 253 511 l 1
 238 510 l 1
 165 510 l 1
EndSplineSet
EndChar

StartChar: tilde.uc
Encoding: 65544 -1 270
Width: 500
Flags: HW
TeX: 631 0
HStem: 477 62<274.535 345.354> 577 62<153.682 225.082>
VStem: 83 61<477 569.963> 355 61<545.241 639>
LayerCount: 2
Fore
SplineSet
83 477 m 1
 84 602 141 639 179 639 c 0
 246 639 258 539 317 539 c 0
 354 539 355 596 355 624 c 2
 355 639 l 1
 416 639 l 1
 415 520 363 477 320 477 c 0
 254 477 242 577 182 577 c 0
 147 577 144 530 144 477 c 1
 83 477 l 1
EndSplineSet
EndChar

StartChar: ring.uc
Encoding: 65546 -1 273
Width: 687
Flags: HW
TeX: 631 0
HStem: 416 61<296.266 390.549> 578 61<296.177 390.779>
VStem: 232 56<485.325 569.21> 398 56<485.118 569.675>
LayerCount: 2
Fore
SplineSet
232 528 m 0
 232 594 286 639 343 639 c 0
 409 639 454 584 454 527 c 0
 454 470 409 416 343 416 c 0
 276 416 232 471 232 528 c 0
288 528 m 0
 288 505 298 477 342 477 c 0
 387 477 398 504 398 527 c 0
 398 550 388 578 344 578 c 0
 299 578 288 551 288 528 c 0
EndSplineSet
EndChar

StartChar: twelveudash
Encoding: 61700 61700 274
Width: 667
Flags: HW
TeX: 444 0
ItalicCorrection: 27
HStem: 244 61<0 666>
LayerCount: 2
Fore
SplineSet
0 244 m 1
 0 305 l 1
 666 305 l 1
 666 244 l 1
 0 244 l 1
EndSplineSet
EndChar

StartChar: threequartersemdash
Encoding: 63198 63198 275
Width: 750
Flags: HW
TeX: 444 0
ItalicCorrection: 27
HStem: 244 61<0 750>
LayerCount: 2
Fore
SplineSet
0 244 m 1
 0 305 l 1
 750 305 l 1
 750 244 l 1
 0 244 l 1
EndSplineSet
EndChar

StartChar: arrowleft
Encoding: 8592 8592 276
Width: 1000
Flags: HW
TeX: 369 -129
HStem: -10 21G<247.5 297> 230 40<159 941.951>
VStem: 257 40<-10 57.302 442.698 510>
LayerCount: 2
Fore
SplineSet
55 250 m 1
 161 297 238 396 257 510 c 1
 297 510 l 1
 288 452 258 355 159 270 c 1
 906 270 l 2
 925 270 942 270 942 251 c 0
 942 232 927 230 914 230 c 2
 159 230 l 1
 222 180 281 92 297 -10 c 1
 257 -10 l 1
 238 104 161 203 55 250 c 1
EndSplineSet
EndChar

StartChar: arrowright
Encoding: 8594 8594 277
Width: 1000
Flags: HW
TeX: 369 -129
HStem: -10 21G<701 750.5> 230 40<56.0549 840>
VStem: 701 40<-10 57.302 442.698 510>
LayerCount: 2
Fore
SplineSet
56 249 m 0
 56 266 69 270 84 270 c 2
 840 270 l 1
 777 320 717 408 701 510 c 1
 741 510 l 1
 760 396 837 297 943 250 c 1
 837 203 760 104 741 -10 c 1
 701 -10 l 1
 710 48 741 145 840 230 c 1
 88 230 l 2
 75 230 56 230 56 249 c 0
EndSplineSet
EndChar

StartChar: uni0361.alt
Encoding: 61701 61701 278
Width: 239
Flags: HW
TeX: 722 0
ItalicCorrection: 288
HStem: 627 64<190.186 408.423>
VStem: 80 78<568 599.764> 440 79<568 598.413>
LayerCount: 2
Fore
SplineSet
80 568 m 1
 84 639 176 691 299 691 c 0
 420 691 497 641 514 594 c 0
 517 586 518 577 519 568 c 1
 440 568 l 1
 430 621 331 627 299 627 c 0
 248 627 166 615 158 568 c 1
 80 568 l 1
EndSplineSet
EndChar

StartChar: uni0361
Encoding: 865 865 279
Width: 0
Flags: HW
TeX: 971 0
ItalicCorrection: 316
HStem: 575 64<-72.1873 137.591>
VStem: -215 78<477 523.67> 201 79<477 522.864>
AnchorPoint: "affricate-above" 32 461 mark 0
LayerCount: 2
Fore
SplineSet
-215 477 m 1
 -211 585 -81 639 32 639 c 0
 145 639 276 586 280 477 c 1
 201 477 l 1
 195 544 109 575 33 575 c 0
 -61 575 -118 535 -132 499 c 0
 -135 492 -136 485 -137 477 c 1
 -215 477 l 1
EndSplineSet
EndChar

StartChar: uni2040.alt
Encoding: 61702 61702 280
Width: 461
Flags: HW
TeX: 722 0
ItalicCorrection: 288
HStem: 627 64<159.885 299.097>
VStem: 60 78<568 603.768> 320 79<568 605.716>
LayerCount: 2
Fore
SplineSet
60 568 m 1
 64 651 152 691 229 691 c 0
 324 691 396 639 399 568 c 1
 320 568 l 1
 314 614 264 627 229 627 c 0
 198 627 144 614 138 568 c 1
 60 568 l 1
EndSplineSet
EndChar

StartChar: uni2040
Encoding: 8256 8256 281
Width: 461
Flags: HW
TeX: 722 0
ItalicCorrection: 316
HStem: 575 64<138.549 320.14>
VStem: 5 78<477 527.599> 376 79<477 525.371>
LayerCount: 2
Fore
SplineSet
5 477 m 1
 9 573 109 639 230 639 c 0
 357 639 452 567 455 477 c 1
 376 477 l 1
 371 546 293 575 229 575 c 0
 168 575 88 546 83 477 c 1
 5 477 l 1
EndSplineSet
EndChar

StartChar: uni2422
Encoding: 9250 9250 282
Width: 517
Flags: HW
TeX: 722 0
HStem: -11 61<208.906 329.37> 0 21G<81 160> 394 61<215.943 334.849> 687 20G<261.296 302.021> 702 20G<81 157>
VStem: 81 79<0 46 83.7286 361.154 397 454 599 722> 402 78<126.734 321.22>
DStem2: -20 448 20 401 0.762248 0.647286<0.0674774 80.8707 232.658 400.132>
LayerCount: 2
Fore
SplineSet
-20 448 m 1
 81 534 l 1
 81 722 l 1
 157 722 l 1x6e
 157 599 l 1
 285 707 l 1x36
 325 660 l 1
 157 518 l 1
 157 397 l 1
 221 448 285 455 316 455 c 0
 415 455 480 344 480 224 c 0
 480 85 392 -11 294 -11 c 0xb6
 235 -11 194 15 160 46 c 1
 160 0 l 1
 81 0 l 1
 81 454 l 1
 20 401 l 1
 -20 448 l 1
159 320 m 0
 159 316 160 312 160 308 c 2
 160 133 l 2
 160 107 163 109 176 90 c 1
 199 62 229 50 258 50 c 0xa6
 315 50 402 92 402 223 c 0
 402 356 320 394 266 394 c 0
 214 394 159 357 159 320 c 0
EndSplineSet
EndChar

StartChar: quotesingle
Encoding: 39 39 283
Width: 278
Flags: HW
TeX: 722 0
HStem: 702 20G<99 177>
VStem: 99 78<465 722> 107 62<363 677.125>
LayerCount: 2
Fore
SplineSet
99 722 m 1
 177 722 l 1xc0
 171 465 l 1
 169 363 l 1
 169 362 l 1xa0
 108 362 l 1
 107 363 l 1xa0
 99 722 l 1
EndSplineSet
EndChar

StartChar: fraction
Encoding: 8260 8260 286
Width: 500
Flags: HW
TeX: 749 249
DStem2: 59 -215 437 709 0.341663 0.939823<-14.9018 1018.08>
LayerCount: 2
Fore
SplineSet
56 -230 m 0
 56 -225 57 -220 59 -215 c 2
 400 723 l 2
 405 735 410 749 424 749 c 0
 434 749 443 740 443 729 c 0
 443 722 439 715 437 709 c 2
 99 -222 l 2
 96 -231 91 -249 75 -249 c 0
 66 -249 56 -242 56 -230 c 0
EndSplineSet
EndChar

StartChar: zerooldstyle
Encoding: 63280 63280 287
Width: 500
Flags: HW
TeX: 444 0
HStem: -22 61<175.398 323.724> 405 62<170.873 326.325>
VStem: 41 78<100.036 347.864> 380 78<101.188 349.44>
LayerCount: 2
Fore
SplineSet
41 204 m 2
 41 216 l 2
 41 312 59 467 250 467 c 0
 350 467 458 422 458 219 c 0
 458 29 357 -22 249 -22 c 0
 143 -22 41 28 41 204 c 2
119 227 m 0
 120 164 119 39 250 39 c 0
 380 39 378 167 380 215 c 1
 380 241 l 1
 379 288 380 405 249 405 c 0
 116 405 119 285 119 227 c 0
EndSplineSet
EndChar

StartChar: oneoldstyle
Encoding: 63281 63281 288
Width: 500
Flags: HW
TeX: 444 0
HStem: -0 59<95 220 300 425> 341 59<90 218.267> 425 20G<249.5 300>
VStem: 220 80<59 357>
LayerCount: 2
Fore
SplineSet
90 341 m 1
 90 400 l 1
 152 400 219 404 280 445 c 1
 300 445 l 1
 300 59 l 1
 425 59 l 1
 425 -0 l 1
 95 -0 l 1
 95 59 l 1
 220 59 l 1
 220 357 l 1
 183 346 148 341 90 341 c 1
EndSplineSet
EndChar

StartChar: twooldstyle
Encoding: 63282 63282 289
Width: 500
Flags: HW
TeX: 444 0
HStem: 0 70<119 449> 402 65<144.299 316.025>
VStem: 366 83<243.9 358.78>
LayerCount: 2
Fore
SplineSet
41 358 m 1
 87 434 149 467 235 467 c 0
 359 467 449 402 449 304 c 0
 449 211 344 192 257 148 c 0
 243 141 229 133 119 70 c 1
 449 70 l 1
 449 0 l 1
 44 0 l 1
 44 65 l 1
 160 134 174 143 189 151 c 0
 259 188 366 215 366 302 c 0
 366 367 301 402 223 402 c 0
 145 402 112 360 93 311 c 1
 41 358 l 1
EndSplineSet
EndChar

StartChar: threeoldstyle
Encoding: 63283 63283 290
Width: 500
Flags: HW
TeX: 444 194
HStem: -217 62<147.929 313.716> 120 61<166 277.699> 408 59<166.15 312.722>
VStem: 347 82<246.411 375.321> 367 90<-98.7051 61.4906>
LayerCount: 2
Fore
SplineSet
41 -118 m 1
 52 -57 l 1
 125 -150 217 -155 245 -155 c 0
 319 -155 367 -96 367 -18 c 0xe8
 367 52 328 120 240 120 c 2
 166 120 l 1
 166 181 l 1
 242 187 246 187 269 197 c 0
 308 215 347 259 347 317 c 0
 347 373 303 408 246 408 c 0
 193 408 140 380 108 335 c 0
 102 326 97 316 92 307 c 1
 55 361 l 1
 71 383 81 399 108 420 c 0
 148 451 198 467 248 467 c 0
 350 467 429 399 429 317 c 0xf0
 429 203 321 151 319 150 c 1
 403 125 457 56 457 -18 c 0
 457 -116 376 -217 246 -217 c 0
 183 -217 106 -195 41 -118 c 1
EndSplineSet
EndChar

StartChar: fouroldstyle
Encoding: 63284 63284 291
Width: 500
Flags: HW
TeX: 444 194
HStem: 0 61<107 292 372 471> 425 20G<264.893 372>
VStem: 298 74<-217 0 61 407>
LayerCount: 2
Fore
SplineSet
27 0 m 1
 27 62 l 1
 278 445 l 1
 372 445 l 1
 372 61 l 1
 471 61 l 1
 471 0 l 1
 372 0 l 1
 372 -217 l 1
 292 -217 l 1
 292 0 l 1
 27 0 l 1
107 61 m 1
 298 61 l 1
 298 407 l 1
 286 345 256 291 107 61 c 1
EndSplineSet
EndChar

StartChar: fiveoldstyle
Encoding: 63285 63285 292
Width: 500
Flags: HW
TeX: 444 194
HStem: -217 62<150.12 298.501> 161 62<191.981 314.154> 380 65<153 416>
VStem: 80 73<83 123.453 182 380> 360 89<-90.8716 106.156>
LayerCount: 2
Fore
SplineSet
50 -120 m 1
 84 -65 l 1
 127 -143 196 -155 229 -155 c 0
 282 -155 360 -122 360 5 c 0
 360 116 310 161 257 161 c 0
 229 161 178 150 147 83 c 1
 80 83 l 1
 80 445 l 1
 416 445 l 1
 416 380 l 1
 153 380 l 1
 153 182 l 1
 160 187 196 223 260 223 c 0
 369 223 449 120 449 4 c 0
 449 -125 345 -217 230 -217 c 0
 144 -217 82 -168 50 -120 c 1
EndSplineSet
EndChar

StartChar: sevenoldstyle
Encoding: 63287 63287 294
Width: 500
Flags: HW
TeX: 444 194
HStem: 374 71<41 389>
VStem: 151 85<-205 -21.7031>
LayerCount: 2
Fore
SplineSet
41 374 m 1
 41 445 l 1
 457 445 l 1
 457 380 l 1
 311 216 236 1 236 -205 c 1
 151 -205 l 1
 151 55 270 254 389 375 c 1
 339 374 l 1
 41 374 l 1
EndSplineSet
EndChar

StartChar: nineoldstyle
Encoding: 63289 63289 296
Width: 500
Flags: HW
TeX: 444 194
HStem: -217 62<125.757 275.932> -8 62<176.563 295.68> 408 59<184.714 310.393>
VStem: 42 82<113.439 337.379> 371 86<53.1985 265.813>
LayerCount: 2
Fore
SplineSet
42 227 m 0
 42 300 61 350 107 400 c 0
 149 446 194 467 252 467 c 0
 334 467 457 413 457 130 c 0
 457 67 447 -9 406 -82 c 0
 390 -111 325 -217 205 -217 c 0
 152 -217 116 -203 72 -172 c 1
 103 -118 l 1
 116 -127 149 -155 205 -155 c 0
 306 -155 362 -53 373 74 c 1
 327 21 270 -8 203 -8 c 0
 152 -8 122 16 96 51 c 0
 55 107 42 161 42 227 c 0
124 229 m 0
 124 181 126 121 174 78 c 0
 193 61 218 54 243 54 c 0
 320 54 371 126 371 205 c 0
 371 214 371 221 370 230 c 1
 372 230 l 1
 367 299 342 408 252 408 c 0
 176 408 139 342 129 295 c 0
 124 273 124 252 124 229 c 0
EndSplineSet
EndChar

StartChar: angleleft
Encoding: 9001 9001 297
Width: 389
Flags: HW
TeX: 749 249
DStem2: 114 265 157 264 0.35447 0.935067<-14.87 511.861> 327 -212 114 235 0.35447 -0.935067<-508.347 17.0496>
LayerCount: 2
Fore
SplineSet
111 250 m 0
 111 255 112 260 114 265 c 2
 288 724 l 2
 293 736 298 749 312 749 c 0
 322 749 332 741 332 730 c 0
 332 725 330 720 328 715 c 2
 157 264 l 2
 153 254 152 251 157 237 c 2
 327 -212 l 2
 328 -216 331 -223 331 -229 c 0
 331 -239 324 -249 312 -249 c 0
 298 -249 293 -236 288 -224 c 2
 114 235 l 2
 112 240 111 245 111 250 c 0
EndSplineSet
EndChar

StartChar: minus
Encoding: 8722 8722 298
Width: 778
Flags: HW
TeX: 577 83
HStem: 220 61<57.272 719.672>
LayerCount: 2
Fore
SplineSet
56 250 m 0
 56 263 62 281 96 281 c 2
 681 281 l 2
 716 281 721 260 721 250 c 0
 721 242 717 220 684 220 c 2
 93 220 l 2
 59 220 56 243 56 250 c 0
EndSplineSet
EndChar

StartChar: angleright
Encoding: 9002 9002 299
Width: 389
Flags: HW
TeX: 749 249
VStem: 234 43<193.172 306.047>
DStem2: 103 712 60 713 0.355218 -0.934784<-37.1874 478.185> 230 236 273 235 0.355146 0.934811<-500.208 14.289>
LayerCount: 2
Fore
SplineSet
56 -230 m 1
 56 -222 58 -216 61 -209 c 2
 230 236 l 2
 232 241 234 245 234 250 c 0
 234 255 233 259 231 263 c 2
 60 713 l 2
 58 718 57 723 56 729 c 1
 56 734 l 1
 63 750 71 749 77 749 c 1
 93 745 95 732 103 712 c 2
 273 265 l 2
 275 260 277 255 277 250 c 0
 277 245 275 240 273 235 c 2
 99 -223 l 2
 92 -242 90 -241 87 -245 c 1
 84 -246 79 -249 75 -249 c 0
 58 -249 56 -230 56 -230 c 1
EndSplineSet
EndChar

StartChar: uni2127
Encoding: 8487 8487 300
Width: 722
Flags: HW
TeX: 694 0
HStem: -22 61<259.071 460.595> 624 70<44 218 503 677>
VStem: 55 89<145.489 334.55> 576 90<145.306 334.676>
LayerCount: 2
Fore
SplineSet
44 623 m 1
 44 694 l 1
 289 694 l 1
 287 524 144 395 144 233 c 0
 144 116 244 39 360 39 c 0
 476 39 576 117 576 233 c 0
 576 395 434 525 432 694 c 1
 677 694 l 1
 677 623 l 1
 634 623 l 1
 613 624 l 1
 503 624 l 1
 543 484 666 375 666 232 c 0
 666 94 533 -22 360 -22 c 0
 185 -22 55 96 55 232 c 0
 55 375 178 483 218 624 c 1
 108 624 l 1
 86 623 l 1
 44 623 l 1
EndSplineSet
EndChar

StartChar: circle
Encoding: 9675 9675 301
Width: 1111
Flags: HW
TeX: 749 249
HStem: -272 40<431.47 677.085> 732 40<431.394 676.666>
VStem: 55 40<116.13 382.976> 1014 40<116.327 384.734>
LayerCount: 2
Fore
SplineSet
55 250 m 0
 55 547 286 772 555 772 c 0
 820 772 1054 548 1054 250 c 0
 1054 -48 822 -272 554 -272 c 0
 287 -272 55 -46 55 250 c 0
95 250 m 0
 95 -24 309 -232 553 -232 c 0
 804 -232 1014 -21 1014 250 c 0
 1014 527 797 732 556 732 c 0
 303 732 95 518 95 250 c 0
EndSplineSet
EndChar

StartChar: uni301A
Encoding: 12314 12314 303
Width: 403
Flags: HW
TeX: 749 249
HStem: -250 40<158 243 283 380> 710 40<158 243 283 380>
VStem: 118 40<-210 710> 243 40<-210 710>
LayerCount: 2
Fore
SplineSet
118 -250 m 1
 118 750 l 1
 380 750 l 1
 380 710 l 1
 283 710 l 1
 283 -210 l 1
 380 -210 l 1
 380 -250 l 1
 118 -250 l 1
158 -210 m 1
 243 -210 l 1
 243 710 l 1
 158 710 l 1
 158 -210 l 1
EndSplineSet
EndChar

StartChar: uni301B
Encoding: 12315 12315 304
Width: 403
Flags: HW
TeX: 749 249
HStem: -250 40<22 119 159 244> 710 40<22 119 159 244>
VStem: 119 40<-210 710> 244 40<-210 710>
LayerCount: 2
Fore
SplineSet
22 -210 m 1
 119 -210 l 1
 119 710 l 1
 22 710 l 1
 22 750 l 1
 284 750 l 1
 284 -250 l 1
 22 -250 l 1
 22 -210 l 1
159 -210 m 1
 244 -210 l 1
 244 710 l 1
 159 710 l 1
 159 -210 l 1
EndSplineSet
EndChar

StartChar: arrowup
Encoding: 8593 8593 305
Width: 500
Flags: HW
TeX: 722 222
HStem: 442 40<28 82.447> 701 20G<243 258>
VStem: 230 40<-221.985 583> 249 1<640 721>
LayerCount: 2
Fore
SplineSet
28 442 m 1
 28 482 l 1
 63 492 84 499 120 522 c 0
 189 567 237 640 249 721 c 1
 250 721 l 1xd0
 266 617 339 527 441 491 c 1
 472 482 l 1
 472 442 l 1
 351 472 300 543 270 583 c 1
 270 -187 l 2xe0
 270 -202 268 -222 250 -222 c 0xd0
 231 -222 230 -205 230 -194 c 2
 230 551 l 1xe0
 229 583 l 1
 184 513 115 463 28 442 c 1
EndSplineSet
EndChar

StartChar: arrowdown
Encoding: 8595 8595 306
Width: 500
Flags: HW
TeX: 722 222
HStem: 18 40<28 79.987 417.43 472> 702 20G<240 257>
VStem: 230 40<-169 -114.714 -83 721.945> 249 1<-221 -218.475>
LayerCount: 2
Fore
SplineSet
28 18 m 1
 28 58 l 1
 150 28 201 -43 230 -83 c 1
 230 690 l 2xe0
 230 703 231 722 249 722 c 0xd0
 265 722 270 709 270 694 c 2
 270 -83 l 1
 315 -13 385 37 472 58 c 1
 472 18 l 1
 383 -5 319 -57 280 -131 c 0
 269 -152 270 -154 270 -169 c 1xe0
 263 -169 l 1
 258 -186 253 -203 250 -221 c 1
 249 -221 l 1xd0
 246 -203 242 -186 237 -169 c 1
 230 -169 l 1xe0
 230 -121 160 -17 28 18 c 1
EndSplineSet
EndChar

StartChar: grave.ts1
Encoding: 61703 61703 307
Width: 500
Flags: HW
TeX: 722 0
HStem: 537 185
VStem: 83 211
LayerCount: 2
Fore
SplineSet
83 722 m 1
 161 722 l 1
 294 537 l 1
 233 537 l 1
 83 722 l 1
EndSplineSet
EndChar

StartChar: uni22C6
Encoding: 8902 8902 308
Width: 500
Flags: HW
TeX: 472 -27
VStem: 250 1<442.875 491>
LayerCount: 2
Fore
SplineSet
-2 309 m 1
 218 271 l 1
 250 491 l 1
 251 491 l 1
 283 271 l 1
 474 304 l 1
 503 308 l 1
 303 210 l 1
 407 12 l 1
 251 171 l 1
 250 171 l 1
 95 12 l 1
 198 210 l 1
 -2 309 l 1
EndSplineSet
EndChar

StartChar: uni26AE
Encoding: 9902 9902 309
Width: 500
Flags: HW
TeX: 472 -27
HStem: 28 70<-80.4897 41.3018 460.214 580.025> 402 70<-80.0252 38.6766 458.763 580.49>
VStem: -201 70<154.795 346.183> 89 76<150.089 348.981> 211 78<-114 614> 336 76<150.576 349.911> 631 70<153.817 345.205>
LayerCount: 2
Fore
SplineSet
-201 250 m 0
 -201 370 -122 472 -20 472 c 0
 77 472 165 379 165 250 c 0
 165 118 73 28 -19 28 c 0
 -115 28 -201 122 -201 250 c 0
-131 251 m 0
 -131 132 -64 98 -20 98 c 0
 23 98 89 124 89 254 c 0
 89 370 23 402 -20 402 c 0
 -64 402 -131 368 -131 251 c 0
211 -114 m 1
 211 614 l 1
 289 614 l 1
 289 -114 l 1
 211 -114 l 1
336 250 m 0
 336 382 426 472 519 472 c 0
 615 472 701 378 701 250 c 0
 701 130 622 28 520 28 c 0
 416 28 336 130 336 250 c 0
412 246 m 0
 412 130 477 98 520 98 c 0
 564 98 631 132 631 249 c 0
 631 368 564 402 520 402 c 0
 477 402 412 376 412 246 c 0
EndSplineSet
EndChar

StartChar: uni271D
Encoding: 10013 10013 310
Width: 500
Flags: HW
TeX: 631 27
HStem: 366 66<55 210 289 444>
VStem: 210 79<-28 366 432 625>
LayerCount: 2
Fore
SplineSet
55 364 m 1
 55 434 l 1
 210 432 l 1
 210 625 l 1
 289 625 l 1
 289 432 l 1
 444 434 l 1
 444 364 l 1
 289 366 l 1
 289 -28 l 1
 210 -28 l 1
 210 366 l 1
 55 364 l 1
EndSplineSet
EndChar

StartChar: leaf
Encoding: 61704 61704 311
Width: 1000
Flags: HW
TeX: 722 0
HStem: -47 24<99.0602 355.515> 169 24<288 733> 385 24<588 902> 745 24<644.458 903.534>
VStem: 239 24<204 526> 538 24<421 708>
DStem2: 14 24 28 5 0.810122 0.586261<0.202741 277.252 321.052 646.697 690.721 1183.39>
LayerCount: 2
Fore
SplineSet
-11 6 m 1
 -6 398 320 769 775 769 c 0
 848 769 926 756 989 738 c 0
 1002 734 1011 733 1012 716 c 1
 1004 303 663 -47 228 -47 c 0
 141 -47 85 -35 11 -16 c 0
 -1 -12 -10 -10 -11 6 c 1
14 24 m 1
 239 186 l 1
 239 526 l 1
 137 429 41 270 18 76 c 1
 14 24 l 1
28 5 m 1
 93 -13 162 -23 230 -23 c 0
 460 -23 637 82 733 169 c 1
 265 169 l 2
 258 169 254 168 243 160 c 0
 71 36 49 21 28 5 c 1
263 204 m 1
 538 403 l 1
 538 708 l 1
 537 708 l 1
 469 683 383 654 263 550 c 1
 263 204 l 1
288 193 m 1
 759 193 l 1
 834 268 882 343 902 385 c 1
 554 385 l 1
 288 193 l 1
562 421 m 1
 973 718 l 1
 907 736 839 745 771 745 c 0
 703 745 626 735 562 715 c 1
 562 421 l 1
588 409 m 1
 914 409 l 1
 969 520 982 622 987 698 c 1
 588 409 l 1
EndSplineSet
EndChar

StartChar: uni26AD
Encoding: 9901 9901 312
Width: 500
Flags: HW
TeX: 472 -27
HStem: 28 70<46.7138 201.386 300.379 454.317> 402 70<46.1134 201.237 300.093 453.443>
VStem: -90 70<165.679 334.984> 162 75<181.38 318.974> 263 76<180.632 319.023> 520 70<165.016 334.527>
LayerCount: 2
Fore
SplineSet
-90 250 m 0
 -90 379 12 472 124 472 c 0
 175 472 213 456 250 430 c 1
 279 452 323 472 377 472 c 0
 489 472 590 380 590 250 c 0
 590 121 489 28 377 28 c 0
 325 28 283 46 250 70 c 1
 221 48 177 28 123 28 c 0
 10 28 -90 121 -90 250 c 0
-20 250 m 0
 -20 160 39 98 123 98 c 0
 157 98 180 108 202 120 c 1
 185 148 162 186 162 250 c 0
 162 313 184 349 202 380 c 1
 175 396 153 402 123 402 c 0
 40 402 -20 343 -20 250 c 0
237 250 m 0
 237 226 241 203 250 180 c 1
 259 207 263 224 263 250 c 0
 263 277 259 292 250 320 c 1
 241 297 237 274 237 250 c 0
299 120 m 1
 326 104 347 98 377 98 c 0
 460 98 520 157 520 250 c 0
 520 340 462 402 378 402 c 0
 344 402 321 392 299 380 c 1
 317 350 339 313 339 250 c 0
 339 187 316 148 299 120 c 1
EndSplineSet
EndChar

StartChar: musicalnote
Encoding: 9834 9834 313
Width: 611
Flags: HW
TeX: 722 0
HStem: -31 260<134.041 306.89> 701 20G<363 383>
VStem: 346 67<516.443 646.243> 346 40<190 515> 516 39<110.024 244.984>
LayerCount: 2
Fore
SplineSet
55 108 m 0
 55 194 148 229 220 229 c 0
 296 229 336 197 346 190 c 1
 346 692 l 2xd8
 346 718 360 721 366 721 c 0
 400 721 372 679 413 559 c 0xe8
 456 432 555 279 555 137 c 0
 555 118 546 110 536 110 c 0
 528 110 519 116 516 125 c 0
 509 147 527 192 458 350 c 1
 412 452 l 1
 386 515 l 1
 386 136 l 2
 386 93 385 77 373 54 c 0
 347 3 287 -31 221 -31 c 0xd8
 135 -31 55 25 55 108 c 0
EndSplineSet
EndChar

StartChar: tildelow
Encoding: 61705 61705 314
Width: 611
Flags: HW
TeX: 126 0
HStem: 0 62<329.512 448.316> 65 62<161.247 280.646>
VStem: 83 61<0 48.0167> 466 61<79.2536 127>
LayerCount: 2
Fore
SplineSet
83 0 m 1
 86 81 148 127 210 127 c 0
 280 127 335 62 399 62 c 0
 433 62 463 84 466 127 c 1
 527 127 l 1
 525 54 471 0 401 0 c 0
 330 0 275 65 211 65 c 0
 192 65 148 56 144 0 c 1
 83 0 l 1
EndSplineSet
EndChar

StartChar: breve.ts1
Encoding: 61707 61707 316
Width: 611
Flags: HW
TeX: 722 0
HStem: 526 67<214.033 396.297> 702 20G<80 143 466 530>
VStem: 80 61<659.206 722> 468 62<657.898 722>
LayerCount: 2
Fore
SplineSet
80 722 m 1
 141 722 l 1
 145 635 228 593 305 593 c 0
 377 593 464 632 468 722 c 1
 530 722 l 1
 527 597 415 526 305 526 c 0
 195 526 83 597 80 722 c 1
EndSplineSet
EndChar

StartChar: caron.ts1
Encoding: 61708 61708 317
Width: 611
Flags: HW
TeX: 722 0
HStem: 490 255
DStem2: 194 745 133 745 0.483894 -0.875127<0 219.111> 305 556 336 490 0.483894 0.875127<0 219.111>
LayerCount: 2
Fore
SplineSet
133 745 m 1
 194 745 l 1
 305 556 l 1
 416 745 l 1
 477 745 l 1
 336 490 l 1
 274 490 l 1
 133 745 l 1
EndSplineSet
EndChar

StartChar: hungarumlaut.ts1
Encoding: 61709 61709 318
Width: 500
Flags: HW
TeX: 722 0
HStem: 537 185
VStem: 108 308
LayerCount: 2
Fore
SplineSet
108 537 m 1
 172 722 l 1
 250 722 l 1
 169 537 l 1
 108 537 l 1
274 537 m 1
 338 722 l 1
 416 722 l 1
 336 537 l 1
 274 537 l 1
EndSplineSet
EndChar

StartChar: dblgrave.ts1
Encoding: 61710 61710 319
Width: 500
Flags: HW
TeX: 722 0
HStem: 537 185
VStem: 83 308
LayerCount: 2
Fore
SplineSet
83 722 m 1
 161 722 l 1
 225 537 l 1
 163 537 l 1
 83 722 l 1
249 722 m 1
 328 722 l 1
 391 537 l 1
 330 537 l 1
 249 722 l 1
EndSplineSet
EndChar

StartChar: dagger
Encoding: 8224 8224 320
Width: 444
Flags: HW
TeX: 722 194
HStem: 405 78<59.2297 195.44 247.598 384.065> 713 20G<216 228.5>
VStem: 183 78<-217 411.247 476.077 728.992>
LayerCount: 2
Fore
SplineSet
55 444 m 0
 55 458 64 483 97 483 c 0
 134 483 154 475 198 470 c 1
 189 600 183 644 183 687 c 0
 183 727 210 733 222 733 c 0
 235 733 261 727 261 688 c 0
 261 644 255 601 246 470 c 1
 280 473 320 484 346 484 c 0
 380 484 388 458 388 445 c 0
 388 430 380 405 346 405 c 0
 330 405 279 414 246 419 c 1
 252 349 261 285 261 208 c 2
 261 -217 l 1
 183 -217 l 1
 183 208 l 1
 184 314 181 250 197 419 c 1
 164 414 113 405 98 405 c 0
 64 405 55 431 55 444 c 0
EndSplineSet
EndChar

StartChar: daggerdbl
Encoding: 8225 8225 321
Width: 444
Flags: HW
TeX: 722 194
HStem: -10 78<59.2297 195.44 247.56 384.065> 459 79<59.2297 195.44 247.56 384.065> 713 20G<205 227.5>
VStem: 183 78<-201.454 0.775902 57.5752 259.309 267.685 469.73 527.407 729.309>
LayerCount: 2
Fore
SplineSet
55 29 m 0
 55 44 64 68 98 68 c 0
 114 68 164 60 197 55 c 1
 194 105 183 178 183 216 c 0
 183 258 209 263 222 263 c 0
 234 263 261 258 261 218 c 0
 260 161 250 110 246 55 c 1
 279 60 330 68 346 68 c 0
 380 68 388 44 388 29 c 0
 388 16 380 -10 346 -10 c 0
 330 -10 279 -1 246 4 c 1
 251 -65 261 -120 261 -155 c 0
 261 -182 253 -205 221 -205 c 0
 209 -205 183 -200 183 -160 c 0
 184 -103 193 -51 197 4 c 1
 164 -1 113 -10 98 -10 c 0
 64 -10 55 16 55 29 c 0
55 499 m 0
 55 512 64 538 98 538 c 0
 114 538 164 529 197 524 c 1
 192 597 183 650 183 683 c 0
 183 705 188 733 222 733 c 0
 233 733 261 728 261 688 c 0
 260 631 250 579 246 524 c 1
 279 529 330 538 346 538 c 0
 380 538 388 513 388 498 c 0
 388 485 380 459 346 459 c 0
 330 459 279 468 246 473 c 1
 251 403 261 349 261 315 c 0
 261 288 253 264 221 264 c 0
 209 264 183 270 183 310 c 0
 184 367 193 418 197 473 c 1
 164 468 113 459 98 459 c 0
 64 459 55 484 55 499 c 0
EndSplineSet
EndChar

StartChar: uni2016
Encoding: 8214 8214 322
Width: 500
Flags: HW
TeX: 749 249
VStem: 175 40<-248.997 748.966> 285 40<-248.972 748.996>
LayerCount: 2
Fore
SplineSet
175 -220 m 2
 175 720 l 2
 175 744 188 749 196 749 c 0
 203 749 215 745 215 720 c 2
 215 -220 l 2
 215 -245 202 -249 195 -249 c 0
 187 -249 175 -245 175 -220 c 2
285 -220 m 2
 285 720 l 2
 285 744 297 749 305 749 c 0
 312 749 325 745 325 720 c 2
 325 -220 l 2
 325 -245 311 -249 304 -249 c 0
 296 -249 285 -245 285 -220 c 2
EndSplineSet
EndChar

StartChar: perthousand
Encoding: 8240 8240 323
Width: 1166
Flags: HW
TeX: 749 27
HStem: 299 62<600.159 676.388 933.363 1009.63> 688 62<156.076 232.281>
VStem: 55 75<450.927 657.389> 263 70<458.645 652.913> 499 75<61.9268 268.389> 707 70<69.6445 262.076> 832 75<61.9268 267.532> 1040 70<69.6445 264.979>
DStem2: 185 13 221 -5 0.515018 0.857179<-21.4531 857.875>
LayerCount: 2
Fore
SplineSet
832 167 m 0
 832 274 895 361 972 361 c 0
 1046 361 1110 277 1110 166 c 0
 1110 58 1047 -28 972 -28 c 0
 902 -28 832 49 832 167 c 0
907 159 m 2
 907 56 948 40 965 35 c 1
 975 34 l 1
 1009 37 1040 89 1040 167 c 0
 1040 237 1015 298 969 299 c 1
 940 296 907 265 907 167 c 2
 907 159 l 2
EndSplineSet
Refer: 49 37 S 1 0 0 1 0 0 2
EndChar

StartChar: bullet
Encoding: 8226 8226 324
Width: 500
Flags: HW
TeX: 444 -55
HStem: 56 388<161.032 335.054>
VStem: 55 388<163.34 336.494>
LayerCount: 2
Fore
SplineSet
55 250 m 0
 55 353 137 444 249 444 c 0
 364 444 443 350 443 250 c 0
 443 137 351 56 249 56 c 0
 133 56 55 150 55 250 c 0
EndSplineSet
EndChar

StartChar: uni2103
Encoding: 8451 8451 325
Width: 861
Flags: HW
TeX: 694 0
HStem: -22 64<528.226 737.635> 472 41<61.1015 159.62> 652 64<526.297 725.983> 654 40<62.7459 158.462>
VStem: 0 40<534.431 631.22> 181 41<533.594 632.358> 288 90<223.029 473.934>
LayerCount: 2
Fore
SplineSet
0 583 m 0
 0 644 50 694 111 694 c 0
 176 694 222 641 222 584 c 0
 222 523 172 472 111 472 c 0
 46 472 0 526 0 583 c 0
40 583 m 0
 40 547 69 513 111 513 c 0
 149 513 181 542 181 583 c 0
 181 623 148 654 111 654 c 0xde
 73 654 40 624 40 583 c 0
288 347 m 0
 288 575 459 716 601 716 c 0
 665 716 710 715 799 682 c 1
 785 599 l 1
 736 629 693 652 614 652 c 0
 481 652 378 516 378 348 c 0xee
 378 177 481 42 617 42 c 0
 720 42 754 71 804 103 c 1
 810 33 l 1
 740 -9 700 -22 616 -22 c 0
 419 -22 288 155 288 347 c 0
EndSplineSet
EndChar

StartChar: dollaroldstyle
Encoding: 63268 63268 326
Width: 611
Flags: HW
TeX: 749 27
HStem: -10 65<279 330> -4 66<145.092 221> 662 65<389 461.37> 668 64<279 330>
VStem: 55 73<492.603 606.644> 221 58<-28 -10 62 336 445 655 732 750> 330 59<-28 -10 70 305 415 662 733 750> 481 73<124.839 252.353>
LayerCount: 2
Fore
SplineSet
44 61 m 1
 56 130 l 1
 109 98 152 75 221 62 c 1x4f
 221 351 l 1
 154 369 55 429 55 536 c 0
 55 610 113 693 221 722 c 1
 221 750 l 1
 279 750 l 1
 279 732 l 1x5f
 330 733 l 1
 330 750 l 1
 389 750 l 1
 389 727 l 1
 450 717 496 696 538 675 c 1
 526 609 l 1
 473 638 440 652 389 662 c 1
 389 400 l 1
 491 370 554 287 554 201 c 0
 554 121 499 36 389 1 c 1
 389 -28 l 1
 330 -28 l 1
 330 -10 l 1
 308 -11 l 1
 279 -10 l 1xaf
 279 -28 l 1
 221 -28 l 1
 221 -4 l 1
 217 0 149 -1 44 61 c 1
128 549 m 0
 128 486 191 457 221 445 c 1
 221 655 l 1
 220 655 l 1
 199 646 128 615 128 549 c 0
279 55 m 1x8f
 287 54 294 54 302 54 c 0
 311 54 321 54 330 55 c 1
 330 323 l 1
 280 336 l 1
 279 297 l 1
 279 55 l 1x8f
279 428 m 1
 330 415 l 1
 330 668 l 1
 301 669 l 1
 279 668 l 1x1f
 279 428 l 1
389 70 m 1
 429 86 481 126 481 188 c 0x0f
 481 258 418 291 389 305 c 1
 389 70 l 1
EndSplineSet
EndChar

StartChar: centoldstyle
Encoding: 63394 63394 327
Width: 500
Flags: HW
TeX: 534 97
HStem: -11 64<202.679 398.313> 397 64<196.497 308.385>
VStem: 35 78<136.349 313.05>
DStem2: 47 -83 101 -112 0.479333 0.877633<0.432636 145.224 220.192 545.971 633.236 728.095>
LayerCount: 2
Fore
SplineSet
35 222 m 0
 35 335 122 461 283 461 c 0
 289 461 319 461 343 458 c 1
 396 556 l 1
 397 556 l 1
 450 527 l 1
 405 443 l 1
 426 436 445 426 465 417 c 1
 454 351 l 1
 428 364 402 378 374 386 c 1
 201 71 l 1
 237 55 262 53 274 53 c 2
 280 53 l 2
 365 53 418 80 465 107 c 1
 471 40 l 1
 411 7 355 -11 280 -11 c 0
 258 -11 220 -10 170 13 c 1
 101 -112 l 1
 47 -83 l 1
 118 47 l 1
 37 116 35 200 35 222 c 0
113 224 m 0
 113 156 146 118 153 110 c 1
 309 396 l 1
 300 396 290 397 281 397 c 0
 170 397 113 312 113 224 c 0
EndSplineSet
EndChar

StartChar: colonmonetary
Encoding: 8353 8353 328
Width: 639
Flags: HW
TeX: 749 27
HStem: -22 65<417 515.333> 649 66<301.812 359 417 510.1>
VStem: 66 90<221.278 472.454> 359 58<-28 -22 45 649 715 750>
LayerCount: 2
Fore
SplineSet
66 347 m 0
 66 551 206 700 358 715 c 1
 359 715 l 1
 359 750 l 1
 417 750 l 1
 417 716 l 1
 478 712 514 706 577 682 c 1
 562 599 l 1
 508 632 478 646 417 651 c 1
 417 43 l 1
 489 49 504 53 582 103 c 1
 588 33 l 1
 521 -7 486 -19 417 -22 c 1
 417 -28 l 1
 359 -28 l 1
 359 -21 l 1
 358 -20 l 1
 205 -5 66 144 66 347 c 0
156 347 m 0
 156 183 251 62 359 45 c 1
 359 649 l 1
 261 633 156 523 156 347 c 0
EndSplineSet
EndChar

StartChar: uni20A9
Encoding: 8361 8361 329
Width: 944
Flags: HW
TeX: 694 0
ItalicCorrection: 13
HStem: 0 21G<213.051 304.823 634.177 732.823> 158 62<-13.5632 154 252 286 364 576 670 706 791 959.357> 358 62<-13.6652 95 199 339 420 519 615 761 850 959.492> 674 20G<15 106.839 430.234 522.839 852.161 930>
VStem: 594 76<133.957 158>
DStem2: 101 694 15 694 0.282017 -0.95941<0 261.186 349.999 469.707 556.828 556.828 597.743 619.648> 302 220 364 220 0.276836 0.960917<-151.883 -64.0062 17.1638 142.85 224.85 432.793> 597 420 519 420 0.276836 -0.960917<-229.239 -21.5932 64.5599 186.37> 706 158 773 158 0.280743 0.959783<-88.6972 0 83.3697 207.397 291.89 557.117>
LayerCount: 2
Fore
SplineSet
-15 188 m 0
 -15 217 11 220 25 220 c 2
 154 220 l 1
 114 358 l 1
 22 358 l 2
 -12 358 -15 381 -15 389 c 0
 -15 398 -11 420 23 420 c 2
 95 420 l 1
 15 694 l 1
 101 694 l 1
 181 420 l 1
 357 420 l 1
 436 694 l 1
 517 694 l 1
 597 420 l 1
 778 420 l 1
 858 694 l 1
 930 694 l 1
 850 420 l 1
 922 420 l 2
 956 420 961 398 961 389 c 0
 961 380 957 358 924 358 c 2
 832 358 l 1
 791 220 l 1
 920 220 l 2
 931 220 961 218 961 188 c 0
 961 180 958 158 924 158 c 2
 773 158 l 1
 727 0 l 1
 640 0 l 1
 594 158 l 1
 345 158 l 1
 299 0 l 1
 219 0 l 1
 172 158 l 1
 22 158 l 2
 -12 158 -15 181 -15 188 c 0
199 358 m 1
 236 220 l 1
 302 220 l 1
 339 358 l 1
 199 358 l 1
252 158 m 1
 261 118 l 1
 269 70 l 1
 272 100 280 129 286 158 c 1
 252 158 l 1
364 220 m 1
 576 220 l 1
 537 358 l 1
 403 358 l 1
 364 220 l 1
420 420 m 1
 519 420 l 1
 502 481 474 583 470 624 c 1
 464 583 452 542 420 420 c 1
615 358 m 1
 653 220 l 1
 723 220 l 1
 761 358 l 1
 615 358 l 1
670 158 m 1
 679 116 l 1
 688 70 l 1
 689 88 691 97 706 158 c 1
 670 158 l 1
EndSplineSet
EndChar

StartChar: uni20A6
Encoding: 8358 8358 330
Width: 736
Flags: HW
TeX: 694 0
HStem: -0 21G<110 188 490.873 626> 158 62<-42.3716 110 188 390 506 549 626 778.361> 358 62<-42.3716 110 188 289 406 549 626 778.361> 674 20G<110 245.146 549 626>
VStem: 110 78<0 158 220 358 420 624> 549 77<70 158 220 358 420 694>
DStem2: 235 694 188 624 0.449503 -0.893279<41.4029 269.032 377.007 493.087 600.613 698.55>
LayerCount: 2
Fore
SplineSet
-44 189 m 0
 -44 204 -32 217 -17 219 c 0
 -11 220 -5 220 1 220 c 2
 110 220 l 1
 110 358 l 1
 -6 358 l 2
 -41 358 -44 382 -44 389 c 0
 -44 404 -32 417 -17 419 c 0
 -11 420 -5 420 1 420 c 2
 110 420 l 1
 110 694 l 1
 235 694 l 1
 374 420 l 1
 549 420 l 1
 549 694 l 1
 626 694 l 1
 626 420 l 1
 735 420 l 1
 752 419 l 1
 768 417 780 404 780 389 c 0
 780 360 752 358 740 358 c 2
 626 358 l 1
 626 220 l 1
 735 220 l 1
 752 219 l 1
 768 217 780 204 780 189 c 0
 780 160 752 158 740 158 c 2
 626 158 l 1
 626 -0 l 1
 501 -0 l 1
 421 158 l 1
 188 158 l 1
 188 -0 l 1
 110 -0 l 1
 110 158 l 1
 -6 158 l 2
 -41 158 -44 182 -44 189 c 0
188 220 m 1
 390 220 l 1
 320 358 l 1
 188 358 l 1
 188 220 l 1
188 420 m 1
 289 420 l 1
 188 624 l 1
 188 420 l 1
406 358 m 1
 475 220 l 1
 549 220 l 1
 549 358 l 1
 406 358 l 1
506 158 m 1
 549 70 l 1
 549 158 l 1
 506 158 l 1
EndSplineSet
EndChar

StartChar: uni20B2
Encoding: 8370 8370 331
Width: 778
Flags: HW
TeX: 749 27
HStem: -21 65<332.434 415 473 617.554> 237 62<474 632> 650 65<339.208 415 473 595.404>
VStem: 66 90<235.557 464.095> 415 58<-28 -21 44 237 299 650 716 750> 632 78<63.8701 237>
LayerCount: 2
Fore
SplineSet
66 347 m 0
 66 551 234 704 414 715 c 1
 415 715 l 1
 415 750 l 1
 473 750 l 1
 473 716 l 1
 565 713 627 697 702 668 c 1
 687 585 l 1
 590 637 566 643 473 651 c 1
 473 299 l 1
 710 299 l 1
 710 26 l 1
 614 -9 553 -17 473 -22 c 1
 473 -28 l 1
 415 -28 l 1
 415 -21 l 1
 414 -21 l 1
 238 -11 66 138 66 347 c 0
156 347 m 0
 156 189 271 57 415 44 c 1
 415 650 l 1
 282 638 156 516 156 347 c 0
473 43 m 1
 537 48 570 52 632 69 c 1
 632 237 l 1
 474 237 l 1
 473 208 l 1
 473 43 l 1
EndSplineSet
EndChar

StartChar: peso
Encoding: 61711 61711 332
Width: 653
Flags: HW
TeX: 694 0
HStem: 0 21G<110 199> 158 62<-42.3716 110 199 425.728> 289 58<199 435.052> 638 56<197 437.703>
VStem: 110 89<0 158 220 289 347 638> 516 81<420.033 567.952>
LayerCount: 2
Fore
SplineSet
-44 189 m 0
 -44 204 -32 217 -17 219 c 0
 -11 220 -5 220 1 220 c 2
 110 220 l 1
 110 694 l 1
 346 694 l 2
 400 694 448 688 499 656 c 0
 560 618 597 558 597 493 c 0
 597 400 520 288 349 288 c 0
 338 288 328 289 317 289 c 2
 199 289 l 1
 199 220 l 1
 387 220 l 2
 421 220 427 202 427 189 c 0
 427 179 423 158 389 158 c 2
 199 158 l 1
 199 0 l 1
 110 0 l 1
 110 158 l 1
 -5 158 l 2
 -39 158 -44 180 -44 189 c 0
196 347 m 1
 330 347 l 2
 479 347 516 435 516 493 c 0
 516 551 480 638 329 638 c 2
 197 638 l 1
 196 599 l 1
 196 347 l 1
EndSplineSet
EndChar

StartChar: lira
Encoding: 8356 8356 333
Width: 639
Flags: HW
TeX: 722 0
HStem: -11 62<130.735 197.003 390.508 519.068> 83 62<130.312 201.506> 158 62<137.764 237 316 444.492> 314 61<137.499 238 316 444.741> 702 61<363.078 464.842>
VStem: 55 75<51.6619 81.8988> 238 78<220 314 375 646.981> 504 78<541 650.32> 532 78<65.8362 145>
LayerCount: 2
Fore
SplineSet
55 58 m 0
 55 110 113 145 183 145 c 0
 204 145 219 141 234 138 c 1
 237 158 l 1
 174 158 l 2
 144 158 136 176 136 188 c 0
 136 196 140 220 175 220 c 2
 238 220 l 1
 238 314 l 1
 174 314 l 2
 144 314 136 332 136 344 c 0
 136 352 140 376 175 376 c 0
 178 376 181 375 184 375 c 2
 238 375 l 1
 238 528 l 2
 238 544 238 561 240 577 c 0
 252 674 320 763 415 763 c 0
 548 763 582 605 582 549 c 0
 582 512 557 507 547 507 c 0
 514 507 512 541 512 541 c 1
 504 541 l 1xff
 503 674 451 702 416 702 c 0
 385 702 358 684 340 653 c 0
 320 617 316 580 316 532 c 2
 316 375 l 1
 407 375 l 2
 440 375 446 355 446 345 c 0
 446 330 437 320 425 316 c 0
 417 313 407 314 398 314 c 2
 316 314 l 1
 316 220 l 1
 407 220 l 2
 441 220 446 198 446 189 c 0
 446 172 433 163 425 160 c 0
 417 157 407 158 398 158 c 2
 315 158 l 1
 313 142 310 127 305 112 c 1
 331 100 420 50 485 50 c 0
 513 50 532 70 532 145 c 1
 610 145 l 1xfe80
 607 48 533 -11 453 -11 c 0
 402 -11 367 5 269 51 c 1
 218 -9 156 -11 140 -11 c 0
 94 -11 55 17 55 58 c 0
130 61 m 0
 130 54 136 51 144 51 c 0
 174 51 199 74 202 76 c 1
 182 81 167 83 157 83 c 0xfe
 133 83 130 68 130 61 c 0
EndSplineSet
EndChar

StartChar: uni211E
Encoding: 8478 8478 334
Width: 646
Flags: HW
TeX: 694 0
HStem: -0 21G<95 182 515.182 617> 316 62<182 340> 638 56<182 427.846>
VStem: 95 87<0 316 378 638> 508 81<442.046 572.445>
DStem2: 275 98 314 51 0.761463 0.648208<0 158.134 244.049 414.222> 418 326 340 316 0.521026 -0.853541<0 82.152 156.187 335.046>
LayerCount: 2
Fore
SplineSet
95 -0 m 1
 95 694 l 1
 321 694 l 2
 523 694 589 579 589 508 c 0
 589 435 534 359 418 326 c 1
 461 256 l 1
 591 367 l 1
 630 320 l 1
 493 203 l 1
 617 -0 l 1
 527 -0 l 1
 436 154 l 1
 435 154 l 1
 314 51 l 1
 275 98 l 1
 404 208 l 1
 340 316 l 1
 182 316 l 1
 182 -0 l 1
 95 -0 l 1
182 378 m 1
 314 378 l 2
 471 378 508 455 508 507 c 0
 508 559 470 638 317 638 c 2
 182 638 l 1
 182 378 l 1
EndSplineSet
EndChar

StartChar: uni203D
Encoding: 8253 8253 335
Width: 472
Flags: HW
TeX: 722 0
HStem: 0 84<194 278> 595 62<116.25 195 276 313.713> 702 20G<194 277>
VStem: 188 81<175 278> 194 84<0 84> 195 81<189.714 342.519 426 595 657.732 722> 338 78<464.676 573.52>
LayerCount: 2
Fore
SplineSet
55 612 m 1
 92 635 138 656 195 660 c 1xe6
 194 722 l 1xea
 277 722 l 1
 276 657 l 1
 403 635 416 552 416 516 c 0
 416 402 308 404 271 295 c 0
 270 289 270 284 270 278 c 2
 269 175 l 1
 188 175 l 1
 188 201 l 2xf2
 188 279 199 288 200 310 c 1
 195 598 l 1
 166 593 135 591 78 549 c 1
 55 612 l 1
273 426 m 1
 313 460 338 473 338 518 c 0xe6
 338 580 289 591 276 595 c 1
 275 568 l 1
 273 426 l 1
EndSplineSet
Refer: 58 46 S 1 0 0 1 98 -0 2
EndChar

StartChar: uni2E18
Encoding: 11800 11800 336
Width: 472
Flags: HW
TeX: 534 194
HStem: -195 21G<194 277> -132 62<154.244 195 276 339.357> -41 20G<371.5 400.188> 444 84<194 278>
VStem: 55 78<-51.9746 70.0379> 188 81<208.054 353> 194 84<444 528> 195 81<-195 -129.251 -67 122>
LayerCount: 2
Fore
SplineSet
55 11 m 0
 55 85 92 112 122 141 c 1
 185 211 187 278 188 317 c 1
 188 353 l 1
 269 353 l 1xfc
 275 -67 l 1
 324 -56 350 -47 393 -21 c 1
 416 -85 l 1
 369 -109 328 -122 276 -130 c 1xf9
 277 -195 l 1
 194 -195 l 1xfa
 195 -132 l 1
 74 -122 55 -35 55 11 c 0
133 10 m 0xf9
 133 -54 169 -65 195 -70 c 1
 199 122 l 1
 158 67 133 64 133 10 c 0xf9
EndSplineSet
Refer: 58 46 S 1 0 0 1 98 444 2
EndChar

StartChar: dong
Encoding: 8363 8363 337
Width: 517
Flags: HW
TeX: 749 0
HStem: -40 40<55.2483 552.996> 16 62<178.992 297.329> 27 21<355 434> 421 62<185.732 304.837> 578 59<167 358 434 535> 729 20<358 434>
VStem: 35 78<151.123 346.301> 355 79<27 79 117.716 390.995 428 578 637 749>
LayerCount: 2
Fore
SplineSet
55 -18 m 1
 60 -1 71 0 83 0 c 2
 526 0 l 2x9f
 549 0 553 -12 553 -20 c 0
 553 -31 547 -40 526 -40 c 2
 82 -40 l 2
 62 -40 56 -32 55 -18 c 1
EndSplineSet
Refer: 170 273 S 1 0 0 1 0 27 2
EndChar

StartChar: trademark
Encoding: 8482 8482 338
Width: 667
Flags: HW
TeX: 749 0
ItalicCorrection: 524
HStem: 689 61<2.78953 127 205 319.483>
VStem: 127 78<355.719 689> 350 78<356.21 560> 350 70<718.625 769.298> 571 79<356.171 560>
LayerCount: 2
Fore
SplineSet
1 716 m 1
 1 723 l 1
 7 749 35 750 44 750 c 2
 283 750 l 2
 296 750 309 749 320 741 c 0
 328 735 332 728 332 720 c 0
 332 712 327 688 287 688 c 0
 282 688 277 689 272 689 c 2
 205 689 l 1
 205 396 l 2
 205 386 207 353 166 353 c 0
 125 353 127 387 127 397 c 2
 127 689 l 1
 46 689 l 2
 12 689 5 701 1 716 c 1
350 392 m 2xe8
 350 733 l 1
 351 738 349 772 389 772 c 0xd8
 402 772 409 768 420 761 c 1xd8
 449 706 472 644 499 587 c 1
 500 587 l 1
 574 751 l 1
 580 761 l 1
 591 768 597 772 610 772 c 0
 623 772 630 768 641 761 c 1
 648 748 l 1
 650 733 l 1
 650 392 l 2
 650 387 650 353 610 353 c 0
 574 353 571 380 571 392 c 2
 571 560 l 1
 536 482 534 463 500 463 c 0
 466 463 463 482 428 560 c 1
 428 398 l 2
 428 387 430 353 389 353 c 0
 349 353 350 389 350 392 c 2xe8
EndSplineSet
EndChar

StartChar: uni2031
Encoding: 8241 8241 339
Width: 1538
Flags: HW
TeX: 749 27
HStem: 299 62<600.159 676.388 952.198 1028.78 1305.05 1381.24> 688 62<156.076 232.281>
VStem: 55 75<450.927 657.389> 263 70<458.645 652.913> 499 75<61.9268 268.389> 707 70<69.6445 262.076> 851 75<64.9141 268.389> 1060 69<69.4759 263.913> 1204 75<61.9268 267.532> 1412 69<69.2935 263.965>
DStem2: 185 13 221 -5 0.515018 0.857179<-21.4531 857.875>
LayerCount: 2
Fore
SplineSet
851 167 m 0
 851 285 922 361 991 361 c 0
 1065 361 1129 277 1129 166 c 0
 1129 48 1060 -28 991 -28 c 0
 923 -28 851 48 851 167 c 0
926 159 m 2
 926 56 968 40 985 35 c 1
 995 34 l 1
 1029 37 1060 89 1060 167 c 0
 1060 237 1034 298 988 299 c 1
 959 296 926 265 926 167 c 2
 926 159 l 2
1204 167 m 0
 1204 274 1267 361 1344 361 c 0
 1418 361 1481 277 1481 166 c 0
 1481 58 1419 -28 1344 -28 c 0
 1274 -28 1204 49 1204 167 c 0
1279 159 m 2
 1279 56 1320 40 1337 35 c 1
 1347 34 l 1
 1394 39 1412 117 1412 168 c 0
 1412 237 1386 298 1340 299 c 1
 1311 296 1279 265 1279 167 c 2
 1279 159 l 2
EndSplineSet
Refer: 49 37 S 1 0 0 1 0 0 2
EndChar

StartChar: uni2029
Encoding: 8233 8233 340
Width: 472
Flags: HW
TeX: 722 194
HStem: -194 21G<330.5 350> 682 40<360 442.852>
VStem: 55 305<389.125 600.921> 320 40<-193.934 245.344>
LayerCount: 2
Fore
SplineSet
55 485 m 0xe0
 55 567 93 722 245 722 c 2
 415 722 l 2
 423 722 443 721 443 702 c 1
 440 683 427 682 418 682 c 2
 360 682 l 1
 360 -153 l 2
 360 -154 361 -157 361 -162 c 0
 361 -174 359 -194 341 -194 c 0
 320 -194 320 -171 320 -165 c 2
 320 244 l 1xd0
 176 256 55 343 55 485 c 0xe0
EndSplineSet
EndChar

StartChar: uni0E3F
Encoding: 3647 3647 341
Width: 667
Flags: HW
TeX: 749 27
HStem: 0 56<180 274 332 437.076> 330 62<181 274 333 413.38> 638 56<181 274 333 416.315>
VStem: 96 84<56 330 392 638> 274 58<-28 0 56 330 393 637 694 750> 503 79<462.897 573.541> 528 82<129.332 251.095>
LayerCount: 2
Fore
SplineSet
96 0 m 1
 96 694 l 1
 274 694 l 1
 274 750 l 1
 332 750 l 1
 332 694 l 1
 482 693 582 609 582 521 c 0xfc
 582 458 531 393 414 363 c 1
 522 346 610 277 610 188 c 0xfa
 610 93 517 18 408 3 c 0
 385 0 363 0 340 -0 c 2
 332 -0 l 1
 332 -28 l 1
 274 -28 l 1
 274 0 l 1
 96 0 l 1
180 56 m 1
 274 56 l 1
 274 330 l 1
 181 330 l 1
 180 293 l 1
 180 56 l 1
180 392 m 1
 274 392 l 1
 274 638 l 1
 181 638 l 1
 180 603 l 1
 180 392 l 1
332 56 m 1
 448 57 528 118 528 189 c 0xfa
 528 266 441 324 333 330 c 1
 332 292 l 1
 332 56 l 1
332 393 m 1
 472 408 503 485 503 519 c 0xfc
 503 590 416 628 333 637 c 1
 332 602 l 1
 332 393 l 1
EndSplineSet
EndChar

StartChar: uni2116
Encoding: 8470 8470 342
Width: 819
Flags: HW
TeX: 694 0
HStem: 0 21G<95 173 327.425 458> 160 59<537 738> 267 65<607.004 667.845> 482 62<609.202 665.363> 674 20G<95 284.5 380 458>
VStem: 95 125<633.036 694> 95 78<0 624> 380 78<70 694> 537 63<336.574 477.02> 675 63<336.151 476.02>
LayerCount: 2
Fore
SplineSet
95 0 m 1xfbc0
 95 694 l 1
 220 694 l 1xfdc0
 349 244 370 151 380 70 c 1
 380 694 l 1
 458 694 l 1
 458 0 l 1
 333 0 l 1
 224 391 l 1
 175 575 176 601 173 624 c 1
 173 0 l 1
 95 0 l 1xfbc0
537 160 m 1
 537 219 l 1
 738 219 l 1
 738 160 l 1
 537 160 l 1
537 401 m 0
 537 484 586 544 638 544 c 0
 693 544 738 480 738 401 c 0
 738 319 687 267 637 267 c 0
 583 267 537 327 537 401 c 0
600 399 m 0
 600 347 614 333 640 332 c 1
 677 335 675 385 675 400 c 0
 675 469 653 482 638 482 c 0xf9c0
 601 482 600 421 600 399 c 0
EndSplineSet
EndChar

StartChar: uni2052
Encoding: 8274 8274 343
Width: 500
Flags: HW
TeX: 749 0
HStem: -0 124<300.422 423.441> 626 124<75.4219 198.322>
VStem: 75 124<626.552 749.463> 300 124<0.518703 123.305>
DStem2: 61 36 99 23 0.440405 0.897799<-16.314 791.099>
LayerCount: 2
Fore
SplineSet
56 20 m 0
 56 26 59 31 61 36 c 2
 398 723 l 2
 401 729 408 749 423 749 c 0
 433 749 443 740 443 730 c 0
 443 725 443 723 433 703 c 2
 99 23 l 2
 96 18 89 1 75 1 c 0
 65 1 56 9 56 20 c 0
75 655 m 2
 75 722 l 2
 75 741 84 750 102 750 c 2
 167 750 l 2
 184 750 199 748 199 722 c 2
 199 657 l 2
 199 642 195 626 170 626 c 2
 105 626 l 2
 86 626 75 631 75 655 c 2
300 30 m 2
 300 96 l 2
 300 115 309 124 327 124 c 2
 392 124 l 2
 422 124 424 112 424 94 c 2
 424 30 l 2
 424 15 420 0 395 -0 c 2
 330 -0 l 2
 302 0 300 15 300 30 c 2
EndSplineSet
EndChar

StartChar: estimated
Encoding: 8494 8494 344
Width: 669
Flags: HW
TeX: 694 0
HStem: -11 61<274.646 528.094> 361 56<118 561> 649 61<261.753 438.227>
VStem: 27 85<231.828 361 417 474.729>
LayerCount: 2
Fore
SplineSet
27 351 m 0
 27 550 170 710 349 710 c 0
 465 710 640 651 640 361 c 1
 112 361 l 1
 112 354 l 2
 112 177 227 50 365 50 c 0
 492 50 586 89 629 106 c 1
 635 40 l 1
 566 14 474 -11 366 -11 c 0
 164 -11 27 163 27 351 c 0
118 417 m 1
 561 417 l 1
 542 626 404 649 348 649 c 0
 236 649 139 548 118 417 c 1
EndSplineSet
EndChar

StartChar: openbullet
Encoding: 9702 9702 345
Width: 500
Flags: HW
TeX: 444 -55
HStem: 56 40<173.365 323.099> 404 40<175.227 324.429>
VStem: 55 40<176.767 324.682> 403 40<175.427 323.233>
LayerCount: 2
Fore
SplineSet
55 250 m 0
 55 353 137 444 249 444 c 0
 364 444 443 350 443 250 c 0
 443 137 351 56 249 56 c 0
 133 56 55 150 55 250 c 0
95 250 m 0
 95 171 157 96 249 96 c 0
 330 96 403 160 403 250 c 0
 403 329 341 404 249 404 c 0
 169 404 95 340 95 250 c 0
EndSplineSet
EndChar

StartChar: uni2120
Encoding: 8480 8480 346
Width: 667
Flags: HW
TeX: 749 0
ItalicCorrection: 524
HStem: 375 61<19.1423 243.499> 550 62<95.25 243.282> 689 61<96.3089 309.626>
VStem: 16 78<613.99 686.982> 246 78<438.515 548.409> 349 78<356.531 560> 349 70<718.625 769.298> 571 78<355.99 560>
LayerCount: 2
Fore
SplineSet
16 649 m 0
 16 734 64 750 138 750 c 2
 263 750 l 2
 299 750 315 739 315 722 c 0
 315 716 313 710 310 704 c 1
 302 696 296 690 274 689 c 1
 129 689 l 1
 103 688 95 686 94 655 c 1
 94 647 l 1
 96 617 94 612 141 612 c 2
 194 612 l 2
 257 612 275 601 299 582 c 1
 320 556 324 538 324 494 c 0
 324 448 321 432 299 405 c 1
 276 386 257 375 194 375 c 2
 63 375 l 2
 29 375 16 389 17 408 c 1
 23 434 47 436 65 436 c 2
 191 436 l 2
 246 436 246 443 246 500 c 0
 246 538 241 550 208 550 c 0
 112 551 62 546 32 586 c 0
 18 604 16 627 16 649 c 0
349 392 m 2xfd
 349 733 l 2xfb
 349 738 348 772 388 772 c 0
 401 772 408 768 419 761 c 1xfb
 448 706 472 644 499 587 c 1
 500 587 l 1
 573 751 l 1
 579 761 l 1
 590 768 597 772 610 772 c 0
 623 772 630 768 641 761 c 1
 648 748 l 1
 649 733 l 1
 649 392 l 1
 648 387 650 353 610 353 c 0
 574 353 571 380 571 392 c 2
 571 560 l 1
 536 482 533 463 499 463 c 0
 465 463 462 482 427 560 c 1
 427 398 l 1
 427 398 429 353 388 353 c 0
 348 353 349 389 349 392 c 2xfd
EndSplineSet
EndChar

StartChar: uni2045
Encoding: 8261 8261 347
Width: 361
Flags: HW
TeX: 749 249
HStem: -311 61<193.075 307> 219 62<233.717 307> 689 61<171.617 307>
VStem: 71 78<-206.134 160.552 339.448 668.193>
LayerCount: 2
Fore
SplineSet
71 90 m 2
 71 218 184 247 232 250 c 1
 182 253 71 282 71 410 c 2
 71 626 l 2
 71 701 125 749 307 750 c 1
 307 689 l 1
 260 689 l 2
 217 689 149 685 149 625 c 2
 149 410 l 2
 149 301 254 281 307 281 c 1
 307 219 l 1
 244 219 180 194 157 140 c 0
 150 124 149 106 149 89 c 2
 149 -123 l 2
 149 -178 170 -250 256 -250 c 0
 273 -250 290 -250 307 -250 c 1
 307 -311 l 1
 225 -311 71 -273 71 -123 c 2
 71 90 l 2
EndSplineSet
EndChar

StartChar: uni2046
Encoding: 8262 8262 348
Width: 361
Flags: HW
TeX: 749 249
HStem: -250 61<52 187.383> 219 62<52 124.844> 689 61<52 192.871>
VStem: 210 78<-169.136 160.552 339.448 670.256>
CounterMasks: 1 e0
LayerCount: 2
Fore
SplineSet
52 -189 m 1
 99 -189 l 2
 142 -189 210 -185 210 -125 c 2
 210 90 l 2
 210 199 104 219 52 219 c 1
 52 281 l 1
 118 281 184 311 204 365 c 0
 209 380 210 395 210 410 c 2
 210 625 l 2
 210 681 158 689 99 689 c 2
 52 689 l 1
 52 750 l 1
 235 749 288 700 288 625 c 2
 288 410 l 2
 288 282 177 253 127 250 c 1
 177 247 288 218 288 90 c 2
 288 -125 l 2
 288 -200 234 -249 52 -250 c 1
 52 -189 l 1
EndSplineSet
EndChar

StartChar: cent
Encoding: 162 162 349
Width: 500
Flags: HW
TeX: 534 97
HStem: -9 65<189.708 247 306 406.364> 394 65<193.541 247 306 411.156>
VStem: 35 78<136.078 312.556> 247 59<-97 -8.18513 56 394 460 547>
LayerCount: 2
Fore
SplineSet
35 222 m 0
 35 330 112 441 247 459 c 1
 247 547 l 1
 306 547 l 1
 306 460 l 1
 370 458 399 449 465 417 c 1
 454 351 l 1
 405 376 381 391 306 396 c 1
 306 54 l 1
 371 60 408 74 465 107 c 1
 471 40 l 1
 419 12 373 -5 306 -10 c 1
 306 -97 l 1
 247 -97 l 1
 247 -9 l 1
 117 7 35 112 35 222 c 0
113 223 m 0
 113 135 167 70 247 56 c 1
 247 394 l 1
 151 377 113 294 113 223 c 0
EndSplineSet
EndChar

StartChar: currency
Encoding: 164 164 350
Width: 757
Flags: HW
TeX: 577 0
HStem: -11 40<281.642 475.796> 543 40<280.029 474.63>
VStem: 81 40<188.491 382.95> 635 40<189.027 382.157>
LayerCount: 2
Fore
SplineSet
46 -26 m 0
 46 -15 46 -18 155 90 c 1
 155 91 l 1
 103 149 81 223 81 286 c 0
 81 357 108 428 155 481 c 1
 155 482 l 1
 45 591 50 583 46 596 c 1
 44 607 53 618 65 618 c 2
 66 618 l 2
 77 618 75 618 183 510 c 1
 236 557 307 583 378 583 c 0
 441 583 515 562 573 510 c 1
 574 510 l 1
 681 619 681 618 691 618 c 0
 702 618 711 609 711 599 c 0
 711 587 712 591 602 481 c 1
 650 427 675 357 675 286 c 0
 675 204 644 140 602 90 c 1
 716 -24 708 -13 710 -28 c 0
 710 -33 707 -38 705 -41 c 1
 700 -45 695 -46 691 -46 c 0
 680 -46 682 -47 574 62 c 1
 573 62 l 1
 519 14 449 -11 378 -11 c 0
 296 -11 233 20 183 62 c 1
 69 -52 80 -44 64 -46 c 1
 53 -46 46 -34 46 -26 c 0
121 286 m 0
 121 147 233 29 378 29 c 0
 515 29 635 139 635 286 c 0
 635 429 518 543 379 543 c 0
 240 543 121 432 121 286 c 0
EndSplineSet
EndChar

StartChar: yen
Encoding: 165 165 351
Width: 667
Flags: HW
TeX: 694 0
ItalicCorrection: 24
HStem: -0 21G<290 377> 158 62<-25.4422 290 377 692.391> 358 62<-23.6278 193 337 348 475 692.516> 674 20G<3 122.65 562.277 664>
VStem: 290 87<0 158 220 278>
DStem2: 109 694 3 694 0.567872 -0.823117<0 273.235> 388 420 475 420 0.567872 0.823117<49.4048 332.294>
LayerCount: 2
Fore
SplineSet
-27 189 m 0
 -27 218 1 220 13 220 c 2
 290 220 l 1
 290 278 l 1
 235 358 l 1
 18 358 l 2
 -12 358 -16 363 -24 376 c 0
 -26 380 -27 384 -27 388 c 0
 -27 400 -21 419 14 419 c 2
 22 419 l 2
 24 419 27 420 29 420 c 2
 193 420 l 1
 3 694 l 1
 109 694 l 1
 296 420 l 1
 388 420 l 1
 576 694 l 1
 664 694 l 1
 475 420 l 1
 653 420 l 2
 688 420 694 401 694 388 c 0
 694 373 681 364 679 363 c 0
 670 358 659 358 649 358 c 2
 433 358 l 1
 377 278 l 1
 377 220 l 1
 654 220 l 2
 666 220 694 218 694 189 c 0
 694 176 685 164 672 160 c 0
 665 158 658 158 651 158 c 2
 377 158 l 1
 377 -0 l 1
 290 -0 l 1
 290 158 l 1
 16 158 l 2
 9 158 3 158 -4 160 c 0
 -17 164 -27 175 -27 189 c 0
337 358 m 1
 342 348 l 1
 348 358 l 1
 337 358 l 1
EndSplineSet
EndChar

StartChar: brokenbar
Encoding: 166 166 352
Width: 167
Flags: HW
TeX: 749 249
VStem: 63 40<-248.981 168.979 331.019 748.982>
LayerCount: 2
Fore
SplineSet
63 141 m 2
 63 162 72 169 82 169 c 0
 104 169 103 143 103 142 c 2
 103 -221 l 2
 103 -245 91 -249 83 -249 c 0
 62 -249 63 -223 63 -222 c 2
 63 141 l 2
63 358 m 2
 63 721 l 2
 63 745 75 749 83 749 c 0
 104 749 103 724 103 722 c 2
 103 360 l 2
 103 335 91 331 83 331 c 0
 62 331 63 357 63 358 c 2
EndSplineSet
EndChar

StartChar: copyright
Encoding: 169 169 354
Width: 1111
Flags: HW
TeX: 749 249
HStem: -272 40<431.47 677.085> -22 64<515.374 736.389> 444 64<512.42 720.77> 732 40<431.394 676.666>
VStem: 55 40<116.13 382.976> 288 89<164.075 322.895> 1014 40<116.327 384.734>
LayerCount: 2
Fore
SplineSet
288 243 m 0
 288 380 424 508 627 508 c 0
 682 508 721 500 771 484 c 1
 757 401 l 1
 722 422 694 444 625 444 c 0
 477 444 377 344 377 243 c 0
 377 146 470 42 628 42 c 0
 706 42 730 59 776 86 c 1
 782 17 l 1
 732 -9 706 -22 626 -22 c 0
 431 -22 288 102 288 243 c 0
EndSplineSet
Refer: 301 9675 S 1 0 0 1 0 0 3
EndChar

StartChar: ordfeminine
Encoding: 170 170 355
Width: 444
Flags: HW
TeX: 749 0
HStem: 274 61<26.4894 417.828> 364 62<125.792 230.899> 503 51<127.646 266> 707 59<123.242 243.137>
VStem: 266 79<375 408 554 683.965>
LayerCount: 2
Fore
SplineSet
25 304 m 0
 25 314 30 335 65 335 c 2
 378 335 l 2
 400 335 419 329 419 304 c 0
 419 295 415 274 380 274 c 2
 75 274 l 2
 71 274 67 273 63 273 c 0
 30 273 25 296 25 304 c 0
44 465 m 0
 44 549 231 554 266 554 c 1
 266 590 l 2
 266 682 233 707 206 707 c 0
 144 707 111 679 83 656 c 1
 77 724 l 1
 117 752 154 766 206 766 c 0
 278 766 345 707 345 594 c 2
 345 375 l 1
 269 375 l 1
 269 408 l 1
 266 406 215 364 130 364 c 0
 62 364 44 435 44 465 c 0
118 465 m 1
 120 437 153 426 180 426 c 0
 219 426 258 448 265 487 c 1
 266 503 l 1
 142 498 121 487 118 465 c 1
EndSplineSet
EndChar

StartChar: copyleft
Encoding: 61713 61713 356
Width: 1111
Flags: HW
TeX: 749 249
HStem: -272 40<431.47 677.085> -22 64<372.727 594.013> 444 64<388.23 596.362> 732 40<431.394 676.666>
VStem: 55 40<116.13 382.976> 732 89<164.261 323.11> 1014 40<116.327 384.734>
LayerCount: 2
Fore
SplineSet
327 17 m 1
 333 86 l 1
 379 59 403 42 481 42 c 0
 639 42 732 146 732 243 c 0
 732 345 631 444 484 444 c 0
 415 444 387 422 352 401 c 1
 338 484 l 1
 388 500 427 508 482 508 c 0
 685 508 821 380 821 243 c 0
 821 103 680 -22 483 -22 c 0
 404 -22 377 -9 327 17 c 1
EndSplineSet
Refer: 301 9675 S 1 0 0 1 0 0 3
EndChar

StartChar: logicalnot
Encoding: 172 172 357
Width: 667
Flags: HW
TeX: 444 0
HStem: 312 40<56.0174 570>
VStem: 570 40<43.016 312>
LayerCount: 2
Fore
SplineSet
56 332 m 0
 56 354 80 352 90 352 c 2
 583 352 l 2
 609 352 610 336 610 323 c 2
 610 71 l 2
 610 47 598 43 590 43 c 0
 569 43 570 65 570 73 c 2
 570 312 l 1
 88 312 l 2
 70 312 56 316 56 332 c 0
EndSplineSet
EndChar

StartChar: uni2117
Encoding: 8471 8471 358
Width: 1111
Flags: HW
TeX: 749 249
HStem: -272 40<431.47 677.085> -0 21G<345 431> 185 58<431 693.35> 430 56<432 693.835> 732 40<431.394 676.666>
VStem: 55 40<116.13 382.976> 345 86<0 185 243 430> 751 81<287.048 383.231> 1014 40<116.327 384.734>
LayerCount: 2
Fore
SplineSet
345 -0 m 1
 345 486 l 1
 582 486 l 2
 769 486 832 397 832 337 c 0
 832 276 767 184 584 184 c 0
 574 184 565 185 555 185 c 2
 431 185 l 1
 431 -0 l 1
 345 -0 l 1
431 243 m 1
 552 243 l 2
 722 243 751 299 751 337 c 0
 751 372 721 397 690 410 c 0
 652 425 635 430 552 430 c 2
 432 430 l 1
 431 401 l 1
 431 243 l 1
EndSplineSet
Refer: 301 9675 S 1 0 0 1 0 0 3
EndChar

StartChar: registered
Encoding: 174 174 359
Width: 1111
Flags: HW
TeX: 749 249
HStem: -272 40<431.47 677.085> -0 21G<345 431 753.396 860> 212 62<431 594> 430 56<432 700.103> 732 40<431.394 676.666>
VStem: 55 40<116.13 382.976> 345 86<0 212 274 430> 1014 40<116.327 384.734>
DStem2: 671 221 594 212 0.649941 -0.759984<0 232.301>
LayerCount: 2
Fore
SplineSet
345 -0 m 1
 345 486 l 1
 569 486 l 2
 622 486 682 483 745 454 c 0
 805 426 832 389 832 352 c 0
 832 286 754 239 671 221 c 1
 860 -0 l 1
 770 -0 l 1
 594 212 l 1
 431 212 l 1
 431 -0 l 1
 345 -0 l 1
431 274 m 1
 554 274 l 2
 651 274 667 281 693 291 c 0
 750 312 750 341 751 351 c 1
 750 365 751 393 679 417 c 0
 642 429 603 430 565 430 c 2
 432 430 l 1
 431 373 l 1
 431 274 l 1
EndSplineSet
Refer: 301 9675 S 1 0 0 1 0 0 3
EndChar

StartChar: degree
Encoding: 176 176 361
Width: 333
Flags: HW
TeX: 694 0
HStem: 472 41<116.101 214.62> 654 40<117.746 213.831>
VStem: 55 40<534.431 631.22> 236 41<534.405 632.433>
LayerCount: 2
Fore
SplineSet
55 583 m 0
 55 644 105 694 166 694 c 0
 231 694 277 640 277 583 c 0
 277 522 227 472 166 472 c 0
 101 472 55 526 55 583 c 0
95 583 m 0
 95 547 124 513 166 513 c 0
 204 513 236 542 236 583 c 0
 236 619 208 654 166 654 c 0
 128 654 95 624 95 583 c 0
EndSplineSet
EndChar

StartChar: plusminus
Encoding: 177 177 362
Width: 778
Flags: HW
TeX: 577 83
HStem: -0 40<56.116 368 408 719.985> 313 40<56.0109 368 408 720.988>
VStem: 368 40<40 313 353 664.988>
LayerCount: 2
Fore
SplineSet
56 18 m 0
 56 38 74 40 84 40 c 2
 368 40 l 1
 368 313 l 1
 86 313 l 2
 71 313 56 314 56 333 c 0
 56 352 71 353 85 353 c 2
 368 353 l 1
 368 635 l 2
 368 649 369 665 388 665 c 0
 406 665 408 649 408 636 c 2
 408 353 l 1
 690 353 l 2
 705 353 721 352 721 333 c 0
 721 314 704 313 691 313 c 2
 408 313 l 1
 408 40 l 1
 695 40 l 1
 717 39 720 28 720 20 c 0
 720 1 700 0 692 -0 c 2
 84 -0 l 2
 63 0 56 9 56 18 c 0
EndSplineSet
EndChar

StartChar: twosuperior
Encoding: 178 178 363
Width: 444
Flags: HW
TeX: 749 0
HStem: 361 70<116 393> 708 64<121.823 273.512>
VStem: 310 83<569.587 674.039>
DStem2: 49 431 116 431 0.885812 0.464045<59.3494 287.614>
LayerCount: 2
Fore
SplineSet
41 691 m 1
 87 747 134 772 207 772 c 0
 316 772 393 710 393 624 c 0
 393 546 309 533 232 495 c 0
 220 489 208 483 116 431 c 1
 265 431 l 1
 290 432 l 1
 393 432 l 1
 393 361 l 1
 49 361 l 1
 49 431 l 1
 138 484 150 491 161 497 c 0
 222 529 310 550 310 622 c 0
 310 673 262 708 194 708 c 0
 123 708 98 667 80 633 c 1
 41 691 l 1
EndSplineSet
EndChar

StartChar: threesuperior
Encoding: 179 179 364
Width: 444
Flags: HW
TeX: 749 0
HStem: 350 62<68.6038 291.636> 535 62<166 262.236> 713 59<132.083 281.863>
VStem: 291 83<624.296 701.716> 311 90<431.924 514.757>
LayerCount: 2
Fore
SplineSet
41 378 m 1
 50 439 l 1
 98 425 150 412 216 412 c 0xe8
 306 412 311 461 311 475 c 0xe8
 311 484 306 506 281 521 c 0
 258 534 233 535 207 535 c 2
 166 535 l 1
 166 597 l 1
 207 601 243 599 272 626 c 0
 283 636 291 652 291 667 c 0
 291 686 277 713 219 713 c 0
 160 713 121 688 88 661 c 1
 55 717 l 1
 101 750 153 772 219 772 c 0
 302 772 374 727 374 667 c 0xf0
 374 606 322 578 303 565 c 1
 337 555 401 527 401 473 c 0
 401 415 334 350 218 350 c 0
 165 350 109 357 41 378 c 1
EndSplineSet
EndChar

StartChar: acute.ts1
Encoding: 61714 61714 365
Width: 500
Flags: HW
TeX: 722 0
HStem: 537 185
VStem: 205 211
LayerCount: 2
Fore
SplineSet
205 537 m 1
 338 722 l 1
 416 722 l 1
 266 537 l 1
 205 537 l 1
EndSplineSet
EndChar

StartChar: uni00B5
Encoding: 181 181 366
Width: 517
Flags: HW
TeX: 444 194
HStem: -195 21G<80 158> -11 56<168.288 298.479> 0 21G<360 436> 425 20G<80 158 358 436>
VStem: 80 78<-195 -9 56.6715 445> 358 78<0 48 88.3105 445>
LayerCount: 2
Fore
SplineSet
80 -195 m 1
 80 445 l 1
 158 445 l 1
 158 110 l 1
 159 67 170 45 238 45 c 0xdc
 313 45 352 93 357 136 c 0
 358 146 358 155 358 165 c 2
 358 445 l 1
 436 445 l 1
 436 0 l 1
 360 0 l 1xbc
 360 48 l 1
 308 3 240 -11 186 -11 c 0xdc
 177 -11 167 -10 158 -9 c 1
 158 -195 l 1
 80 -195 l 1
EndSplineSet
EndChar

StartChar: paragraph
Encoding: 182 182 367
Width: 611
Flags: HW
TeX: 722 194
HStem: -194 21G<359.5 379 469.5 483> 682 40<390 459 499 580.765>
VStem: 55 335<390.869 576.744> 350 40<-193.983 245.415> 459 40<-193.987 682>
LayerCount: 2
Fore
SplineSet
55 484 m 0xe8
 55 580 128 722 318 722 c 2
 551 722 l 2
 570 722 576 719 581 707 c 1
 582 698 580 683 556 682 c 1
 499 682 l 1
 499 -165 l 2
 499 -189 487 -194 479 -194 c 0
 460 -194 459 -176 459 -165 c 2
 459 682 l 1
 390 682 l 1
 390 -162 l 2
 390 -174 388 -194 370 -194 c 0
 349 -194 350 -170 350 -165 c 2
 350 244 l 1xd8
 218 251 55 323 55 484 c 0xe8
EndSplineSet
EndChar

StartChar: periodcentered
Encoding: 183 183 368
Width: 236
Flags: HW
TeX: 444 0
HStem: 175 89<73 163>
VStem: 73 90<175 264>
LayerCount: 2
Fore
SplineSet
73 175 m 1
 73 264 l 1
 163 264 l 1
 163 175 l 1
 73 175 l 1
EndSplineSet
EndChar

StartChar: uni203B
Encoding: 8251 8251 369
Width: 648
Flags: HW
TeX: 534 0
HStem: -0 124<262.222 384.475> 207 123<55.3831 178.578 468.384 591.621> 413 124<262.222 384.375>
VStem: 55 124<207.356 329.076> 262 123<0.546875 123.363 413.588 536.406> 468 124<207.356 329.667>
DStem2: 254 366 62 503 0.706369 -0.707844<-205.725 97.5807 138.634 482.523> 79 52 105 22 0.707107 0.707107<-38.4875 305.47 346.482 690.409>
CounterMasks: 1 fc
LayerCount: 2
Fore
SplineSet
55 235 m 2
 55 303 l 2
 55 322 65 331 83 331 c 0
 84 331 84 330 85 330 c 2
 146 330 l 2
 176 330 179 317 179 301 c 2
 179 235 l 2
 179 217 170 207 152 207 c 2
 85 207 l 2
 70 207 55 208 55 235 c 2
56 19 m 1
 57 33 62 35 79 52 c 2
 295 269 l 1
 266 296 66 497 62 503 c 0
 58 508 56 512 56 517 c 0
 56 527 64 536 75 536 c 2
 76 536 l 2
 89 536 86 534 254 366 c 0
 277 343 301 321 323 297 c 1
 324 297 l 1
 542 515 l 2
 552 525 560 536 572 536 c 0
 584 536 591 527 591 517 c 0
 591 504 579 496 568 485 c 2
 352 268 l 1
 569 51 l 2
 577 43 591 33 591 20 c 0
 591 8 582 1 572 1 c 0
 560 1 552 12 541 23 c 2
 324 240 l 1
 323 240 l 1
 105 22 l 2
 97 14 87 1 75 1 c 0
 59 1 57 15 56 19 c 1
262 28 m 2
 262 96 l 1
 261 115 271 124 289 124 c 2
 354 124 l 2
 384 124 385 110 385 92 c 2
 385 29 l 1
 384 15 385 1 357 -0 c 1
 292 -0 l 2
 264 0 262 12 262 28 c 2
262 441 m 2
 262 509 l 1
 261 528 271 537 289 537 c 2
 354 537 l 2
 384 537 385 524 385 506 c 2
 385 443 l 1
 384 429 385 414 357 413 c 1
 292 413 l 2
 264 413 262 426 262 441 c 2
468 235 m 2
 468 303 l 2
 468 322 478 331 496 331 c 0
 497 331 498 330 499 330 c 2
 560 330 l 2
 578 330 592 329 592 302 c 2
 592 235 l 2
 592 217 584 207 566 207 c 2
 499 207 l 2
 483 207 468 208 468 235 c 2
EndSplineSet
EndChar

StartChar: onesuperior
Encoding: 185 185 370
Width: 444
Flags: HW
TeX: 749 0
HStem: 361 59<83 192 272 374> 639 58<69 179.159>
VStem: 192 80<420 665>
LayerCount: 2
Fore
SplineSet
69 639 m 1
 69 697 l 1
 180 698 229 746 253 772 c 1
 272 772 l 1
 272 420 l 1
 374 420 l 1
 374 361 l 1
 83 361 l 1
 83 420 l 1
 192 420 l 1
 192 665 l 1
 181 660 143 640 69 639 c 1
EndSplineSet
EndChar

StartChar: ordmasculine
Encoding: 186 186 371
Width: 444
Flags: HW
TeX: 749 0
HStem: 274 61<26.4894 417.828> 364 64<157.525 285.307> 705 61<156.514 286.282>
VStem: 30 79<481.74 654.989> 335 79<480.598 652.115>
LayerCount: 2
Fore
SplineSet
25 304 m 0
 25 314 30 335 65 335 c 2
 378 335 l 2
 400 335 419 329 419 304 c 0
 419 295 415 274 380 274 c 2
 75 274 l 2
 71 274 67 273 63 273 c 0
 30 273 25 296 25 304 c 0
30 561 m 0
 30 665 108 766 222 766 c 0
 333 766 414 666 414 561 c 0
 414 446 322 364 222 364 c 0
 121 364 30 447 30 561 c 0
109 570 m 0
 109 483 155 428 223 428 c 0
 268 428 335 460 335 570 c 0
 335 675 268 705 222 705 c 0
 173 705 109 673 109 570 c 0
EndSplineSet
EndChar

StartChar: radical
Encoding: 8730 8730 372
Width: 472
Flags: HW
TeX: 749 209
HStem: 722 40<406 520.937>
DStem2: 21 94 65 51 0.495343 0.868698<0 84.2896> 203 82 204 -77 0.245104 0.969497<0 670.234>
LayerCount: 2
Fore
SplineSet
21 94 m 1
 155 329 l 1
 203 82 l 1
 371 745 l 1
 376 760 386 762 401 762 c 2
 492 762 l 2
 517 762 521 751 521 743 c 0
 521 722 499 722 489 722 c 2
 406 722 l 1
 204 -77 l 2
 200 -94 197 -105 172 -105 c 2
 161 -105 l 1
 114 138 l 1
 65 51 l 1
 21 94 l 1
EndSplineSet
EndChar

StartChar: onequarter
Encoding: 188 188 373
Width: 444
Flags: HW
TeX: 749 194
HStem: -195 21G<237 317> -109 62<110 237 317 416> 258 40<8.23947 433.717> 338 58<82 192 272 374> 672 59<69 190.315>
VStem: 192 80<396 686> 242 75<-195 -109 -47 180>
LayerCount: 2
Fore
SplineSet
8 280 m 1
 13 297 25 298 35 298 c 2
 404 298 l 2
 419 298 428 297 434 283 c 1
 435 272 434 258 407 258 c 2
 36 258 l 2
 13 258 9 267 8 280 c 1
27 -47 m 1
 220 218 l 1
 317 218 l 1xfa
 317 -47 l 1
 416 -47 l 1
 416 -109 l 1
 317 -109 l 1
 317 -195 l 1
 237 -195 l 1
 237 -109 l 1
 27 -109 l 1
 27 -47 l 1
69 672 m 1
 69 731 l 1
 124 731 191 733 252 772 c 1
 272 772 l 1
 272 396 l 1
 374 396 l 1
 374 338 l 1
 82 338 l 1
 82 396 l 1
 192 396 l 1
 192 686 l 1xfc
 156 677 124 672 69 672 c 1
110 -47 m 1
 242 -47 l 1xfa
 242 180 l 1
 233 137 232 123 110 -47 c 1
EndSplineSet
EndChar

StartChar: onehalf
Encoding: 189 189 374
Width: 444
Flags: HW
TeX: 749 194
HStem: -195 65<123 393> 181 59<120.355 278.237> 258 40<8.23947 433.717> 338 58<82 192 272 374> 672 59<69 190.315>
VStem: 192 80<396 686> 310 83<41.8449 149.5>
DStem2: 49 -136 123 -130 0.805951 0.591982<63.1923 335.227>
LayerCount: 2
Fore
SplineSet
8 280 m 1
 13 297 25 298 35 298 c 2
 404 298 l 2
 419 298 428 297 434 283 c 1
 435 272 434 258 407 258 c 2
 36 258 l 2
 13 258 9 267 8 280 c 1
41 168 m 1
 90 219 135 240 207 240 c 2
 208 240 l 2
 316 240 393 185 393 102 c 0
 393 20 302 -6 234 -53 c 2
 123 -130 l 1
 393 -130 l 1
 393 -195 l 1
 49 -195 l 1
 49 -136 l 1
 162 -53 l 1
 250 3 310 34 310 100 c 0
 310 163 243 181 194 181 c 0
 125 181 100 146 80 110 c 1
 41 168 l 1
69 672 m 1
 69 731 l 1
 124 731 191 733 252 772 c 1
 272 772 l 1
 272 396 l 1
 374 396 l 1
 374 338 l 1
 82 338 l 1
 82 396 l 1
 192 396 l 1
 192 686 l 1
 156 677 124 672 69 672 c 1
EndSplineSet
EndChar

StartChar: threequarters
Encoding: 190 190 375
Width: 444
Flags: HW
TeX: 749 194
HStem: -195 21G<237 317> -109 62<110 237 317 416> 258 40<8.23947 433.717> 315 62<62.4772 287.294> 520 61<166 256.961> 713 59<129.473 278.204>
VStem: 242 75<-195 -109 -47 180> 291 83<613.308 699.503> 312 89<400.531 496.449>
LayerCount: 2
Fore
SplineSet
8 280 m 1
 13 297 25 298 35 298 c 2
 404 298 l 2
 419 298 428 297 434 283 c 1
 435 272 434 258 407 258 c 2
 36 258 l 2
 13 258 9 267 8 280 c 1
27 -47 m 1
 220 218 l 1
 317 218 l 1xfe
 317 -47 l 1
 416 -47 l 1
 416 -109 l 1
 317 -109 l 1
 317 -195 l 1
 237 -195 l 1
 237 -109 l 1
 27 -109 l 1
 27 -47 l 1
41 340 m 1
 50 402 l 1
 94 391 144 377 214 377 c 0
 296 377 312 423 312 448 c 0xfc80
 312 514 237 520 213 520 c 2
 166 520 l 1
 166 581 l 1
 195 584 229 583 258 603 c 0
 277 616 291 637 291 660 c 0
 291 681 277 713 219 713 c 0
 158 713 117 687 88 664 c 1
 55 720 l 1
 100 750 153 772 219 772 c 0
 307 772 374 723 374 660 c 0xfd
 374 590 306 555 299 550 c 1
 316 544 401 516 401 447 c 0
 401 386 337 315 215 315 c 0
 152 315 90 327 41 340 c 1
110 -47 m 1
 242 -47 l 1xfe
 242 180 l 1
 233 137 232 123 110 -47 c 1
EndSplineSet
EndChar

StartChar: Euro.old
Encoding: 62028 62028 376
Width: 778
Flags: HW
TeX: 694 0
HStem: 0 66<398.242 721> 255 65<55 140 245 555> 402 65<55 141 250 555> 629 65<394.498 721>
VStem: 138 90<320 402>
LayerCount: 2
Fore
SplineSet
55 255 m 1
 55 320 l 1
 140 320 l 1
 138 366 l 1
 141 402 l 1
 55 402 l 1
 55 466 l 1
 127 466 l 1
 157 467 l 1
 194 575 312 687 485 694 c 1
 721 694 l 1
 721 628 l 1
 673 629 l 1
 489 629 l 1
 365 624 283 543 250 467 c 1
 456 467 l 1
 481 468 l 1
 555 468 l 1
 555 402 l 1
 231 402 l 1
 229 388 228 374 228 360 c 0
 228 352 229 321 230 320 c 1
 555 320 l 1
 555 254 l 1
 483 254 l 1
 458 255 l 1
 245 255 l 1
 297 115 409 69 489 65 c 1
 646 66 l 1
 721 66 l 1
 721 0 l 1
 514 0 l 1
 483 1 464 0 428 7 c 0
 299 33 195 125 154 255 c 1
 55 255 l 1
EndSplineSet
EndChar

StartChar: multiply
Encoding: 215 215 377
Width: 778
Flags: HW
TeX: 577 83
DStem2: 197 470 171 439 0.70797 -0.706243<-34.9626 270.772 311.127 616.86> 172 61 188 21 0.707107 0.707107<-31.1127 266.579 306.884 612.694>
LayerCount: 2
Fore
SplineSet
148 28 m 0
 148 41 163 52 172 61 c 2
 360 250 l 1
 171 439 l 2
 154 457 149 458 148 473 c 0
 148 480 156 490 167 490 c 0
 179 490 187 480 197 470 c 2
 389 278 l 1
 581 471 l 2
 591 481 599 490 610 490 c 0
 625 490 629 476 629 472 c 0
 629 458 617 451 606 439 c 2
 417 250 l 1
 606 61 l 2
 625 41 628 40 629 27 c 0
 629 19 621 10 610 10 c 0
 598 10 589 22 581 30 c 2
 388 222 l 1
 188 21 l 1
 177 12 l 2
 175 11 171 9 166 9 c 0
 158 9 148 19 148 28 c 0
EndSplineSet
EndChar

StartChar: divide
Encoding: 247 247 378
Width: 778
Flags: HW
TeX: 577 83
HStem: -34 123<326.325 449.427> 230 40<56.0109 719.984> 411 123<326.423 449.453>
VStem: 326 124<-33.3809 88.3048 411.44 533.535>
CounterMasks: 1 e0
LayerCount: 2
Fore
SplineSet
56 250 m 0
 56 268 71 270 85 270 c 2
 684 270 l 2
 699 270 720 271 720 250 c 0
 720 230 698 230 692 230 c 2
 83 230 l 2
 65 230 56 240 56 250 c 0
326 -6 m 2
 326 61 l 1
 325 80 335 89 353 89 c 2
 418 89 l 2
 448 89 450 77 450 59 c 2
 450 10 l 2
 450 -21 451 -34 421 -34 c 2
 356 -34 l 2
 329 -34 326 -20 326 -6 c 2
326 439 m 2
 326 506 l 2
 326 524 335 534 353 534 c 2
 418 534 l 2
 435 534 450 532 450 506 c 2
 450 455 l 2
 450 424 451 412 422 411 c 1
 356 411 l 2
 338 411 326 415 326 439 c 2
EndSplineSet
EndChar

StartChar: cyrflex
Encoding: 63189 63189 380
Width: 500
Flags: HW
TeX: 638 0
HStem: 583 67<171.231 327.392>
VStem: 80 61<510 553.518> 357 62<510 553.518>
LayerCount: 2
Fore
SplineSet
80 510 m 1
 83 602 169 650 249 650 c 0
 331 650 416 602 419 510 c 1
 357 510 l 1
 351 575 275 583 250 583 c 0
 223 583 147 576 141 510 c 1
 80 510 l 1
EndSplineSet
EndChar

StartChar: cyrbreve
Encoding: 63188 63188 382
Width: 500
Flags: HW
TeX: 638 0
HStem: 500 67<171.669 327.901>
VStem: 80 61<595.914 639> 358 61<595.561 639>
LayerCount: 2
Fore
SplineSet
80 639 m 1
 141 639 l 1
 147 575 222 567 249 567 c 0
 277 567 352 575 358 639 c 1
 419 639 l 1
 416 547 330 500 250 500 c 0
 171 500 83 548 80 639 c 1
EndSplineSet
EndChar

StartChar: emdash.cyr
Encoding: 61715 61715 383
Width: 805
Flags: HW
TeX: 444 0
ItalicCorrection: 27
HStem: 244 61<14 791>
LayerCount: 2
Fore
SplineSet
14 244 m 1
 14 305 l 1
 791 305 l 1
 791 244 l 1
 14 244 l 1
EndSplineSet
EndChar

StartChar: afii10050
Encoding: 1168 1168 385
Width: 555
Flags: HW
TeX: 888 0
HStem: 0 21G<94 184> 630 64<184 449>
VStem: 94 90<0 630> 449 64<694 889>
LayerCount: 2
Fore
SplineSet
94 0 m 1
 94 694 l 1
 449 694 l 1
 449 889 l 1
 513 889 l 1
 513 630 l 1
 184 630 l 1
 184 0 l 1
 94 0 l 1
EndSplineSet
EndChar

StartChar: uni0492
Encoding: 1170 1170 386
Width: 542
Flags: HW
TeX: 694 0
HStem: -0 21G<93 183> 332 58<18 93 183 298> 629 65<183 498>
VStem: 93 90<0 332 390 630>
LayerCount: 2
Fore
SplineSet
18 332 m 1
 18 390 l 1
 93 390 l 1
 93 694 l 1
 498 694 l 1
 498 628 l 1
 448 628 l 1
 424 629 l 1
 210 629 l 1
 183 630 l 1
 183 390 l 1
 298 390 l 1
 298 332 l 1
 183 332 l 1
 183 -0 l 1
 93 -0 l 1
 93 332 l 1
 18 332 l 1
EndSplineSet
EndChar

StartChar: afii10051
Encoding: 1026 1026 387
Width: 819
Flags: HW
TeX: 694 0
HStem: -22 61<485.987 647.917> -0 21G<295 384> 405 62<477.15 651.615> 629 65<35 295 384 644>
VStem: 295 89<0 330.306 378 630> 704 78<98.4849 358.514>
LayerCount: 2
Fore
SplineSet
35 628 m 1
 35 694 l 1
 644 694 l 1
 644 629 l 1
 428 629 l 1
 384 630 l 1
 384 378 l 1
 404 400 465 467 587 467 c 0
 759 467 782 374 782 284 c 0
 782 259 782 234 782 209 c 0
 782 178 783 161 775 131 c 0
 759 73 706 -22 576 -22 c 0xbc
 527 -22 501 -16 454 -0 c 1x7c
 472 68 l 1
 503 52 524 39 581 39 c 0
 646 39 677 83 689 110 c 0
 703 140 704 173 704 206 c 2xbc
 704 277 l 2
 704 328 702 405 536 405 c 0
 492 405 457 393 426 359 c 0
 390 319 384 275 384 234 c 2
 384 -0 l 1
 295 -0 l 1x7c
 295 630 l 1
 177 629 l 1
 99 629 l 1
 77 628 l 1
 35 628 l 1
EndSplineSet
EndChar

StartChar: afii10060
Encoding: 1035 1035 388
Width: 764
Flags: HW
TeX: 694 0
HStem: 0 21G<260 349 582 660> 394 61<414.41 546.408> 629 65<35 260 349 629>
VStem: 260 89<0 334.633 382 629> 582 78<0 358.706>
LayerCount: 2
Fore
SplineSet
35 628 m 1
 35 694 l 1
 629 694 l 1
 629 629 l 1
 398 629 l 1
 349 630 l 1
 349 382 l 1
 381 417 427 455 507 455 c 0
 656 455 660 347 660 284 c 2
 660 0 l 1
 582 0 l 1
 582 281 l 2
 582 331 575 394 463 394 c 0
 389 394 349 324 349 240 c 2
 349 0 l 1
 260 0 l 1
 260 629 l 1
 92 629 l 1
 72 628 l 1
 35 628 l 1
EndSplineSet
EndChar

StartChar: uni04BA
Encoding: 1210 1210 389
Width: 694
Flags: HW
TeX: 694 0
HStem: 0 21G<94 184 510 599> 461 61<279.736 446.12> 674 20G<94 184>
VStem: 94 90<0 358.019 439 694> 510 89<0 400.31>
LayerCount: 2
Fore
SplineSet
94 0 m 1
 94 694 l 1
 184 694 l 1
 184 439 l 1
 233 485 301 522 394 522 c 0
 592 522 599 388 599 302 c 2
 599 0 l 1
 510 0 l 1
 510 301 l 1
 509 350 515 461 347 461 c 0
 282 461 184 413 184 240 c 2
 184 0 l 1
 94 0 l 1
EndSplineSet
EndChar

StartChar: uni0496
Encoding: 1174 1174 390
Width: 1111
Flags: HW
TeX: 694 194
HStem: -195 21G<1010 1074> 0 21G<41 148.388 511 597> 674 20G<55 167.569 511 597 941.377 1054>
VStem: 511 86<0 228 323 694> 1010 64<-195 0>
DStem2: 41 0 135 0 0.557434 0.830221<52.3988 489.226> 148 694 55 694 0.699396 -0.714734<0 318.231 397.438 519.047> 597 323 597 228 0.700179 0.713968<0 122.383 201.589 519.747> 786 420 731 363 0.556284 -0.830992<16.7709 427.398>
LayerCount: 2
Fore
SplineSet
41 0 m 1
 323 420 l 1
 55 694 l 1
 148 694 l 1
 511 323 l 1
 511 694 l 1
 597 694 l 1
 597 323 l 1
 961 694 l 1
 1054 694 l 1
 786 420 l 1
 1024 65 l 1
 1074 65 l 1
 1074 -195 l 1
 1010 -195 l 1
 1010 0 l 1
 974 0 l 1
 731 363 l 1
 597 228 l 1
 597 0 l 1
 511 0 l 1
 511 228 l 1
 378 363 l 1
 135 0 l 1
 41 0 l 1
EndSplineSet
EndChar

StartChar: uni0498
Encoding: 1176 1176 391
Width: 611
Flags: HW
TeX: 694 194
HStem: -43 20G<267.371 336> -22 56<181.718 399.902> 330 62<194 362.529> 660 56<194.849 406.695>
VStem: 462 79<462.724 608.259> 487 82<113.95 251.667>
DStem2: 201 -217 271 -217 0.356396 0.934335<24.9477 207.634>
LayerCount: 2
Fore
SplineSet
50 77 m 1
 85 138 l 1
 138 78 174 34 301 34 c 0
 426 34 487 116 487 182 c 0xf4
 487 226 453 330 289 330 c 2
 194 330 l 1
 194 392 l 1
 262 392 l 1
 262 392 266 391 274 391 c 0
 378 391 462 446 462 529 c 0
 462 640 380 660 305 660 c 0
 181 660 131 598 99 563 c 1
 61 630 l 1
 133 687 197 716 307 716 c 0
 434 716 541 680 541 530 c 0xf8
 541 497 529 406 365 363 c 1
 479 344 569 271 569 181 c 0
 569 80 468 -22 300 -22 c 0
 186 -22 137 -1 50 77 c 1
201 -217 m 1
 275 -23 l 1
 336 -23 l 1xf0
 271 -217 l 1
 201 -217 l 1
EndSplineSet
EndChar

StartChar: afii10058
Encoding: 1033 1033 392
Width: 1037
Flags: HW
TeX: 694 0
HStem: -0 63<19 129.301> -0 56<616 821.42> 330 62<617 824.438> 630 64<288 527>
VStem: 224 64<463.757 630> 527 89<56 330 392 630> 899 82<127.484 261.22>
LayerCount: 2
Fore
SplineSet
19 -0 m 1
 19 63 l 1
 57 63 l 1xbe
 108 64 166 60 198 266 c 0
 218 398 224 502 224 694 c 1
 616 694 l 1
 616 392 l 1
 746 392 l 2
 792 392 832 388 877 363 c 0
 935 331 981 270 981 195 c 0
 981 120 924 0 747 -0 c 2
 527 -0 l 1x7e
 527 630 l 1
 288 630 l 1
 288 586 287 361 248 190 c 0
 211 27 147 0 80 -0 c 2xbe
 19 -0 l 1
616 56 m 1
 726 56 l 2
 853 56 899 139 899 194 c 0x7e
 899 243 862 331 720 331 c 0
 713 331 707 330 700 330 c 2
 617 330 l 1
 616 292 l 1
 616 56 l 1
EndSplineSet
EndChar

StartChar: uni049A
Encoding: 1178 1178 394
Width: 694
Flags: HW
TeX: 694 194
HStem: -195 21G<593 657> 0 21G<95 181> 674 20G<95 181 524.431 637>
VStem: 95 86<0 228 323 694> 593 64<-195 0>
DStem2: 181 323 181 228 0.699396 0.714734<0 121.609 200.816 519.047> 369 419 314 363 0.556284 -0.830992<15.9399 426.567>
LayerCount: 2
Fore
SplineSet
95 0 m 1
 95 694 l 1
 181 694 l 1
 181 323 l 1
 544 694 l 1
 637 694 l 1
 369 420 l 1
 369 419 l 1
 607 65 l 1
 657 65 l 1
 657 -195 l 1
 593 -195 l 1
 593 0 l 1
 557 0 l 1
 314 363 l 1
 181 228 l 1
 181 0 l 1
 95 0 l 1
EndSplineSet
EndChar

StartChar: uni04A0
Encoding: 1184 1184 395
Width: 896
Flags: HW
TeX: 694 0
HStem: -0 21G<296 382 745.556 852> 629 65<35 296>
VStem: 296 86<0 228 323 630>
DStem2: 382 323 382 228 0.700179 0.713968<0 121.682 200.888 519.047> 570 419 515 363 0.55835 -0.829605<15.7486 453.133>
LayerCount: 2
Fore
SplineSet
35 628 m 1
 35 694 l 1
 382 694 l 1
 382 323 l 1
 745 694 l 1
 839 694 l 1
 570 420 l 1
 570 419 l 1
 852 -0 l 1
 759 -0 l 1
 515 363 l 1
 382 228 l 1
 382 -0 l 1
 296 -0 l 1
 296 630 l 1
 177 629 l 1
 99 629 l 1
 77 628 l 1
 35 628 l 1
EndSplineSet
EndChar

StartChar: uni049C
Encoding: 1180 1180 396
Width: 798
Flags: HW
TeX: 694 0
HStem: 0 21G<95 181 644.385 755> 390 61<181 293 352 374> 674 20G<95 181 622.683 741>
VStem: 95 86<0 390 451 694> 293 59<240 390 451 587>
DStem2: 449 419 374 390 0.589775 -0.807568<0 462.224> 385 451 449 420 0.729226 0.684273<25.458 355.148>
LayerCount: 2
Fore
SplineSet
95 0 m 1
 95 694 l 1
 181 694 l 1
 181 451 l 1
 293 451 l 1
 293 587 l 1
 352 587 l 1
 352 451 l 1
 385 451 l 1
 644 694 l 1
 741 694 l 1
 449 420 l 1
 449 419 l 1
 755 0 l 1
 659 0 l 1
 374 390 l 1
 352 390 l 1
 352 240 l 1
 293 240 l 1
 293 390 l 1
 181 390 l 1
 181 0 l 1
 95 0 l 1
EndSplineSet
EndChar

StartChar: uni04A2
Encoding: 1186 1186 398
Width: 711
Flags: HW
TeX: 694 194
HStem: -195 21G<610 674> 0 21G<94 184> 330 62<184 510> 674 20G<94 184 510 599>
VStem: 94 90<0 330 392 694> 510 89<62 330 392 694> 610 64<-195 0>
LayerCount: 2
Fore
SplineSet
94 0 m 1
 94 694 l 1
 184 694 l 1
 184 392 l 1
 510 392 l 1
 510 694 l 1
 599 694 l 1
 599 62 l 1
 674 62 l 1
 674 -195 l 1
 610 -195 l 1
 610 0 l 1
 510 0 l 1
 510 330 l 1
 184 330 l 1
 184 0 l 1
 94 0 l 1
EndSplineSet
EndChar

StartChar: uni04A4
Encoding: 1188 1188 399
Width: 896
Flags: HW
TeX: 694 0
HStem: 0 21G<94 184 510 599> 330 62<184 510> 629 65<599 859>
VStem: 94 90<0 330 392 694> 510 89<0 330 392 630>
LayerCount: 2
Fore
SplineSet
94 0 m 1
 94 694 l 1
 184 694 l 1
 184 392 l 1
 510 392 l 1
 510 694 l 1
 859 694 l 1
 859 628 l 1
 817 628 l 1
 795 629 l 1
 717 629 l 1
 599 630 l 1
 599 0 l 1
 510 0 l 1
 510 330 l 1
 184 330 l 1
 184 0 l 1
 94 0 l 1
EndSplineSet
EndChar

StartChar: uni04E8
Encoding: 1256 1256 401
Width: 736
Flags: HW
TeX: 694 0
HStem: -22 65<284.142 447.868> 330 62<146 589> 652 64<282.611 450.545>
VStem: 55 91<219.567 330 392 424> 589 90<222.528 330 392 474.606>
AnchorPoint: "above" 368 716 basechar 0
LayerCount: 2
Fore
SplineSet
55 345 m 0
 55 554 199 716 368 716 c 0
 534 716 679 555 679 345 c 0
 679 130 529 -22 367 -22 c 0
 203 -22 55 132 55 345 c 0
145 392 m 1
 589 392 l 1
 564 626 411 652 367 652 c 0
 250 652 167 546 149 424 c 1
 145 392 l 1
146 330 m 1
 146 231 213 43 367 43 c 0
 478 43 578 151 589 330 c 1
 146 330 l 1
EndSplineSet
EndChar

StartChar: uni04AA
Encoding: 1194 1194 402
Width: 639
Flags: HW
TeX: 694 194
HStem: -43 20G<349.474 419> -22 64<306.02 515.635> 652 64<304.179 504.131>
VStem: 66 90<218.901 470.619>
DStem2: 284 -217 354 -217 0.352181 0.935932<24.6526 207.28>
LayerCount: 2
Fore
SplineSet
66 347 m 0
 66 560 217 716 379 716 c 0
 443 716 488 715 577 682 c 1
 562 599 l 1
 511 630 469 652 392 652 c 0
 258 652 156 515 156 347 c 0
 156 178 258 42 395 42 c 0
 498 42 532 71 582 103 c 1
 588 33 l 1
 518 -9 478 -22 394 -22 c 0
 197 -22 66 155 66 347 c 0
284 -217 m 1
 357 -23 l 1
 419 -23 l 1
 354 -217 l 1
 284 -217 l 1
EndSplineSet
EndChar

StartChar: uni04B0
Encoding: 1200 1200 405
Width: 667
Flags: HW
TeX: 694 0
ItalicCorrection: 24
HStem: 0 21G<289 376> 219 59<152 289 376 512> 674 20G<2 120.803 558 662>
VStem: 289 87<0 219>
DStem2: 107 694 2 694 0.567872 -0.823117<0 416.189> 341 348 376 278 0.566529 0.824042<0 417.12>
AnchorPoint: "above" 332 716 basechar 0
LayerCount: 2
Fore
SplineSet
2 694 m 1
 107 694 l 1
 254 481 l 1
 298 415 326 376 341 348 c 1
 369 397 542 648 574 694 c 1
 662 694 l 1
 376 278 l 1
 512 278 l 1
 512 219 l 1
 376 219 l 1
 376 0 l 1
 289 0 l 1
 289 219 l 1
 152 219 l 1
 152 278 l 1
 289 278 l 1
 2 694 l 1
EndSplineSet
EndChar

StartChar: uni04B2
Encoding: 1202 1202 406
Width: 667
Flags: HW
TeX: 694 194
HStem: -195 21G<588 652> 0 21G<14 124.164> 674 20G<28 147.789 499.594 610>
VStem: 588 64<-195 0>
DStem2: 14 0 110 0 0.584551 0.811357<56.1169 429.844 533.698 855.357> 133 694 28 694 0.597336 -0.801991<0 0 427.26 781.804>
LayerCount: 2
Fore
SplineSet
14 0 m 1
 282 365 l 1
 282 366 l 1
 28 694 l 1
 133 694 l 1
 326 433 l 1
 514 694 l 1
 610 694 l 1
 369 366 l 1
 369 365 l 1
 600 67 l 1
 652 67 l 1
 652 -195 l 1
 588 -195 l 1
 588 0 l 1
 547 0 l 1
 326 305 l 1
 110 0 l 1
 14 0 l 1
EndSplineSet
EndChar

StartChar: afii10145
Encoding: 1039 1039 407
Width: 694
Flags: HW
TeX: 694 194
HStem: -195 21G<309 384> 0 67<184 309 384 510> 674 20G<94 184 510 599>
VStem: 94 90<67 694> 309 75<-195 0> 510 89<67 694>
LayerCount: 2
Fore
SplineSet
94 0 m 1
 94 694 l 1
 184 694 l 1
 184 67 l 1
 510 67 l 1
 510 694 l 1
 599 694 l 1
 599 0 l 1
 384 0 l 1
 384 -195 l 1
 309 -195 l 1
 309 0 l 1
 94 0 l 1
EndSplineSet
EndChar

StartChar: uni04B8
Encoding: 1208 1208 408
Width: 694
Flags: HW
TeX: 694 0
HStem: 0 21G<510 599> 304 59<212.389 318 376 510> 674 20G<94 184 510 599>
VStem: 94 90<389.991 694> 318 58<160 304 363 507> 510 89<0 304 363 694>
LayerCount: 2
Fore
SplineSet
94 448 m 2
 94 694 l 1
 184 694 l 1
 184 455 l 2
 184 381 233 363 287 363 c 2
 318 363 l 1
 318 507 l 1
 376 507 l 1
 376 363 l 1
 510 363 l 1
 510 694 l 1
 599 694 l 1
 599 0 l 1
 510 0 l 1
 510 304 l 1
 376 304 l 1
 376 160 l 1
 318 160 l 1
 318 304 l 1
 286 304 l 1
 161 306 94 377 94 448 c 2
EndSplineSet
EndChar

StartChar: uni04B6
Encoding: 1206 1206 409
Width: 711
Flags: HW
TeX: 694 194
HStem: -195 21G<605 669> 304 59<211.35 510> 674 20G<94 184 510 599>
VStem: 94 90<391.222 694> 510 89<62 304 363 694> 605 64<-195 0>
LayerCount: 2
Fore
SplineSet
94 449 m 2
 94 694 l 1
 184 694 l 1
 184 455 l 2
 184 368 254 363 285 363 c 2
 510 363 l 1
 510 694 l 1
 599 694 l 1
 599 62 l 1
 669 62 l 1
 669 -195 l 1
 605 -195 l 1
 605 -0 l 1
 510 -0 l 1
 510 304 l 1
 288 304 l 2
 239 304 188 313 139 356 c 0
 99 391 94 423 94 449 c 2
EndSplineSet
EndChar

StartChar: afii10053
Encoding: 1028 1028 410
Width: 639
Flags: HW
TeX: 694 0
HStem: -22 64<304.479 515.381> 316 62<157 501> 652 64<303.046 503.914>
VStem: 66 91<218.344 316 378 474.329>
CounterMasks: 1 e0
AnchorPoint: "above" 378 716 basechar 0
LayerCount: 2
Fore
SplineSet
66 347 m 0
 66 574 236 716 379 716 c 0
 443 716 488 715 577 682 c 1
 562 599 l 1
 510 631 469 652 392 652 c 0
 251 652 165 508 157 378 c 1
 501 378 l 1
 501 316 l 1
 157 316 l 1
 165 186 251 42 392 42 c 0
 496 42 527 68 582 103 c 1
 588 33 l 1
 518 -9 478 -22 394 -22 c 0
 197 -22 66 155 66 347 c 0
EndSplineSet
EndChar

StartChar: uni04D8
Encoding: 1240 1240 411
Width: 669
Flags: HW
TeX: 694 0
HStem: -22 64<228.012 407.722> 271 62<107 536> 652 64<167.104 397.434>
VStem: 536 90<200.822 271 333 481.5>
AnchorPoint: "above" 314 716 basechar 0
LayerCount: 2
Fore
SplineSet
27 333 m 1
 541 333 l 1
 541 572 404 637 355 648 c 0
 340 651 325 652 310 652 c 0
 197 652 177 636 97 599 c 1
 82 682 l 1
 190 715 225 716 302 716 c 2
 327 716 l 2
 486 716 626 558 626 345 c 0
 626 119 503 -22 319 -22 c 0
 202 -22 27 38 27 333 c 1
107 271 m 1
 113 155 186 42 319 42 c 0
 433 42 517 130 536 271 c 1
 107 271 l 1
EndSplineSet
EndChar

